{"glyphs":{"0":{"ha":772,"x_min":16,"x_max":755,"o":"m 62 0 q 59 1 60 0 l 49 13 q 50 18 46 16 l 104 66 q 107 68 106 68 l 270 68 q 273 66 271 68 l 303 31 q 304 28 304 31 l 300 3 q 296 0 300 0 l 62 0 m 326 5 l 329 26 q 330 28 329 27 l 374 66 q 377 68 376 68 l 539 68 q 543 66 541 68 l 583 19 q 583 14 586 16 l 568 1 q 566 0 568 0 l 330 0 q 327 1 328 0 q 326 5 325 3 m 397 975 q 395 974 396 974 l 232 974 q 229 975 231 974 l 189 1023 q 189 1028 185 1025 l 203 1040 q 205 1042 205 1042 l 442 1042 q 445 1040 444 1042 q 446 1037 446 1038 l 443 1015 q 441 1013 443 1015 l 397 975 m 83 508 l 109 508 q 111 507 111 508 l 142 472 q 143 469 143 469 l 90 88 q 88 85 88 85 l 33 37 q 27 38 30 35 l 17 50 q 16 53 16 51 l 80 505 q 83 508 80 508 m 499 975 l 469 1010 q 468 1013 467 1012 l 471 1038 q 475 1042 471 1042 l 709 1042 q 712 1040 711 1042 l 723 1028 q 722 1023 725 1025 l 667 975 q 665 974 666 974 l 502 974 q 499 975 500 974 m 629 572 l 682 954 q 684 956 682 955 l 739 1004 q 744 1004 741 1006 l 754 991 q 755 989 755 990 l 692 536 q 688 533 692 533 l 663 533 q 660 534 661 533 l 629 570 q 629 572 629 570 m 602 35 l 561 83 q 560 85 560 83 l 615 475 q 616 478 615 477 l 659 507 q 661 508 660 508 l 684 508 q 686 507 686 508 q 687 504 688 505 l 623 50 q 622 47 623 49 l 608 35 q 602 35 605 33 m 149 994 l 164 1006 q 170 1006 167 1009 l 210 959 q 212 956 212 958 l 158 575 q 157 572 157 572 l 113 534 q 110 533 111 533 l 88 533 q 85 534 87 533 q 84 538 84 537 l 148 991 q 149 994 149 994 m 116 97 l 132 214 q 133 215 132 214 q 133 216 133 216 l 302 460 q 306 462 304 462 l 314 462 q 317 460 316 462 q 317 458 317 460 l 301 340 q 301 339 301 340 q 300 338 300 338 l 131 94 q 127 93 130 93 l 120 93 q 117 94 117 93 q 116 97 116 95 m 454 584 l 471 701 q 471 703 471 703 l 641 947 q 644 949 642 949 l 652 949 q 654 947 654 949 q 656 945 656 947 l 639 827 q 638 825 639 826 l 469 581 q 466 580 468 580 l 458 580 q 455 581 456 580 q 454 584 454 583 z "},"1":{"ha":772,"x_min":454,"x_max":755,"o":"m 629 572 l 682 954 q 684 956 682 955 l 739 1004 q 744 1004 741 1006 l 754 991 q 755 989 755 990 l 692 536 q 688 533 692 533 l 663 533 q 660 534 661 533 l 629 570 q 629 572 629 570 m 602 35 l 561 83 q 560 85 560 83 l 615 475 q 616 478 615 477 l 659 507 q 661 508 660 508 l 684 508 q 686 507 686 508 q 687 504 688 505 l 623 50 q 622 47 623 49 l 608 35 q 602 35 605 33 m 454 584 l 471 701 q 471 703 471 703 l 641 947 q 644 949 642 949 l 652 949 q 654 947 654 949 q 656 945 656 947 l 639 827 q 638 825 639 826 l 469 581 q 466 580 468 580 l 458 580 q 455 581 456 580 q 454 584 454 583 z "},"2":{"ha":772,"x_min":46,"x_max":755,"o":"m 62 0 q 59 1 60 0 l 49 13 q 50 18 46 16 l 104 66 q 107 68 106 68 l 270 68 q 273 66 271 68 l 303 31 q 304 28 304 31 l 300 3 q 296 0 300 0 l 62 0 m 326 5 l 329 26 q 330 28 329 27 l 374 66 q 377 68 376 68 l 539 68 q 543 66 541 68 l 583 19 q 583 14 586 16 l 568 1 q 566 0 568 0 l 330 0 q 327 1 328 0 q 326 5 325 3 m 397 975 q 395 974 396 974 l 232 974 q 229 975 231 974 l 189 1023 q 189 1028 185 1025 l 203 1040 q 205 1042 205 1042 l 442 1042 q 445 1040 444 1042 q 446 1037 446 1038 l 443 1015 q 441 1013 443 1015 l 397 975 m 431 488 l 406 517 q 406 522 404 519 l 443 553 q 446 555 444 555 l 608 555 q 611 553 608 555 l 635 525 q 635 519 637 521 l 599 488 q 596 487 598 487 l 433 487 q 431 488 432 487 m 499 975 l 469 1010 q 468 1013 467 1012 l 471 1038 q 475 1042 471 1042 l 709 1042 q 712 1040 711 1042 l 723 1028 q 722 1023 725 1025 l 667 975 q 665 974 666 974 l 502 974 q 499 975 500 974 m 629 572 l 682 954 q 684 956 682 955 l 739 1004 q 744 1004 741 1006 l 754 991 q 755 989 755 990 l 692 536 q 688 533 692 533 l 663 533 q 660 534 661 533 l 629 570 q 629 572 629 570 m 116 97 l 132 214 q 133 215 132 214 q 133 216 133 216 l 302 460 q 306 462 304 462 l 314 462 q 317 460 316 462 q 317 458 317 460 l 301 340 q 301 339 301 340 q 300 338 300 338 l 131 94 q 127 93 130 93 l 120 93 q 117 94 117 93 q 116 97 116 95 z "},"3":{"ha":772,"x_min":46,"x_max":755,"o":"m 326 487 l 163 487 q 161 488 162 487 l 136 517 q 137 522 133 519 l 173 553 q 176 555 174 555 l 338 555 q 341 553 340 555 l 366 525 q 366 519 368 522 l 329 488 q 326 487 328 487 m 62 0 q 59 1 60 0 l 49 13 q 50 18 46 16 l 104 66 q 107 68 106 68 l 270 68 q 273 66 271 68 l 303 31 q 304 28 304 31 l 300 3 q 296 0 300 0 l 62 0 m 326 5 l 329 26 q 330 28 329 27 l 374 66 q 377 68 376 68 l 539 68 q 543 66 541 68 l 583 19 q 583 14 586 16 l 568 1 q 566 0 568 0 l 330 0 q 327 1 328 0 q 326 5 325 3 m 397 975 q 395 974 396 974 l 232 974 q 229 975 231 974 l 189 1023 q 189 1028 185 1025 l 203 1040 q 205 1042 205 1042 l 442 1042 q 445 1040 444 1042 q 446 1037 446 1038 l 443 1015 q 441 1013 443 1015 l 397 975 m 431 488 l 406 517 q 406 522 404 519 l 443 553 q 446 555 444 555 l 608 555 q 611 553 608 555 l 635 525 q 635 519 637 521 l 599 488 q 596 487 598 487 l 433 487 q 431 488 432 487 m 499 975 l 469 1010 q 468 1013 467 1012 l 471 1038 q 475 1042 471 1042 l 709 1042 q 712 1040 711 1042 l 723 1028 q 722 1023 725 1025 l 667 975 q 665 974 666 974 l 502 974 q 499 975 500 974 m 629 572 l 682 954 q 684 956 682 955 l 739 1004 q 744 1004 741 1006 l 754 991 q 755 989 755 990 l 692 536 q 688 533 692 533 l 663 533 q 660 534 661 533 l 629 570 q 629 572 629 570 m 602 35 l 561 83 q 560 85 560 83 l 615 475 q 616 478 615 477 l 659 507 q 661 508 660 508 l 684 508 q 686 507 686 508 q 687 504 688 505 l 623 50 q 622 47 623 49 l 608 35 q 602 35 605 33 z "},"4":{"ha":772,"x_min":84,"x_max":755,"o":"m 326 487 l 163 487 q 161 488 162 487 l 136 517 q 137 522 133 519 l 173 553 q 176 555 174 555 l 338 555 q 341 553 340 555 l 366 525 q 366 519 368 522 l 329 488 q 326 487 328 487 m 431 488 l 406 517 q 406 522 404 519 l 443 553 q 446 555 444 555 l 608 555 q 611 553 608 555 l 635 525 q 635 519 637 521 l 599 488 q 596 487 598 487 l 433 487 q 431 488 432 487 m 629 572 l 682 954 q 684 956 682 955 l 739 1004 q 744 1004 741 1006 l 754 991 q 755 989 755 990 l 692 536 q 688 533 692 533 l 663 533 q 660 534 661 533 l 629 570 q 629 572 629 570 m 602 35 l 561 83 q 560 85 560 83 l 615 475 q 616 478 615 477 l 659 507 q 661 508 660 508 l 684 508 q 686 507 686 508 q 687 504 688 505 l 623 50 q 622 47 623 49 l 608 35 q 602 35 605 33 m 149 994 l 164 1006 q 170 1006 167 1009 l 210 959 q 212 956 212 958 l 158 575 q 157 572 157 572 l 113 534 q 110 533 111 533 l 88 533 q 85 534 87 533 q 84 538 84 537 l 148 991 q 149 994 149 994 z "},"5":{"ha":772,"x_min":46,"x_max":725,"o":"m 62 0 q 59 1 60 0 l 49 13 q 50 18 46 16 l 104 66 q 107 68 106 68 l 270 68 q 273 66 271 68 l 303 31 q 304 28 304 31 l 300 3 q 296 0 300 0 l 62 0 m 326 5 l 329 26 q 330 28 329 27 l 374 66 q 377 68 376 68 l 539 68 q 543 66 541 68 l 583 19 q 583 14 586 16 l 568 1 q 566 0 568 0 l 330 0 q 327 1 328 0 q 326 5 325 3 m 397 975 q 395 974 396 974 l 232 974 q 229 975 231 974 l 189 1023 q 189 1028 185 1025 l 203 1040 q 205 1042 205 1042 l 442 1042 q 445 1040 444 1042 q 446 1037 446 1038 l 443 1015 q 441 1013 443 1015 l 397 975 m 326 487 l 163 487 q 161 488 162 487 l 136 517 q 137 522 133 519 l 173 553 q 176 555 174 555 l 338 555 q 341 553 340 555 l 366 525 q 366 519 368 522 l 329 488 q 326 487 328 487 m 499 975 l 469 1010 q 468 1013 467 1012 l 471 1038 q 475 1042 471 1042 l 709 1042 q 712 1040 711 1042 l 723 1028 q 722 1023 725 1025 l 667 975 q 665 974 666 974 l 502 974 q 499 975 500 974 m 149 994 l 164 1006 q 170 1006 167 1009 l 210 959 q 212 956 212 958 l 158 575 q 157 572 157 572 l 113 534 q 110 533 111 533 l 88 533 q 85 534 87 533 q 84 538 84 537 l 148 991 q 149 994 149 994 m 525 95 l 421 347 q 421 347 421 347 q 421 349 421 348 l 437 458 q 440 462 437 462 l 444 462 q 448 460 446 462 l 551 208 q 552 206 552 208 l 536 96 q 532 93 536 93 l 529 93 q 525 95 526 93 z "},"6":{"ha":772,"x_min":16,"x_max":725,"o":"m 62 0 q 59 1 60 0 l 49 13 q 50 18 46 16 l 104 66 q 107 68 106 68 l 270 68 q 273 66 271 68 l 303 31 q 304 28 304 31 l 300 3 q 296 0 300 0 l 62 0 m 326 5 l 329 26 q 330 28 329 27 l 374 66 q 377 68 376 68 l 539 68 q 543 66 541 68 l 583 19 q 583 14 586 16 l 568 1 q 566 0 568 0 l 330 0 q 327 1 328 0 q 326 5 325 3 m 397 975 q 395 974 396 974 l 232 974 q 229 975 231 974 l 189 1023 q 189 1028 185 1025 l 203 1040 q 205 1042 205 1042 l 442 1042 q 445 1040 444 1042 q 446 1037 446 1038 l 443 1015 q 441 1013 443 1015 l 397 975 m 326 487 l 163 487 q 161 488 162 487 l 136 517 q 137 522 133 519 l 173 553 q 176 555 174 555 l 338 555 q 341 553 340 555 l 366 525 q 366 519 368 522 l 329 488 q 326 487 328 487 m 431 488 l 406 517 q 406 522 404 519 l 443 553 q 446 555 444 555 l 608 555 q 611 553 608 555 l 635 525 q 635 519 637 521 l 599 488 q 596 487 598 487 l 433 487 q 431 488 432 487 m 83 508 l 109 508 q 111 507 111 508 l 142 472 q 143 469 143 469 l 90 88 q 88 85 88 85 l 33 37 q 27 38 30 35 l 17 50 q 16 53 16 51 l 80 505 q 83 508 80 508 m 499 975 l 469 1010 q 468 1013 467 1012 l 471 1038 q 475 1042 471 1042 l 709 1042 q 712 1040 711 1042 l 723 1028 q 722 1023 725 1025 l 667 975 q 665 974 666 974 l 502 974 q 499 975 500 974 m 602 35 l 561 83 q 560 85 560 83 l 615 475 q 616 478 615 477 l 659 507 q 661 508 660 508 l 684 508 q 686 507 686 508 q 687 504 688 505 l 623 50 q 622 47 623 49 l 608 35 q 602 35 605 33 m 149 994 l 164 1006 q 170 1006 167 1009 l 210 959 q 212 956 212 958 l 158 575 q 157 572 157 572 l 113 534 q 110 533 111 533 l 88 533 q 85 534 87 533 q 84 538 84 537 l 148 991 q 149 994 149 994 z "},"7":{"ha":772,"x_min":185,"x_max":725,"o":"m 397 975 q 395 974 396 974 l 232 974 q 229 975 231 974 l 189 1023 q 189 1028 185 1025 l 203 1040 q 205 1042 205 1042 l 442 1042 q 445 1040 444 1042 q 446 1037 446 1038 l 443 1015 q 441 1013 443 1015 l 397 975 m 290 85 l 344 467 q 344 468 344 467 q 345 469 345 469 l 382 500 q 387 500 385 503 l 412 472 q 412 469 412 469 l 359 88 q 358 85 359 86 l 321 54 q 316 54 319 52 l 292 83 q 290 85 290 84 m 499 975 l 469 1010 q 468 1013 467 1012 l 471 1038 q 475 1042 471 1042 l 709 1042 q 712 1040 711 1042 l 723 1028 q 722 1023 725 1025 l 667 975 q 665 974 666 974 l 502 974 q 499 975 500 974 m 454 584 l 471 701 q 471 703 471 703 l 641 947 q 644 949 642 949 l 652 949 q 654 947 654 949 q 656 945 656 947 l 639 827 q 638 825 639 826 l 469 581 q 466 580 468 580 l 458 580 q 455 581 456 580 q 454 584 454 583 z "},"8":{"ha":772,"x_min":16,"x_max":755,"o":"m 62 0 q 59 1 60 0 l 49 13 q 50 18 46 16 l 104 66 q 107 68 106 68 l 270 68 q 273 66 271 68 l 303 31 q 304 28 304 31 l 300 3 q 296 0 300 0 l 62 0 m 326 5 l 329 26 q 330 28 329 27 l 374 66 q 377 68 376 68 l 539 68 q 543 66 541 68 l 583 19 q 583 14 586 16 l 568 1 q 566 0 568 0 l 330 0 q 327 1 328 0 q 326 5 325 3 m 397 975 q 395 974 396 974 l 232 974 q 229 975 231 974 l 189 1023 q 189 1028 185 1025 l 203 1040 q 205 1042 205 1042 l 442 1042 q 445 1040 444 1042 q 446 1037 446 1038 l 443 1015 q 441 1013 443 1015 l 397 975 m 326 487 l 163 487 q 161 488 162 487 l 136 517 q 137 522 133 519 l 173 553 q 176 555 174 555 l 338 555 q 341 553 340 555 l 366 525 q 366 519 368 522 l 329 488 q 326 487 328 487 m 431 488 l 406 517 q 406 522 404 519 l 443 553 q 446 555 444 555 l 608 555 q 611 553 608 555 l 635 525 q 635 519 637 521 l 599 488 q 596 487 598 487 l 433 487 q 431 488 432 487 m 83 508 l 109 508 q 111 507 111 508 l 142 472 q 143 469 143 469 l 90 88 q 88 85 88 85 l 33 37 q 27 38 30 35 l 17 50 q 16 53 16 51 l 80 505 q 83 508 80 508 m 499 975 l 469 1010 q 468 1013 467 1012 l 471 1038 q 475 1042 471 1042 l 709 1042 q 712 1040 711 1042 l 723 1028 q 722 1023 725 1025 l 667 975 q 665 974 666 974 l 502 974 q 499 975 500 974 m 629 572 l 682 954 q 684 956 682 955 l 739 1004 q 744 1004 741 1006 l 754 991 q 755 989 755 990 l 692 536 q 688 533 692 533 l 663 533 q 660 534 661 533 l 629 570 q 629 572 629 570 m 602 35 l 561 83 q 560 85 560 83 l 615 475 q 616 478 615 477 l 659 507 q 661 508 660 508 l 684 508 q 686 507 686 508 q 687 504 688 505 l 623 50 q 622 47 623 49 l 608 35 q 602 35 605 33 m 149 994 l 164 1006 q 170 1006 167 1009 l 210 959 q 212 956 212 958 l 158 575 q 157 572 157 572 l 113 534 q 110 533 111 533 l 88 533 q 85 534 87 533 q 84 538 84 537 l 148 991 q 149 994 149 994 z "},"9":{"ha":772,"x_min":46,"x_max":755,"o":"m 62 0 q 59 1 60 0 l 49 13 q 50 18 46 16 l 104 66 q 107 68 106 68 l 270 68 q 273 66 271 68 l 303 31 q 304 28 304 31 l 300 3 q 296 0 300 0 l 62 0 m 326 5 l 329 26 q 330 28 329 27 l 374 66 q 377 68 376 68 l 539 68 q 543 66 541 68 l 583 19 q 583 14 586 16 l 568 1 q 566 0 568 0 l 330 0 q 327 1 328 0 q 326 5 325 3 m 397 975 q 395 974 396 974 l 232 974 q 229 975 231 974 l 189 1023 q 189 1028 185 1025 l 203 1040 q 205 1042 205 1042 l 442 1042 q 445 1040 444 1042 q 446 1037 446 1038 l 443 1015 q 441 1013 443 1015 l 397 975 m 326 487 l 163 487 q 161 488 162 487 l 136 517 q 137 522 133 519 l 173 553 q 176 555 174 555 l 338 555 q 341 553 340 555 l 366 525 q 366 519 368 522 l 329 488 q 326 487 328 487 m 431 488 l 406 517 q 406 522 404 519 l 443 553 q 446 555 444 555 l 608 555 q 611 553 608 555 l 635 525 q 635 519 637 521 l 599 488 q 596 487 598 487 l 433 487 q 431 488 432 487 m 499 975 l 469 1010 q 468 1013 467 1012 l 471 1038 q 475 1042 471 1042 l 709 1042 q 712 1040 711 1042 l 723 1028 q 722 1023 725 1025 l 667 975 q 665 974 666 974 l 502 974 q 499 975 500 974 m 629 572 l 682 954 q 684 956 682 955 l 739 1004 q 744 1004 741 1006 l 754 991 q 755 989 755 990 l 692 536 q 688 533 692 533 l 663 533 q 660 534 661 533 l 629 570 q 629 572 629 570 m 602 35 l 561 83 q 560 85 560 83 l 615 475 q 616 478 615 477 l 659 507 q 661 508 660 508 l 684 508 q 686 507 686 508 q 687 504 688 505 l 623 50 q 622 47 623 49 l 608 35 q 602 35 605 33 m 149 994 l 164 1006 q 170 1006 167 1009 l 210 959 q 212 956 212 958 l 158 575 q 157 572 157 572 l 113 534 q 110 533 111 533 l 88 533 q 85 534 87 533 q 84 538 84 537 l 148 991 q 149 994 149 994 z "}," ":{"ha":772,"x_min":0,"x_max":0,"o":""},"\"":{"ha":772,"x_min":84,"x_max":755,"o":"m 629 572 l 682 954 q 684 956 682 955 l 739 1004 q 744 1004 741 1006 l 754 991 q 755 989 755 990 l 692 536 q 688 533 692 533 l 663 533 q 660 534 661 533 l 629 570 q 629 572 629 570 m 149 994 l 164 1006 q 170 1006 167 1009 l 210 959 q 212 956 212 958 l 158 575 q 157 572 157 572 l 113 534 q 110 533 111 533 l 88 533 q 85 534 87 533 q 84 538 84 537 l 148 991 q 149 994 149 994 z "},"#":{"ha":772,"x_min":46,"x_max":755,"o":"m 62 0 q 59 1 60 0 l 49 13 q 50 18 46 16 l 104 66 q 107 68 106 68 l 270 68 q 273 66 271 68 l 303 31 q 304 28 304 31 l 300 3 q 296 0 300 0 l 62 0 m 326 5 l 329 26 q 330 28 329 27 l 374 66 q 377 68 376 68 l 539 68 q 543 66 541 68 l 583 19 q 583 14 586 16 l 568 1 q 566 0 568 0 l 330 0 q 327 1 328 0 q 326 5 325 3 m 412 954 q 414 956 414 956 l 450 987 q 456 987 453 990 l 480 959 q 481 956 481 958 l 427 575 q 427 572 427 573 l 390 541 q 385 541 387 538 l 360 570 q 359 572 359 571 l 412 954 m 326 487 l 163 487 q 161 488 162 487 l 136 517 q 137 522 133 519 l 173 553 q 176 555 174 555 l 338 555 q 341 553 340 555 l 366 525 q 366 519 368 522 l 329 488 q 326 487 328 487 m 431 488 l 406 517 q 406 522 404 519 l 443 553 q 446 555 444 555 l 608 555 q 611 553 608 555 l 635 525 q 635 519 637 521 l 599 488 q 596 487 598 487 l 433 487 q 431 488 432 487 m 290 85 l 344 467 q 344 468 344 467 q 345 469 345 469 l 382 500 q 387 500 385 503 l 412 472 q 412 469 412 469 l 359 88 q 358 85 359 86 l 321 54 q 316 54 319 52 l 292 83 q 290 85 290 84 m 629 572 l 682 954 q 684 956 682 955 l 739 1004 q 744 1004 741 1006 l 754 991 q 755 989 755 990 l 692 536 q 688 533 692 533 l 663 533 q 660 534 661 533 l 629 570 q 629 572 629 570 m 602 35 l 561 83 q 560 85 560 83 l 615 475 q 616 478 615 477 l 659 507 q 661 508 660 508 l 684 508 q 686 507 686 508 q 687 504 688 505 l 623 50 q 622 47 623 49 l 608 35 q 602 35 605 33 z "},"$":{"ha":772,"x_min":46,"x_max":725,"o":"m 62 0 q 59 1 60 0 l 49 13 q 50 18 46 16 l 104 66 q 107 68 106 68 l 270 68 q 273 66 271 68 l 303 31 q 304 28 304 31 l 300 3 q 296 0 300 0 l 62 0 m 326 5 l 329 26 q 330 28 329 27 l 374 66 q 377 68 376 68 l 539 68 q 543 66 541 68 l 583 19 q 583 14 586 16 l 568 1 q 566 0 568 0 l 330 0 q 327 1 328 0 q 326 5 325 3 m 397 975 q 395 974 396 974 l 232 974 q 229 975 231 974 l 189 1023 q 189 1028 185 1025 l 203 1040 q 205 1042 205 1042 l 442 1042 q 445 1040 444 1042 q 446 1037 446 1038 l 443 1015 q 441 1013 443 1015 l 397 975 m 412 954 q 414 956 414 956 l 450 987 q 456 987 453 990 l 480 959 q 481 956 481 958 l 427 575 q 427 572 427 573 l 390 541 q 385 541 387 538 l 360 570 q 359 572 359 571 l 412 954 m 326 487 l 163 487 q 161 488 162 487 l 136 517 q 137 522 133 519 l 173 553 q 176 555 174 555 l 338 555 q 341 553 340 555 l 366 525 q 366 519 368 522 l 329 488 q 326 487 328 487 m 431 488 l 406 517 q 406 522 404 519 l 443 553 q 446 555 444 555 l 608 555 q 611 553 608 555 l 635 525 q 635 519 637 521 l 599 488 q 596 487 598 487 l 433 487 q 431 488 432 487 m 290 85 l 344 467 q 344 468 344 467 q 345 469 345 469 l 382 500 q 387 500 385 503 l 412 472 q 412 469 412 469 l 359 88 q 358 85 359 86 l 321 54 q 316 54 319 52 l 292 83 q 290 85 290 84 m 499 975 l 469 1010 q 468 1013 467 1012 l 471 1038 q 475 1042 471 1042 l 709 1042 q 712 1040 711 1042 l 723 1028 q 722 1023 725 1025 l 667 975 q 665 974 666 974 l 502 974 q 499 975 500 974 m 602 35 l 561 83 q 560 85 560 83 l 615 475 q 616 478 615 477 l 659 507 q 661 508 660 508 l 684 508 q 686 507 686 508 q 687 504 688 505 l 623 50 q 622 47 623 49 l 608 35 q 602 35 605 33 m 149 994 l 164 1006 q 170 1006 167 1009 l 210 959 q 212 956 212 958 l 158 575 q 157 572 157 572 l 113 534 q 110 533 111 533 l 88 533 q 85 534 87 533 q 84 538 84 537 l 148 991 q 149 994 149 994 z "},"%":{"ha":772,"x_min":84,"x_max":688,"o":"m 326 5 l 329 26 q 330 28 329 27 l 374 66 q 377 68 376 68 l 539 68 q 543 66 541 68 l 583 19 q 583 14 586 16 l 568 1 q 566 0 568 0 l 330 0 q 327 1 328 0 q 326 5 325 3 m 397 975 q 395 974 396 974 l 232 974 q 229 975 231 974 l 189 1023 q 189 1028 185 1025 l 203 1040 q 205 1042 205 1042 l 442 1042 q 445 1040 444 1042 q 446 1037 446 1038 l 443 1015 q 441 1013 443 1015 l 397 975 m 412 954 q 414 956 414 956 l 450 987 q 456 987 453 990 l 480 959 q 481 956 481 958 l 427 575 q 427 572 427 573 l 390 541 q 385 541 387 538 l 360 570 q 359 572 359 571 l 412 954 m 326 487 l 163 487 q 161 488 162 487 l 136 517 q 137 522 133 519 l 173 553 q 176 555 174 555 l 338 555 q 341 553 340 555 l 366 525 q 366 519 368 522 l 329 488 q 326 487 328 487 m 431 488 l 406 517 q 406 522 404 519 l 443 553 q 446 555 444 555 l 608 555 q 611 553 608 555 l 635 525 q 635 519 637 521 l 599 488 q 596 487 598 487 l 433 487 q 431 488 432 487 m 290 85 l 344 467 q 344 468 344 467 q 345 469 345 469 l 382 500 q 387 500 385 503 l 412 472 q 412 469 412 469 l 359 88 q 358 85 359 86 l 321 54 q 316 54 319 52 l 292 83 q 290 85 290 84 m 602 35 l 561 83 q 560 85 560 83 l 615 475 q 616 478 615 477 l 659 507 q 661 508 660 508 l 684 508 q 686 507 686 508 q 687 504 688 505 l 623 50 q 622 47 623 49 l 608 35 q 602 35 605 33 m 149 994 l 164 1006 q 170 1006 167 1009 l 210 959 q 212 956 212 958 l 158 575 q 157 572 157 572 l 113 534 q 110 533 111 533 l 88 533 q 85 534 87 533 q 84 538 84 537 l 148 991 q 149 994 149 994 m 116 97 l 132 214 q 133 215 132 214 q 133 216 133 216 l 302 460 q 306 462 304 462 l 314 462 q 317 460 316 462 q 317 458 317 460 l 301 340 q 301 339 301 340 q 300 338 300 338 l 131 94 q 127 93 130 93 l 120 93 q 117 94 117 93 q 116 97 116 95 m 454 584 l 471 701 q 471 703 471 703 l 641 947 q 644 949 642 949 l 652 949 q 654 947 654 949 q 656 945 656 947 l 639 827 q 638 825 639 826 l 469 581 q 466 580 468 580 l 458 580 q 455 581 456 580 q 454 584 454 583 z "},"&":{"ha":772,"x_min":16,"x_max":637,"o":"m 62 0 q 59 1 60 0 l 49 13 q 50 18 46 16 l 104 66 q 107 68 106 68 l 270 68 q 273 66 271 68 l 303 31 q 304 28 304 31 l 300 3 q 296 0 300 0 l 62 0 m 397 975 q 395 974 396 974 l 232 974 q 229 975 231 974 l 189 1023 q 189 1028 185 1025 l 203 1040 q 205 1042 205 1042 l 442 1042 q 445 1040 444 1042 q 446 1037 446 1038 l 443 1015 q 441 1013 443 1015 l 397 975 m 412 954 q 414 956 414 956 l 450 987 q 456 987 453 990 l 480 959 q 481 956 481 958 l 427 575 q 427 572 427 573 l 390 541 q 385 541 387 538 l 360 570 q 359 572 359 571 l 412 954 m 326 487 l 163 487 q 161 488 162 487 l 136 517 q 137 522 133 519 l 173 553 q 176 555 174 555 l 338 555 q 341 553 340 555 l 366 525 q 366 519 368 522 l 329 488 q 326 487 328 487 m 431 488 l 406 517 q 406 522 404 519 l 443 553 q 446 555 444 555 l 608 555 q 611 553 608 555 l 635 525 q 635 519 637 521 l 599 488 q 596 487 598 487 l 433 487 q 431 488 432 487 m 83 508 l 109 508 q 111 507 111 508 l 142 472 q 143 469 143 469 l 90 88 q 88 85 88 85 l 33 37 q 27 38 30 35 l 17 50 q 16 53 16 51 l 80 505 q 83 508 80 508 m 290 85 l 344 467 q 344 468 344 467 q 345 469 345 469 l 382 500 q 387 500 385 503 l 412 472 q 412 469 412 469 l 359 88 q 358 85 359 86 l 321 54 q 316 54 319 52 l 292 83 q 290 85 290 84 m 525 95 l 421 347 q 421 347 421 347 q 421 349 421 348 l 437 458 q 440 462 437 462 l 444 462 q 448 460 446 462 l 551 208 q 552 206 552 208 l 536 96 q 532 93 536 93 l 529 93 q 525 95 526 93 m 324 582 l 220 833 q 220 834 220 833 q 220 836 220 835 l 235 945 q 239 949 235 949 l 243 949 q 246 947 245 949 l 351 695 q 351 694 351 694 q 351 693 351 693 l 335 583 q 332 580 335 580 l 328 580 q 324 582 325 580 z "},"'":{"ha":772,"x_min":359,"x_max":481,"o":"m 412 954 q 414 956 414 956 l 450 987 q 456 987 453 990 l 480 959 q 481 956 481 958 l 427 575 q 427 572 427 573 l 390 541 q 385 541 387 538 l 360 570 q 359 572 359 571 l 412 954 z "},"(":{"ha":772,"x_min":421,"x_max":656,"o":"m 525 95 l 421 347 q 421 347 421 347 q 421 349 421 348 l 437 458 q 440 462 437 462 l 444 462 q 448 460 446 462 l 551 208 q 552 206 552 208 l 536 96 q 532 93 536 93 l 529 93 q 525 95 526 93 m 454 584 l 471 701 q 471 703 471 703 l 641 947 q 644 949 642 949 l 652 949 q 654 947 654 949 q 656 945 656 947 l 639 827 q 638 825 639 826 l 469 581 q 466 580 468 580 l 458 580 q 455 581 456 580 q 454 584 454 583 z "},")":{"ha":772,"x_min":116,"x_max":351,"o":"m 116 97 l 132 214 q 133 215 132 214 q 133 216 133 216 l 302 460 q 306 462 304 462 l 314 462 q 317 460 316 462 q 317 458 317 460 l 301 340 q 301 339 301 340 q 300 338 300 338 l 131 94 q 127 93 130 93 l 120 93 q 117 94 117 93 q 116 97 116 95 m 324 582 l 220 833 q 220 834 220 833 q 220 836 220 835 l 235 945 q 239 949 235 949 l 243 949 q 246 947 245 949 l 351 695 q 351 694 351 694 q 351 693 351 693 l 335 583 q 332 580 335 580 l 328 580 q 324 582 325 580 z "},"*":{"ha":772,"x_min":116,"x_max":656,"o":"m 412 954 q 414 956 414 956 l 450 987 q 456 987 453 990 l 480 959 q 481 956 481 958 l 427 575 q 427 572 427 573 l 390 541 q 385 541 387 538 l 360 570 q 359 572 359 571 l 412 954 m 326 487 l 163 487 q 161 488 162 487 l 136 517 q 137 522 133 519 l 173 553 q 176 555 174 555 l 338 555 q 341 553 340 555 l 366 525 q 366 519 368 522 l 329 488 q 326 487 328 487 m 431 488 l 406 517 q 406 522 404 519 l 443 553 q 446 555 444 555 l 608 555 q 611 553 608 555 l 635 525 q 635 519 637 521 l 599 488 q 596 487 598 487 l 433 487 q 431 488 432 487 m 290 85 l 344 467 q 344 468 344 467 q 345 469 345 469 l 382 500 q 387 500 385 503 l 412 472 q 412 469 412 469 l 359 88 q 358 85 359 86 l 321 54 q 316 54 319 52 l 292 83 q 290 85 290 84 m 116 97 l 132 214 q 133 215 132 214 q 133 216 133 216 l 302 460 q 306 462 304 462 l 314 462 q 317 460 316 462 q 317 458 317 460 l 301 340 q 301 339 301 340 q 300 338 300 338 l 131 94 q 127 93 130 93 l 120 93 q 117 94 117 93 q 116 97 116 95 m 525 95 l 421 347 q 421 347 421 347 q 421 349 421 348 l 437 458 q 440 462 437 462 l 444 462 q 448 460 446 462 l 551 208 q 552 206 552 208 l 536 96 q 532 93 536 93 l 529 93 q 525 95 526 93 m 324 582 l 220 833 q 220 834 220 833 q 220 836 220 835 l 235 945 q 239 949 235 949 l 243 949 q 246 947 245 949 l 351 695 q 351 694 351 694 q 351 693 351 693 l 335 583 q 332 580 335 580 l 328 580 q 324 582 325 580 m 454 584 l 471 701 q 471 703 471 703 l 641 947 q 644 949 642 949 l 652 949 q 654 947 654 949 q 656 945 656 947 l 639 827 q 638 825 639 826 l 469 581 q 466 580 468 580 l 458 580 q 455 581 456 580 q 454 584 454 583 z "},"+":{"ha":772,"x_min":133,"x_max":637,"o":"m 412 954 q 414 956 414 956 l 450 987 q 456 987 453 990 l 480 959 q 481 956 481 958 l 427 575 q 427 572 427 573 l 390 541 q 385 541 387 538 l 360 570 q 359 572 359 571 l 412 954 m 326 487 l 163 487 q 161 488 162 487 l 136 517 q 137 522 133 519 l 173 553 q 176 555 174 555 l 338 555 q 341 553 340 555 l 366 525 q 366 519 368 522 l 329 488 q 326 487 328 487 m 431 488 l 406 517 q 406 522 404 519 l 443 553 q 446 555 444 555 l 608 555 q 611 553 608 555 l 635 525 q 635 519 637 521 l 599 488 q 596 487 598 487 l 433 487 q 431 488 432 487 m 290 85 l 344 467 q 344 468 344 467 q 345 469 345 469 l 382 500 q 387 500 385 503 l 412 472 q 412 469 412 469 l 359 88 q 358 85 359 86 l 321 54 q 316 54 319 52 l 292 83 q 290 85 290 84 z "},",":{"ha":772,"x_min":116,"x_max":368,"o":"m 326 487 l 163 487 q 161 488 162 487 l 136 517 q 137 522 133 519 l 173 553 q 176 555 174 555 l 338 555 q 341 553 340 555 l 366 525 q 366 519 368 522 l 329 488 q 326 487 328 487 m 116 97 l 132 214 q 133 215 132 214 q 133 216 133 216 l 302 460 q 306 462 304 462 l 314 462 q 317 460 316 462 q 317 458 317 460 l 301 340 q 301 339 301 340 q 300 338 300 338 l 131 94 q 127 93 130 93 l 120 93 q 117 94 117 93 q 116 97 116 95 z "},"-":{"ha":772,"x_min":133,"x_max":637,"o":"m 326 487 l 163 487 q 161 488 162 487 l 136 517 q 137 522 133 519 l 173 553 q 176 555 174 555 l 338 555 q 341 553 340 555 l 366 525 q 366 519 368 522 l 329 488 q 326 487 328 487 m 431 488 l 406 517 q 406 522 404 519 l 443 553 q 446 555 444 555 l 608 555 q 611 553 608 555 l 635 525 q 635 519 637 521 l 599 488 q 596 487 598 487 l 433 487 q 431 488 432 487 z "},".":{"ha":0,"x_min":-85,"x_max":-18,"o":"m -52 184 q -28 174 -38 184 q -18 151 -18 164 q -28 127 -18 137 q -52 117 -38 117 q -75 127 -65 117 q -85 151 -85 137 q -75 174 -85 164 q -52 184 -65 184 z "},"/":{"ha":772,"x_min":116,"x_max":656,"o":"m 116 97 l 132 214 q 133 215 132 214 q 133 216 133 216 l 302 460 q 306 462 304 462 l 314 462 q 317 460 316 462 q 317 458 317 460 l 301 340 q 301 339 301 340 q 300 338 300 338 l 131 94 q 127 93 130 93 l 120 93 q 117 94 117 93 q 116 97 116 95 m 454 584 l 471 701 q 471 703 471 703 l 641 947 q 644 949 642 949 l 652 949 q 654 947 654 949 q 656 945 656 947 l 639 827 q 638 825 639 826 l 469 581 q 466 580 468 580 l 458 580 q 455 581 456 580 q 454 584 454 583 z "},":":{"ha":772,"x_min":133,"x_max":446,"o":"m 397 975 q 395 974 396 974 l 232 974 q 229 975 231 974 l 189 1023 q 189 1028 185 1025 l 203 1040 q 205 1042 205 1042 l 442 1042 q 445 1040 444 1042 q 446 1037 446 1038 l 443 1015 q 441 1013 443 1015 l 397 975 m 326 487 l 163 487 q 161 488 162 487 l 136 517 q 137 522 133 519 l 173 553 q 176 555 174 555 l 338 555 q 341 553 340 555 l 366 525 q 366 519 368 522 l 329 488 q 326 487 328 487 z "},";":{"ha":772,"x_min":116,"x_max":446,"o":"m 397 975 q 395 974 396 974 l 232 974 q 229 975 231 974 l 189 1023 q 189 1028 185 1025 l 203 1040 q 205 1042 205 1042 l 442 1042 q 445 1040 444 1042 q 446 1037 446 1038 l 443 1015 q 441 1013 443 1015 l 397 975 m 326 487 l 163 487 q 161 488 162 487 l 136 517 q 137 522 133 519 l 173 553 q 176 555 174 555 l 338 555 q 341 553 340 555 l 366 525 q 366 519 368 522 l 329 488 q 326 487 328 487 m 116 97 l 132 214 q 133 215 132 214 q 133 216 133 216 l 302 460 q 306 462 304 462 l 314 462 q 317 460 316 462 q 317 458 317 460 l 301 340 q 301 339 301 340 q 300 338 300 338 l 131 94 q 127 93 130 93 l 120 93 q 117 94 117 93 q 116 97 116 95 z "},"<":{"ha":772,"x_min":46,"x_max":656,"o":"m 62 0 q 59 1 60 0 l 49 13 q 50 18 46 16 l 104 66 q 107 68 106 68 l 270 68 q 273 66 271 68 l 303 31 q 304 28 304 31 l 300 3 q 296 0 300 0 l 62 0 m 326 5 l 329 26 q 330 28 329 27 l 374 66 q 377 68 376 68 l 539 68 q 543 66 541 68 l 583 19 q 583 14 586 16 l 568 1 q 566 0 568 0 l 330 0 q 327 1 328 0 q 326 5 325 3 m 116 97 l 132 214 q 133 215 132 214 q 133 216 133 216 l 302 460 q 306 462 304 462 l 314 462 q 317 460 316 462 q 317 458 317 460 l 301 340 q 301 339 301 340 q 300 338 300 338 l 131 94 q 127 93 130 93 l 120 93 q 117 94 117 93 q 116 97 116 95 m 454 584 l 471 701 q 471 703 471 703 l 641 947 q 644 949 642 949 l 652 949 q 654 947 654 949 q 656 945 656 947 l 639 827 q 638 825 639 826 l 469 581 q 466 580 468 580 l 458 580 q 455 581 456 580 q 454 584 454 583 z "},"=":{"ha":772,"x_min":46,"x_max":637,"o":"m 62 0 q 59 1 60 0 l 49 13 q 50 18 46 16 l 104 66 q 107 68 106 68 l 270 68 q 273 66 271 68 l 303 31 q 304 28 304 31 l 300 3 q 296 0 300 0 l 62 0 m 326 5 l 329 26 q 330 28 329 27 l 374 66 q 377 68 376 68 l 539 68 q 543 66 541 68 l 583 19 q 583 14 586 16 l 568 1 q 566 0 568 0 l 330 0 q 327 1 328 0 q 326 5 325 3 m 326 487 l 163 487 q 161 488 162 487 l 136 517 q 137 522 133 519 l 173 553 q 176 555 174 555 l 338 555 q 341 553 340 555 l 366 525 q 366 519 368 522 l 329 488 q 326 487 328 487 m 431 488 l 406 517 q 406 522 404 519 l 443 553 q 446 555 444 555 l 608 555 q 611 553 608 555 l 635 525 q 635 519 637 521 l 599 488 q 596 487 598 487 l 433 487 q 431 488 432 487 z "},">":{"ha":772,"x_min":46,"x_max":586,"o":"m 62 0 q 59 1 60 0 l 49 13 q 50 18 46 16 l 104 66 q 107 68 106 68 l 270 68 q 273 66 271 68 l 303 31 q 304 28 304 31 l 300 3 q 296 0 300 0 l 62 0 m 326 5 l 329 26 q 330 28 329 27 l 374 66 q 377 68 376 68 l 539 68 q 543 66 541 68 l 583 19 q 583 14 586 16 l 568 1 q 566 0 568 0 l 330 0 q 327 1 328 0 q 326 5 325 3 m 525 95 l 421 347 q 421 347 421 347 q 421 349 421 348 l 437 458 q 440 462 437 462 l 444 462 q 448 460 446 462 l 551 208 q 552 206 552 208 l 536 96 q 532 93 536 93 l 529 93 q 525 95 526 93 m 324 582 l 220 833 q 220 834 220 833 q 220 836 220 835 l 235 945 q 239 949 235 949 l 243 949 q 246 947 245 949 l 351 695 q 351 694 351 694 q 351 693 351 693 l 335 583 q 332 580 335 580 l 328 580 q 324 582 325 580 z "},"?":{"ha":772,"x_min":185,"x_max":755,"o":"m 397 975 q 395 974 396 974 l 232 974 q 229 975 231 974 l 189 1023 q 189 1028 185 1025 l 203 1040 q 205 1042 205 1042 l 442 1042 q 445 1040 444 1042 q 446 1037 446 1038 l 443 1015 q 441 1013 443 1015 l 397 975 m 431 488 l 406 517 q 406 522 404 519 l 443 553 q 446 555 444 555 l 608 555 q 611 553 608 555 l 635 525 q 635 519 637 521 l 599 488 q 596 487 598 487 l 433 487 q 431 488 432 487 m 290 85 l 344 467 q 344 468 344 467 q 345 469 345 469 l 382 500 q 387 500 385 503 l 412 472 q 412 469 412 469 l 359 88 q 358 85 359 86 l 321 54 q 316 54 319 52 l 292 83 q 290 85 290 84 m 499 975 l 469 1010 q 468 1013 467 1012 l 471 1038 q 475 1042 471 1042 l 709 1042 q 712 1040 711 1042 l 723 1028 q 722 1023 725 1025 l 667 975 q 665 974 666 974 l 502 974 q 499 975 500 974 m 629 572 l 682 954 q 684 956 682 955 l 739 1004 q 744 1004 741 1006 l 754 991 q 755 989 755 990 l 692 536 q 688 533 692 533 l 663 533 q 660 534 661 533 l 629 570 q 629 572 629 570 z "},"@":{"ha":772,"x_min":16,"x_max":755,"o":"m 62 0 q 59 1 60 0 l 49 13 q 50 18 46 16 l 104 66 q 107 68 106 68 l 270 68 q 273 66 271 68 l 303 31 q 304 28 304 31 l 300 3 q 296 0 300 0 l 62 0 m 326 5 l 329 26 q 330 28 329 27 l 374 66 q 377 68 376 68 l 539 68 q 543 66 541 68 l 583 19 q 583 14 586 16 l 568 1 q 566 0 568 0 l 330 0 q 327 1 328 0 q 326 5 325 3 m 397 975 q 395 974 396 974 l 232 974 q 229 975 231 974 l 189 1023 q 189 1028 185 1025 l 203 1040 q 205 1042 205 1042 l 442 1042 q 445 1040 444 1042 q 446 1037 446 1038 l 443 1015 q 441 1013 443 1015 l 397 975 m 326 487 l 163 487 q 161 488 162 487 l 136 517 q 137 522 133 519 l 173 553 q 176 555 174 555 l 338 555 q 341 553 340 555 l 366 525 q 366 519 368 522 l 329 488 q 326 487 328 487 m 83 508 l 109 508 q 111 507 111 508 l 142 472 q 143 469 143 469 l 90 88 q 88 85 88 85 l 33 37 q 27 38 30 35 l 17 50 q 16 53 16 51 l 80 505 q 83 508 80 508 m 290 85 l 344 467 q 344 468 344 467 q 345 469 345 469 l 382 500 q 387 500 385 503 l 412 472 q 412 469 412 469 l 359 88 q 358 85 359 86 l 321 54 q 316 54 319 52 l 292 83 q 290 85 290 84 m 499 975 l 469 1010 q 468 1013 467 1012 l 471 1038 q 475 1042 471 1042 l 709 1042 q 712 1040 711 1042 l 723 1028 q 722 1023 725 1025 l 667 975 q 665 974 666 974 l 502 974 q 499 975 500 974 m 629 572 l 682 954 q 684 956 682 955 l 739 1004 q 744 1004 741 1006 l 754 991 q 755 989 755 990 l 692 536 q 688 533 692 533 l 663 533 q 660 534 661 533 l 629 570 q 629 572 629 570 m 602 35 l 561 83 q 560 85 560 83 l 615 475 q 616 478 615 477 l 659 507 q 661 508 660 508 l 684 508 q 686 507 686 508 q 687 504 688 505 l 623 50 q 622 47 623 49 l 608 35 q 602 35 605 33 z "},"A":{"ha":772,"x_min":16,"x_max":755,"o":"m 397 975 q 395 974 396 974 l 232 974 q 229 975 231 974 l 189 1023 q 189 1028 185 1025 l 203 1040 q 205 1042 205 1042 l 442 1042 q 445 1040 444 1042 q 446 1037 446 1038 l 443 1015 q 441 1013 443 1015 l 397 975 m 326 487 l 163 487 q 161 488 162 487 l 136 517 q 137 522 133 519 l 173 553 q 176 555 174 555 l 338 555 q 341 553 340 555 l 366 525 q 366 519 368 522 l 329 488 q 326 487 328 487 m 431 488 l 406 517 q 406 522 404 519 l 443 553 q 446 555 444 555 l 608 555 q 611 553 608 555 l 635 525 q 635 519 637 521 l 599 488 q 596 487 598 487 l 433 487 q 431 488 432 487 m 83 508 l 109 508 q 111 507 111 508 l 142 472 q 143 469 143 469 l 90 88 q 88 85 88 85 l 33 37 q 27 38 30 35 l 17 50 q 16 53 16 51 l 80 505 q 83 508 80 508 m 499 975 l 469 1010 q 468 1013 467 1012 l 471 1038 q 475 1042 471 1042 l 709 1042 q 712 1040 711 1042 l 723 1028 q 722 1023 725 1025 l 667 975 q 665 974 666 974 l 502 974 q 499 975 500 974 m 629 572 l 682 954 q 684 956 682 955 l 739 1004 q 744 1004 741 1006 l 754 991 q 755 989 755 990 l 692 536 q 688 533 692 533 l 663 533 q 660 534 661 533 l 629 570 q 629 572 629 570 m 602 35 l 561 83 q 560 85 560 83 l 615 475 q 616 478 615 477 l 659 507 q 661 508 660 508 l 684 508 q 686 507 686 508 q 687 504 688 505 l 623 50 q 622 47 623 49 l 608 35 q 602 35 605 33 m 149 994 l 164 1006 q 170 1006 167 1009 l 210 959 q 212 956 212 958 l 158 575 q 157 572 157 572 l 113 534 q 110 533 111 533 l 88 533 q 85 534 87 533 q 84 538 84 537 l 148 991 q 149 994 149 994 z "},"B":{"ha":772,"x_min":46,"x_max":755,"o":"m 62 0 q 59 1 60 0 l 49 13 q 50 18 46 16 l 104 66 q 107 68 106 68 l 270 68 q 273 66 271 68 l 303 31 q 304 28 304 31 l 300 3 q 296 0 300 0 l 62 0 m 326 5 l 329 26 q 330 28 329 27 l 374 66 q 377 68 376 68 l 539 68 q 543 66 541 68 l 583 19 q 583 14 586 16 l 568 1 q 566 0 568 0 l 330 0 q 327 1 328 0 q 326 5 325 3 m 397 975 q 395 974 396 974 l 232 974 q 229 975 231 974 l 189 1023 q 189 1028 185 1025 l 203 1040 q 205 1042 205 1042 l 442 1042 q 445 1040 444 1042 q 446 1037 446 1038 l 443 1015 q 441 1013 443 1015 l 397 975 m 412 954 q 414 956 414 956 l 450 987 q 456 987 453 990 l 480 959 q 481 956 481 958 l 427 575 q 427 572 427 573 l 390 541 q 385 541 387 538 l 360 570 q 359 572 359 571 l 412 954 m 431 488 l 406 517 q 406 522 404 519 l 443 553 q 446 555 444 555 l 608 555 q 611 553 608 555 l 635 525 q 635 519 637 521 l 599 488 q 596 487 598 487 l 433 487 q 431 488 432 487 m 290 85 l 344 467 q 344 468 344 467 q 345 469 345 469 l 382 500 q 387 500 385 503 l 412 472 q 412 469 412 469 l 359 88 q 358 85 359 86 l 321 54 q 316 54 319 52 l 292 83 q 290 85 290 84 m 499 975 l 469 1010 q 468 1013 467 1012 l 471 1038 q 475 1042 471 1042 l 709 1042 q 712 1040 711 1042 l 723 1028 q 722 1023 725 1025 l 667 975 q 665 974 666 974 l 502 974 q 499 975 500 974 m 629 572 l 682 954 q 684 956 682 955 l 739 1004 q 744 1004 741 1006 l 754 991 q 755 989 755 990 l 692 536 q 688 533 692 533 l 663 533 q 660 534 661 533 l 629 570 q 629 572 629 570 m 602 35 l 561 83 q 560 85 560 83 l 615 475 q 616 478 615 477 l 659 507 q 661 508 660 508 l 684 508 q 686 507 686 508 q 687 504 688 505 l 623 50 q 622 47 623 49 l 608 35 q 602 35 605 33 z "},"C":{"ha":772,"x_min":16,"x_max":725,"o":"m 62 0 q 59 1 60 0 l 49 13 q 50 18 46 16 l 104 66 q 107 68 106 68 l 270 68 q 273 66 271 68 l 303 31 q 304 28 304 31 l 300 3 q 296 0 300 0 l 62 0 m 326 5 l 329 26 q 330 28 329 27 l 374 66 q 377 68 376 68 l 539 68 q 543 66 541 68 l 583 19 q 583 14 586 16 l 568 1 q 566 0 568 0 l 330 0 q 327 1 328 0 q 326 5 325 3 m 397 975 q 395 974 396 974 l 232 974 q 229 975 231 974 l 189 1023 q 189 1028 185 1025 l 203 1040 q 205 1042 205 1042 l 442 1042 q 445 1040 444 1042 q 446 1037 446 1038 l 443 1015 q 441 1013 443 1015 l 397 975 m 83 508 l 109 508 q 111 507 111 508 l 142 472 q 143 469 143 469 l 90 88 q 88 85 88 85 l 33 37 q 27 38 30 35 l 17 50 q 16 53 16 51 l 80 505 q 83 508 80 508 m 499 975 l 469 1010 q 468 1013 467 1012 l 471 1038 q 475 1042 471 1042 l 709 1042 q 712 1040 711 1042 l 723 1028 q 722 1023 725 1025 l 667 975 q 665 974 666 974 l 502 974 q 499 975 500 974 m 149 994 l 164 1006 q 170 1006 167 1009 l 210 959 q 212 956 212 958 l 158 575 q 157 572 157 572 l 113 534 q 110 533 111 533 l 88 533 q 85 534 87 533 q 84 538 84 537 l 148 991 q 149 994 149 994 z "},"D":{"ha":772,"x_min":46,"x_max":755,"o":"m 62 0 q 59 1 60 0 l 49 13 q 50 18 46 16 l 104 66 q 107 68 106 68 l 270 68 q 273 66 271 68 l 303 31 q 304 28 304 31 l 300 3 q 296 0 300 0 l 62 0 m 326 5 l 329 26 q 330 28 329 27 l 374 66 q 377 68 376 68 l 539 68 q 543 66 541 68 l 583 19 q 583 14 586 16 l 568 1 q 566 0 568 0 l 330 0 q 327 1 328 0 q 326 5 325 3 m 397 975 q 395 974 396 974 l 232 974 q 229 975 231 974 l 189 1023 q 189 1028 185 1025 l 203 1040 q 205 1042 205 1042 l 442 1042 q 445 1040 444 1042 q 446 1037 446 1038 l 443 1015 q 441 1013 443 1015 l 397 975 m 412 954 q 414 956 414 956 l 450 987 q 456 987 453 990 l 480 959 q 481 956 481 958 l 427 575 q 427 572 427 573 l 390 541 q 385 541 387 538 l 360 570 q 359 572 359 571 l 412 954 m 290 85 l 344 467 q 344 468 344 467 q 345 469 345 469 l 382 500 q 387 500 385 503 l 412 472 q 412 469 412 469 l 359 88 q 358 85 359 86 l 321 54 q 316 54 319 52 l 292 83 q 290 85 290 84 m 499 975 l 469 1010 q 468 1013 467 1012 l 471 1038 q 475 1042 471 1042 l 709 1042 q 712 1040 711 1042 l 723 1028 q 722 1023 725 1025 l 667 975 q 665 974 666 974 l 502 974 q 499 975 500 974 m 629 572 l 682 954 q 684 956 682 955 l 739 1004 q 744 1004 741 1006 l 754 991 q 755 989 755 990 l 692 536 q 688 533 692 533 l 663 533 q 660 534 661 533 l 629 570 q 629 572 629 570 m 602 35 l 561 83 q 560 85 560 83 l 615 475 q 616 478 615 477 l 659 507 q 661 508 660 508 l 684 508 q 686 507 686 508 q 687 504 688 505 l 623 50 q 622 47 623 49 l 608 35 q 602 35 605 33 z "},"G":{"ha":772,"x_min":16,"x_max":725,"o":"m 62 0 q 59 1 60 0 l 49 13 q 50 18 46 16 l 104 66 q 107 68 106 68 l 270 68 q 273 66 271 68 l 303 31 q 304 28 304 31 l 300 3 q 296 0 300 0 l 62 0 m 326 5 l 329 26 q 330 28 329 27 l 374 66 q 377 68 376 68 l 539 68 q 543 66 541 68 l 583 19 q 583 14 586 16 l 568 1 q 566 0 568 0 l 330 0 q 327 1 328 0 q 326 5 325 3 m 397 975 q 395 974 396 974 l 232 974 q 229 975 231 974 l 189 1023 q 189 1028 185 1025 l 203 1040 q 205 1042 205 1042 l 442 1042 q 445 1040 444 1042 q 446 1037 446 1038 l 443 1015 q 441 1013 443 1015 l 397 975 m 431 488 l 406 517 q 406 522 404 519 l 443 553 q 446 555 444 555 l 608 555 q 611 553 608 555 l 635 525 q 635 519 637 521 l 599 488 q 596 487 598 487 l 433 487 q 431 488 432 487 m 83 508 l 109 508 q 111 507 111 508 l 142 472 q 143 469 143 469 l 90 88 q 88 85 88 85 l 33 37 q 27 38 30 35 l 17 50 q 16 53 16 51 l 80 505 q 83 508 80 508 m 499 975 l 469 1010 q 468 1013 467 1012 l 471 1038 q 475 1042 471 1042 l 709 1042 q 712 1040 711 1042 l 723 1028 q 722 1023 725 1025 l 667 975 q 665 974 666 974 l 502 974 q 499 975 500 974 m 602 35 l 561 83 q 560 85 560 83 l 615 475 q 616 478 615 477 l 659 507 q 661 508 660 508 l 684 508 q 686 507 686 508 q 687 504 688 505 l 623 50 q 622 47 623 49 l 608 35 q 602 35 605 33 m 149 994 l 164 1006 q 170 1006 167 1009 l 210 959 q 212 956 212 958 l 158 575 q 157 572 157 572 l 113 534 q 110 533 111 533 l 88 533 q 85 534 87 533 q 84 538 84 537 l 148 991 q 149 994 149 994 z "},"H":{"ha":772,"x_min":16,"x_max":755,"o":"m 326 487 l 163 487 q 161 488 162 487 l 136 517 q 137 522 133 519 l 173 553 q 176 555 174 555 l 338 555 q 341 553 340 555 l 366 525 q 366 519 368 522 l 329 488 q 326 487 328 487 m 431 488 l 406 517 q 406 522 404 519 l 443 553 q 446 555 444 555 l 608 555 q 611 553 608 555 l 635 525 q 635 519 637 521 l 599 488 q 596 487 598 487 l 433 487 q 431 488 432 487 m 83 508 l 109 508 q 111 507 111 508 l 142 472 q 143 469 143 469 l 90 88 q 88 85 88 85 l 33 37 q 27 38 30 35 l 17 50 q 16 53 16 51 l 80 505 q 83 508 80 508 m 629 572 l 682 954 q 684 956 682 955 l 739 1004 q 744 1004 741 1006 l 754 991 q 755 989 755 990 l 692 536 q 688 533 692 533 l 663 533 q 660 534 661 533 l 629 570 q 629 572 629 570 m 602 35 l 561 83 q 560 85 560 83 l 615 475 q 616 478 615 477 l 659 507 q 661 508 660 508 l 684 508 q 686 507 686 508 q 687 504 688 505 l 623 50 q 622 47 623 49 l 608 35 q 602 35 605 33 m 149 994 l 164 1006 q 170 1006 167 1009 l 210 959 q 212 956 212 958 l 158 575 q 157 572 157 572 l 113 534 q 110 533 111 533 l 88 533 q 85 534 87 533 q 84 538 84 537 l 148 991 q 149 994 149 994 z "},"I":{"ha":772,"x_min":46,"x_max":725,"o":"m 62 0 q 59 1 60 0 l 49 13 q 50 18 46 16 l 104 66 q 107 68 106 68 l 270 68 q 273 66 271 68 l 303 31 q 304 28 304 31 l 300 3 q 296 0 300 0 l 62 0 m 326 5 l 329 26 q 330 28 329 27 l 374 66 q 377 68 376 68 l 539 68 q 543 66 541 68 l 583 19 q 583 14 586 16 l 568 1 q 566 0 568 0 l 330 0 q 327 1 328 0 q 326 5 325 3 m 397 975 q 395 974 396 974 l 232 974 q 229 975 231 974 l 189 1023 q 189 1028 185 1025 l 203 1040 q 205 1042 205 1042 l 442 1042 q 445 1040 444 1042 q 446 1037 446 1038 l 443 1015 q 441 1013 443 1015 l 397 975 m 412 954 q 414 956 414 956 l 450 987 q 456 987 453 990 l 480 959 q 481 956 481 958 l 427 575 q 427 572 427 573 l 390 541 q 385 541 387 538 l 360 570 q 359 572 359 571 l 412 954 m 290 85 l 344 467 q 344 468 344 467 q 345 469 345 469 l 382 500 q 387 500 385 503 l 412 472 q 412 469 412 469 l 359 88 q 358 85 359 86 l 321 54 q 316 54 319 52 l 292 83 q 290 85 290 84 m 499 975 l 469 1010 q 468 1013 467 1012 l 471 1038 q 475 1042 471 1042 l 709 1042 q 712 1040 711 1042 l 723 1028 q 722 1023 725 1025 l 667 975 q 665 974 666 974 l 502 974 q 499 975 500 974 z "},"J":{"ha":772,"x_min":16,"x_max":755,"o":"m 62 0 q 59 1 60 0 l 49 13 q 50 18 46 16 l 104 66 q 107 68 106 68 l 270 68 q 273 66 271 68 l 303 31 q 304 28 304 31 l 300 3 q 296 0 300 0 l 62 0 m 326 5 l 329 26 q 330 28 329 27 l 374 66 q 377 68 376 68 l 539 68 q 543 66 541 68 l 583 19 q 583 14 586 16 l 568 1 q 566 0 568 0 l 330 0 q 327 1 328 0 q 326 5 325 3 m 83 508 l 109 508 q 111 507 111 508 l 142 472 q 143 469 143 469 l 90 88 q 88 85 88 85 l 33 37 q 27 38 30 35 l 17 50 q 16 53 16 51 l 80 505 q 83 508 80 508 m 629 572 l 682 954 q 684 956 682 955 l 739 1004 q 744 1004 741 1006 l 754 991 q 755 989 755 990 l 692 536 q 688 533 692 533 l 663 533 q 660 534 661 533 l 629 570 q 629 572 629 570 m 602 35 l 561 83 q 560 85 560 83 l 615 475 q 616 478 615 477 l 659 507 q 661 508 660 508 l 684 508 q 686 507 686 508 q 687 504 688 505 l 623 50 q 622 47 623 49 l 608 35 q 602 35 605 33 z "},"K":{"ha":772,"x_min":16,"x_max":656,"o":"m 326 487 l 163 487 q 161 488 162 487 l 136 517 q 137 522 133 519 l 173 553 q 176 555 174 555 l 338 555 q 341 553 340 555 l 366 525 q 366 519 368 522 l 329 488 q 326 487 328 487 m 83 508 l 109 508 q 111 507 111 508 l 142 472 q 143 469 143 469 l 90 88 q 88 85 88 85 l 33 37 q 27 38 30 35 l 17 50 q 16 53 16 51 l 80 505 q 83 508 80 508 m 149 994 l 164 1006 q 170 1006 167 1009 l 210 959 q 212 956 212 958 l 158 575 q 157 572 157 572 l 113 534 q 110 533 111 533 l 88 533 q 85 534 87 533 q 84 538 84 537 l 148 991 q 149 994 149 994 m 525 95 l 421 347 q 421 347 421 347 q 421 349 421 348 l 437 458 q 440 462 437 462 l 444 462 q 448 460 446 462 l 551 208 q 552 206 552 208 l 536 96 q 532 93 536 93 l 529 93 q 525 95 526 93 m 454 584 l 471 701 q 471 703 471 703 l 641 947 q 644 949 642 949 l 652 949 q 654 947 654 949 q 656 945 656 947 l 639 827 q 638 825 639 826 l 469 581 q 466 580 468 580 l 458 580 q 455 581 456 580 q 454 584 454 583 z "},"L":{"ha":772,"x_min":16,"x_max":586,"o":"m 62 0 q 59 1 60 0 l 49 13 q 50 18 46 16 l 104 66 q 107 68 106 68 l 270 68 q 273 66 271 68 l 303 31 q 304 28 304 31 l 300 3 q 296 0 300 0 l 62 0 m 326 5 l 329 26 q 330 28 329 27 l 374 66 q 377 68 376 68 l 539 68 q 543 66 541 68 l 583 19 q 583 14 586 16 l 568 1 q 566 0 568 0 l 330 0 q 327 1 328 0 q 326 5 325 3 m 83 508 l 109 508 q 111 507 111 508 l 142 472 q 143 469 143 469 l 90 88 q 88 85 88 85 l 33 37 q 27 38 30 35 l 17 50 q 16 53 16 51 l 80 505 q 83 508 80 508 m 149 994 l 164 1006 q 170 1006 167 1009 l 210 959 q 212 956 212 958 l 158 575 q 157 572 157 572 l 113 534 q 110 533 111 533 l 88 533 q 85 534 87 533 q 84 538 84 537 l 148 991 q 149 994 149 994 z "},"M":{"ha":772,"x_min":16,"x_max":755,"o":"m 83 508 l 109 508 q 111 507 111 508 l 142 472 q 143 469 143 469 l 90 88 q 88 85 88 85 l 33 37 q 27 38 30 35 l 17 50 q 16 53 16 51 l 80 505 q 83 508 80 508 m 629 572 l 682 954 q 684 956 682 955 l 739 1004 q 744 1004 741 1006 l 754 991 q 755 989 755 990 l 692 536 q 688 533 692 533 l 663 533 q 660 534 661 533 l 629 570 q 629 572 629 570 m 602 35 l 561 83 q 560 85 560 83 l 615 475 q 616 478 615 477 l 659 507 q 661 508 660 508 l 684 508 q 686 507 686 508 q 687 504 688 505 l 623 50 q 622 47 623 49 l 608 35 q 602 35 605 33 m 149 994 l 164 1006 q 170 1006 167 1009 l 210 959 q 212 956 212 958 l 158 575 q 157 572 157 572 l 113 534 q 110 533 111 533 l 88 533 q 85 534 87 533 q 84 538 84 537 l 148 991 q 149 994 149 994 m 324 582 l 220 833 q 220 834 220 833 q 220 836 220 835 l 235 945 q 239 949 235 949 l 243 949 q 246 947 245 949 l 351 695 q 351 694 351 694 q 351 693 351 693 l 335 583 q 332 580 335 580 l 328 580 q 324 582 325 580 m 454 584 l 471 701 q 471 703 471 703 l 641 947 q 644 949 642 949 l 652 949 q 654 947 654 949 q 656 945 656 947 l 639 827 q 638 825 639 826 l 469 581 q 466 580 468 580 l 458 580 q 455 581 456 580 q 454 584 454 583 z "},"N":{"ha":772,"x_min":16,"x_max":755,"o":"m 83 508 l 109 508 q 111 507 111 508 l 142 472 q 143 469 143 469 l 90 88 q 88 85 88 85 l 33 37 q 27 38 30 35 l 17 50 q 16 53 16 51 l 80 505 q 83 508 80 508 m 629 572 l 682 954 q 684 956 682 955 l 739 1004 q 744 1004 741 1006 l 754 991 q 755 989 755 990 l 692 536 q 688 533 692 533 l 663 533 q 660 534 661 533 l 629 570 q 629 572 629 570 m 602 35 l 561 83 q 560 85 560 83 l 615 475 q 616 478 615 477 l 659 507 q 661 508 660 508 l 684 508 q 686 507 686 508 q 687 504 688 505 l 623 50 q 622 47 623 49 l 608 35 q 602 35 605 33 m 149 994 l 164 1006 q 170 1006 167 1009 l 210 959 q 212 956 212 958 l 158 575 q 157 572 157 572 l 113 534 q 110 533 111 533 l 88 533 q 85 534 87 533 q 84 538 84 537 l 148 991 q 149 994 149 994 m 525 95 l 421 347 q 421 347 421 347 q 421 349 421 348 l 437 458 q 440 462 437 462 l 444 462 q 448 460 446 462 l 551 208 q 552 206 552 208 l 536 96 q 532 93 536 93 l 529 93 q 525 95 526 93 m 324 582 l 220 833 q 220 834 220 833 q 220 836 220 835 l 235 945 q 239 949 235 949 l 243 949 q 246 947 245 949 l 351 695 q 351 694 351 694 q 351 693 351 693 l 335 583 q 332 580 335 580 l 328 580 q 324 582 325 580 z "},"O":{"ha":772,"x_min":16,"x_max":755,"o":"m 62 0 q 59 1 60 0 l 49 13 q 50 18 46 16 l 104 66 q 107 68 106 68 l 270 68 q 273 66 271 68 l 303 31 q 304 28 304 31 l 300 3 q 296 0 300 0 l 62 0 m 326 5 l 329 26 q 330 28 329 27 l 374 66 q 377 68 376 68 l 539 68 q 543 66 541 68 l 583 19 q 583 14 586 16 l 568 1 q 566 0 568 0 l 330 0 q 327 1 328 0 q 326 5 325 3 m 397 975 q 395 974 396 974 l 232 974 q 229 975 231 974 l 189 1023 q 189 1028 185 1025 l 203 1040 q 205 1042 205 1042 l 442 1042 q 445 1040 444 1042 q 446 1037 446 1038 l 443 1015 q 441 1013 443 1015 l 397 975 m 83 508 l 109 508 q 111 507 111 508 l 142 472 q 143 469 143 469 l 90 88 q 88 85 88 85 l 33 37 q 27 38 30 35 l 17 50 q 16 53 16 51 l 80 505 q 83 508 80 508 m 499 975 l 469 1010 q 468 1013 467 1012 l 471 1038 q 475 1042 471 1042 l 709 1042 q 712 1040 711 1042 l 723 1028 q 722 1023 725 1025 l 667 975 q 665 974 666 974 l 502 974 q 499 975 500 974 m 629 572 l 682 954 q 684 956 682 955 l 739 1004 q 744 1004 741 1006 l 754 991 q 755 989 755 990 l 692 536 q 688 533 692 533 l 663 533 q 660 534 661 533 l 629 570 q 629 572 629 570 m 602 35 l 561 83 q 560 85 560 83 l 615 475 q 616 478 615 477 l 659 507 q 661 508 660 508 l 684 508 q 686 507 686 508 q 687 504 688 505 l 623 50 q 622 47 623 49 l 608 35 q 602 35 605 33 m 149 994 l 164 1006 q 170 1006 167 1009 l 210 959 q 212 956 212 958 l 158 575 q 157 572 157 572 l 113 534 q 110 533 111 533 l 88 533 q 85 534 87 533 q 84 538 84 537 l 148 991 q 149 994 149 994 z "},"P":{"ha":772,"x_min":16,"x_max":755,"o":"m 397 975 q 395 974 396 974 l 232 974 q 229 975 231 974 l 189 1023 q 189 1028 185 1025 l 203 1040 q 205 1042 205 1042 l 442 1042 q 445 1040 444 1042 q 446 1037 446 1038 l 443 1015 q 441 1013 443 1015 l 397 975 m 326 487 l 163 487 q 161 488 162 487 l 136 517 q 137 522 133 519 l 173 553 q 176 555 174 555 l 338 555 q 341 553 340 555 l 366 525 q 366 519 368 522 l 329 488 q 326 487 328 487 m 431 488 l 406 517 q 406 522 404 519 l 443 553 q 446 555 444 555 l 608 555 q 611 553 608 555 l 635 525 q 635 519 637 521 l 599 488 q 596 487 598 487 l 433 487 q 431 488 432 487 m 83 508 l 109 508 q 111 507 111 508 l 142 472 q 143 469 143 469 l 90 88 q 88 85 88 85 l 33 37 q 27 38 30 35 l 17 50 q 16 53 16 51 l 80 505 q 83 508 80 508 m 499 975 l 469 1010 q 468 1013 467 1012 l 471 1038 q 475 1042 471 1042 l 709 1042 q 712 1040 711 1042 l 723 1028 q 722 1023 725 1025 l 667 975 q 665 974 666 974 l 502 974 q 499 975 500 974 m 629 572 l 682 954 q 684 956 682 955 l 739 1004 q 744 1004 741 1006 l 754 991 q 755 989 755 990 l 692 536 q 688 533 692 533 l 663 533 q 660 534 661 533 l 629 570 q 629 572 629 570 m 149 994 l 164 1006 q 170 1006 167 1009 l 210 959 q 212 956 212 958 l 158 575 q 157 572 157 572 l 113 534 q 110 533 111 533 l 88 533 q 85 534 87 533 q 84 538 84 537 l 148 991 q 149 994 149 994 z "},"Q":{"ha":772,"x_min":16,"x_max":755,"o":"m 62 0 q 59 1 60 0 l 49 13 q 50 18 46 16 l 104 66 q 107 68 106 68 l 270 68 q 273 66 271 68 l 303 31 q 304 28 304 31 l 300 3 q 296 0 300 0 l 62 0 m 326 5 l 329 26 q 330 28 329 27 l 374 66 q 377 68 376 68 l 539 68 q 543 66 541 68 l 583 19 q 583 14 586 16 l 568 1 q 566 0 568 0 l 330 0 q 327 1 328 0 q 326 5 325 3 m 397 975 q 395 974 396 974 l 232 974 q 229 975 231 974 l 189 1023 q 189 1028 185 1025 l 203 1040 q 205 1042 205 1042 l 442 1042 q 445 1040 444 1042 q 446 1037 446 1038 l 443 1015 q 441 1013 443 1015 l 397 975 m 83 508 l 109 508 q 111 507 111 508 l 142 472 q 143 469 143 469 l 90 88 q 88 85 88 85 l 33 37 q 27 38 30 35 l 17 50 q 16 53 16 51 l 80 505 q 83 508 80 508 m 499 975 l 469 1010 q 468 1013 467 1012 l 471 1038 q 475 1042 471 1042 l 709 1042 q 712 1040 711 1042 l 723 1028 q 722 1023 725 1025 l 667 975 q 665 974 666 974 l 502 974 q 499 975 500 974 m 629 572 l 682 954 q 684 956 682 955 l 739 1004 q 744 1004 741 1006 l 754 991 q 755 989 755 990 l 692 536 q 688 533 692 533 l 663 533 q 660 534 661 533 l 629 570 q 629 572 629 570 m 602 35 l 561 83 q 560 85 560 83 l 615 475 q 616 478 615 477 l 659 507 q 661 508 660 508 l 684 508 q 686 507 686 508 q 687 504 688 505 l 623 50 q 622 47 623 49 l 608 35 q 602 35 605 33 m 149 994 l 164 1006 q 170 1006 167 1009 l 210 959 q 212 956 212 958 l 158 575 q 157 572 157 572 l 113 534 q 110 533 111 533 l 88 533 q 85 534 87 533 q 84 538 84 537 l 148 991 q 149 994 149 994 m 525 95 l 421 347 q 421 347 421 347 q 421 349 421 348 l 437 458 q 440 462 437 462 l 444 462 q 448 460 446 462 l 551 208 q 552 206 552 208 l 536 96 q 532 93 536 93 l 529 93 q 525 95 526 93 z "},"R":{"ha":772,"x_min":16,"x_max":755,"o":"m 397 975 q 395 974 396 974 l 232 974 q 229 975 231 974 l 189 1023 q 189 1028 185 1025 l 203 1040 q 205 1042 205 1042 l 442 1042 q 445 1040 444 1042 q 446 1037 446 1038 l 443 1015 q 441 1013 443 1015 l 397 975 m 326 487 l 163 487 q 161 488 162 487 l 136 517 q 137 522 133 519 l 173 553 q 176 555 174 555 l 338 555 q 341 553 340 555 l 366 525 q 366 519 368 522 l 329 488 q 326 487 328 487 m 431 488 l 406 517 q 406 522 404 519 l 443 553 q 446 555 444 555 l 608 555 q 611 553 608 555 l 635 525 q 635 519 637 521 l 599 488 q 596 487 598 487 l 433 487 q 431 488 432 487 m 83 508 l 109 508 q 111 507 111 508 l 142 472 q 143 469 143 469 l 90 88 q 88 85 88 85 l 33 37 q 27 38 30 35 l 17 50 q 16 53 16 51 l 80 505 q 83 508 80 508 m 499 975 l 469 1010 q 468 1013 467 1012 l 471 1038 q 475 1042 471 1042 l 709 1042 q 712 1040 711 1042 l 723 1028 q 722 1023 725 1025 l 667 975 q 665 974 666 974 l 502 974 q 499 975 500 974 m 629 572 l 682 954 q 684 956 682 955 l 739 1004 q 744 1004 741 1006 l 754 991 q 755 989 755 990 l 692 536 q 688 533 692 533 l 663 533 q 660 534 661 533 l 629 570 q 629 572 629 570 m 149 994 l 164 1006 q 170 1006 167 1009 l 210 959 q 212 956 212 958 l 158 575 q 157 572 157 572 l 113 534 q 110 533 111 533 l 88 533 q 85 534 87 533 q 84 538 84 537 l 148 991 q 149 994 149 994 m 525 95 l 421 347 q 421 347 421 347 q 421 349 421 348 l 437 458 q 440 462 437 462 l 444 462 q 448 460 446 462 l 551 208 q 552 206 552 208 l 536 96 q 532 93 536 93 l 529 93 q 525 95 526 93 z "},"S":{"ha":772,"x_min":46,"x_max":725,"o":"m 62 0 q 59 1 60 0 l 49 13 q 50 18 46 16 l 104 66 q 107 68 106 68 l 270 68 q 273 66 271 68 l 303 31 q 304 28 304 31 l 300 3 q 296 0 300 0 l 62 0 m 326 5 l 329 26 q 330 28 329 27 l 374 66 q 377 68 376 68 l 539 68 q 543 66 541 68 l 583 19 q 583 14 586 16 l 568 1 q 566 0 568 0 l 330 0 q 327 1 328 0 q 326 5 325 3 m 397 975 q 395 974 396 974 l 232 974 q 229 975 231 974 l 189 1023 q 189 1028 185 1025 l 203 1040 q 205 1042 205 1042 l 442 1042 q 445 1040 444 1042 q 446 1037 446 1038 l 443 1015 q 441 1013 443 1015 l 397 975 m 326 487 l 163 487 q 161 488 162 487 l 136 517 q 137 522 133 519 l 173 553 q 176 555 174 555 l 338 555 q 341 553 340 555 l 366 525 q 366 519 368 522 l 329 488 q 326 487 328 487 m 431 488 l 406 517 q 406 522 404 519 l 443 553 q 446 555 444 555 l 608 555 q 611 553 608 555 l 635 525 q 635 519 637 521 l 599 488 q 596 487 598 487 l 433 487 q 431 488 432 487 m 499 975 l 469 1010 q 468 1013 467 1012 l 471 1038 q 475 1042 471 1042 l 709 1042 q 712 1040 711 1042 l 723 1028 q 722 1023 725 1025 l 667 975 q 665 974 666 974 l 502 974 q 499 975 500 974 m 602 35 l 561 83 q 560 85 560 83 l 615 475 q 616 478 615 477 l 659 507 q 661 508 660 508 l 684 508 q 686 507 686 508 q 687 504 688 505 l 623 50 q 622 47 623 49 l 608 35 q 602 35 605 33 m 149 994 l 164 1006 q 170 1006 167 1009 l 210 959 q 212 956 212 958 l 158 575 q 157 572 157 572 l 113 534 q 110 533 111 533 l 88 533 q 85 534 87 533 q 84 538 84 537 l 148 991 q 149 994 149 994 z "},"T":{"ha":772,"x_min":185,"x_max":725,"o":"m 397 975 q 395 974 396 974 l 232 974 q 229 975 231 974 l 189 1023 q 189 1028 185 1025 l 203 1040 q 205 1042 205 1042 l 442 1042 q 445 1040 444 1042 q 446 1037 446 1038 l 443 1015 q 441 1013 443 1015 l 397 975 m 412 954 q 414 956 414 956 l 450 987 q 456 987 453 990 l 480 959 q 481 956 481 958 l 427 575 q 427 572 427 573 l 390 541 q 385 541 387 538 l 360 570 q 359 572 359 571 l 412 954 m 290 85 l 344 467 q 344 468 344 467 q 345 469 345 469 l 382 500 q 387 500 385 503 l 412 472 q 412 469 412 469 l 359 88 q 358 85 359 86 l 321 54 q 316 54 319 52 l 292 83 q 290 85 290 84 m 499 975 l 469 1010 q 468 1013 467 1012 l 471 1038 q 475 1042 471 1042 l 709 1042 q 712 1040 711 1042 l 723 1028 q 722 1023 725 1025 l 667 975 q 665 974 666 974 l 502 974 q 499 975 500 974 z "},"U":{"ha":772,"x_min":16,"x_max":755,"o":"m 62 0 q 59 1 60 0 l 49 13 q 50 18 46 16 l 104 66 q 107 68 106 68 l 270 68 q 273 66 271 68 l 303 31 q 304 28 304 31 l 300 3 q 296 0 300 0 l 62 0 m 326 5 l 329 26 q 330 28 329 27 l 374 66 q 377 68 376 68 l 539 68 q 543 66 541 68 l 583 19 q 583 14 586 16 l 568 1 q 566 0 568 0 l 330 0 q 327 1 328 0 q 326 5 325 3 m 83 508 l 109 508 q 111 507 111 508 l 142 472 q 143 469 143 469 l 90 88 q 88 85 88 85 l 33 37 q 27 38 30 35 l 17 50 q 16 53 16 51 l 80 505 q 83 508 80 508 m 629 572 l 682 954 q 684 956 682 955 l 739 1004 q 744 1004 741 1006 l 754 991 q 755 989 755 990 l 692 536 q 688 533 692 533 l 663 533 q 660 534 661 533 l 629 570 q 629 572 629 570 m 602 35 l 561 83 q 560 85 560 83 l 615 475 q 616 478 615 477 l 659 507 q 661 508 660 508 l 684 508 q 686 507 686 508 q 687 504 688 505 l 623 50 q 622 47 623 49 l 608 35 q 602 35 605 33 m 149 994 l 164 1006 q 170 1006 167 1009 l 210 959 q 212 956 212 958 l 158 575 q 157 572 157 572 l 113 534 q 110 533 111 533 l 88 533 q 85 534 87 533 q 84 538 84 537 l 148 991 q 149 994 149 994 z "},"V":{"ha":772,"x_min":16,"x_max":656,"o":"m 83 508 l 109 508 q 111 507 111 508 l 142 472 q 143 469 143 469 l 90 88 q 88 85 88 85 l 33 37 q 27 38 30 35 l 17 50 q 16 53 16 51 l 80 505 q 83 508 80 508 m 149 994 l 164 1006 q 170 1006 167 1009 l 210 959 q 212 956 212 958 l 158 575 q 157 572 157 572 l 113 534 q 110 533 111 533 l 88 533 q 85 534 87 533 q 84 538 84 537 l 148 991 q 149 994 149 994 m 116 97 l 132 214 q 133 215 132 214 q 133 216 133 216 l 302 460 q 306 462 304 462 l 314 462 q 317 460 316 462 q 317 458 317 460 l 301 340 q 301 339 301 340 q 300 338 300 338 l 131 94 q 127 93 130 93 l 120 93 q 117 94 117 93 q 116 97 116 95 m 454 584 l 471 701 q 471 703 471 703 l 641 947 q 644 949 642 949 l 652 949 q 654 947 654 949 q 656 945 656 947 l 639 827 q 638 825 639 826 l 469 581 q 466 580 468 580 l 458 580 q 455 581 456 580 q 454 584 454 583 z "},"W":{"ha":772,"x_min":16,"x_max":755,"o":"m 83 508 l 109 508 q 111 507 111 508 l 142 472 q 143 469 143 469 l 90 88 q 88 85 88 85 l 33 37 q 27 38 30 35 l 17 50 q 16 53 16 51 l 80 505 q 83 508 80 508 m 629 572 l 682 954 q 684 956 682 955 l 739 1004 q 744 1004 741 1006 l 754 991 q 755 989 755 990 l 692 536 q 688 533 692 533 l 663 533 q 660 534 661 533 l 629 570 q 629 572 629 570 m 602 35 l 561 83 q 560 85 560 83 l 615 475 q 616 478 615 477 l 659 507 q 661 508 660 508 l 684 508 q 686 507 686 508 q 687 504 688 505 l 623 50 q 622 47 623 49 l 608 35 q 602 35 605 33 m 149 994 l 164 1006 q 170 1006 167 1009 l 210 959 q 212 956 212 958 l 158 575 q 157 572 157 572 l 113 534 q 110 533 111 533 l 88 533 q 85 534 87 533 q 84 538 84 537 l 148 991 q 149 994 149 994 m 116 97 l 132 214 q 133 215 132 214 q 133 216 133 216 l 302 460 q 306 462 304 462 l 314 462 q 317 460 316 462 q 317 458 317 460 l 301 340 q 301 339 301 340 q 300 338 300 338 l 131 94 q 127 93 130 93 l 120 93 q 117 94 117 93 q 116 97 116 95 m 525 95 l 421 347 q 421 347 421 347 q 421 349 421 348 l 437 458 q 440 462 437 462 l 444 462 q 448 460 446 462 l 551 208 q 552 206 552 208 l 536 96 q 532 93 536 93 l 529 93 q 525 95 526 93 z "},"X":{"ha":772,"x_min":116,"x_max":656,"o":"m 116 97 l 132 214 q 133 215 132 214 q 133 216 133 216 l 302 460 q 306 462 304 462 l 314 462 q 317 460 316 462 q 317 458 317 460 l 301 340 q 301 339 301 340 q 300 338 300 338 l 131 94 q 127 93 130 93 l 120 93 q 117 94 117 93 q 116 97 116 95 m 525 95 l 421 347 q 421 347 421 347 q 421 349 421 348 l 437 458 q 440 462 437 462 l 444 462 q 448 460 446 462 l 551 208 q 552 206 552 208 l 536 96 q 532 93 536 93 l 529 93 q 525 95 526 93 m 324 582 l 220 833 q 220 834 220 833 q 220 836 220 835 l 235 945 q 239 949 235 949 l 243 949 q 246 947 245 949 l 351 695 q 351 694 351 694 q 351 693 351 693 l 335 583 q 332 580 335 580 l 328 580 q 324 582 325 580 m 454 584 l 471 701 q 471 703 471 703 l 641 947 q 644 949 642 949 l 652 949 q 654 947 654 949 q 656 945 656 947 l 639 827 q 638 825 639 826 l 469 581 q 466 580 468 580 l 458 580 q 455 581 456 580 q 454 584 454 583 z "},"Y":{"ha":772,"x_min":220,"x_max":656,"o":"m 290 85 l 344 467 q 344 468 344 467 q 345 469 345 469 l 382 500 q 387 500 385 503 l 412 472 q 412 469 412 469 l 359 88 q 358 85 359 86 l 321 54 q 316 54 319 52 l 292 83 q 290 85 290 84 m 454 584 l 471 701 q 471 703 471 703 l 641 947 q 644 949 642 949 l 652 949 q 654 947 654 949 q 656 945 656 947 l 639 827 q 638 825 639 826 l 469 581 q 466 580 468 580 l 458 580 q 455 581 456 580 q 454 584 454 583 m 324 582 l 220 833 q 220 834 220 833 q 220 836 220 835 l 235 945 q 239 949 235 949 l 243 949 q 246 947 245 949 l 351 695 q 351 694 351 694 q 351 693 351 693 l 335 583 q 332 580 335 580 l 328 580 q 324 582 325 580 z "},"Z":{"ha":772,"x_min":46,"x_max":725,"o":"m 62 0 q 59 1 60 0 l 49 13 q 50 18 46 16 l 104 66 q 107 68 106 68 l 270 68 q 273 66 271 68 l 303 31 q 304 28 304 31 l 300 3 q 296 0 300 0 l 62 0 m 326 5 l 329 26 q 330 28 329 27 l 374 66 q 377 68 376 68 l 539 68 q 543 66 541 68 l 583 19 q 583 14 586 16 l 568 1 q 566 0 568 0 l 330 0 q 327 1 328 0 q 326 5 325 3 m 397 975 q 395 974 396 974 l 232 974 q 229 975 231 974 l 189 1023 q 189 1028 185 1025 l 203 1040 q 205 1042 205 1042 l 442 1042 q 445 1040 444 1042 q 446 1037 446 1038 l 443 1015 q 441 1013 443 1015 l 397 975 m 499 975 l 469 1010 q 468 1013 467 1012 l 471 1038 q 475 1042 471 1042 l 709 1042 q 712 1040 711 1042 l 723 1028 q 722 1023 725 1025 l 667 975 q 665 974 666 974 l 502 974 q 499 975 500 974 m 116 97 l 132 214 q 133 215 132 214 q 133 216 133 216 l 302 460 q 306 462 304 462 l 314 462 q 317 460 316 462 q 317 458 317 460 l 301 340 q 301 339 301 340 q 300 338 300 338 l 131 94 q 127 93 130 93 l 120 93 q 117 94 117 93 q 116 97 116 95 m 454 584 l 471 701 q 471 703 471 703 l 641 947 q 644 949 642 949 l 652 949 q 654 947 654 949 q 656 945 656 947 l 639 827 q 638 825 639 826 l 469 581 q 466 580 468 580 l 458 580 q 455 581 456 580 q 454 584 454 583 z "},"[":{"ha":772,"x_min":290,"x_max":725,"o":"m 326 5 l 329 26 q 330 28 329 27 l 374 66 q 377 68 376 68 l 539 68 q 543 66 541 68 l 583 19 q 583 14 586 16 l 568 1 q 566 0 568 0 l 330 0 q 327 1 328 0 q 326 5 325 3 m 412 954 q 414 956 414 956 l 450 987 q 456 987 453 990 l 480 959 q 481 956 481 958 l 427 575 q 427 572 427 573 l 390 541 q 385 541 387 538 l 360 570 q 359 572 359 571 l 412 954 m 290 85 l 344 467 q 344 468 344 467 q 345 469 345 469 l 382 500 q 387 500 385 503 l 412 472 q 412 469 412 469 l 359 88 q 358 85 359 86 l 321 54 q 316 54 319 52 l 292 83 q 290 85 290 84 m 499 975 l 469 1010 q 468 1013 467 1012 l 471 1038 q 475 1042 471 1042 l 709 1042 q 712 1040 711 1042 l 723 1028 q 722 1023 725 1025 l 667 975 q 665 974 666 974 l 502 974 q 499 975 500 974 z "},"\\":{"ha":772,"x_min":220,"x_max":552,"o":"m 525 95 l 421 347 q 421 347 421 347 q 421 349 421 348 l 437 458 q 440 462 437 462 l 444 462 q 448 460 446 462 l 551 208 q 552 206 552 208 l 536 96 q 532 93 536 93 l 529 93 q 525 95 526 93 m 324 582 l 220 833 q 220 834 220 833 q 220 836 220 835 l 235 945 q 239 949 235 949 l 243 949 q 246 947 245 949 l 351 695 q 351 694 351 694 q 351 693 351 693 l 335 583 q 332 580 335 580 l 328 580 q 324 582 325 580 z "},"]":{"ha":772,"x_min":46,"x_max":481,"o":"m 62 0 q 59 1 60 0 l 49 13 q 50 18 46 16 l 104 66 q 107 68 106 68 l 270 68 q 273 66 271 68 l 303 31 q 304 28 304 31 l 300 3 q 296 0 300 0 l 62 0 m 397 975 q 395 974 396 974 l 232 974 q 229 975 231 974 l 189 1023 q 189 1028 185 1025 l 203 1040 q 205 1042 205 1042 l 442 1042 q 445 1040 444 1042 q 446 1037 446 1038 l 443 1015 q 441 1013 443 1015 l 397 975 m 412 954 q 414 956 414 956 l 450 987 q 456 987 453 990 l 480 959 q 481 956 481 958 l 427 575 q 427 572 427 573 l 390 541 q 385 541 387 538 l 360 570 q 359 572 359 571 l 412 954 m 290 85 l 344 467 q 344 468 344 467 q 345 469 345 469 l 382 500 q 387 500 385 503 l 412 472 q 412 469 412 469 l 359 88 q 358 85 359 86 l 321 54 q 316 54 319 52 l 292 83 q 290 85 290 84 z "},"^":{"ha":772,"x_min":116,"x_max":552,"o":"m 116 97 l 132 214 q 133 215 132 214 q 133 216 133 216 l 302 460 q 306 462 304 462 l 314 462 q 317 460 316 462 q 317 458 317 460 l 301 340 q 301 339 301 340 q 300 338 300 338 l 131 94 q 127 93 130 93 l 120 93 q 117 94 117 93 q 116 97 116 95 m 525 95 l 421 347 q 421 347 421 347 q 421 349 421 348 l 437 458 q 440 462 437 462 l 444 462 q 448 460 446 462 l 551 208 q 552 206 552 208 l 536 96 q 532 93 536 93 l 529 93 q 525 95 526 93 z "},"_":{"ha":772,"x_min":46,"x_max":586,"o":"m 62 0 q 59 1 60 0 l 49 13 q 50 18 46 16 l 104 66 q 107 68 106 68 l 270 68 q 273 66 271 68 l 303 31 q 304 28 304 31 l 300 3 q 296 0 300 0 l 62 0 m 326 5 l 329 26 q 330 28 329 27 l 374 66 q 377 68 376 68 l 539 68 q 543 66 541 68 l 583 19 q 583 14 586 16 l 568 1 q 566 0 568 0 l 330 0 q 327 1 328 0 q 326 5 325 3 z "},"`":{"ha":772,"x_min":220,"x_max":351,"o":"m 324 582 l 220 833 q 220 834 220 833 q 220 836 220 835 l 235 945 q 239 949 235 949 l 243 949 q 246 947 245 949 l 351 695 q 351 694 351 694 q 351 693 351 693 l 335 583 q 332 580 335 580 l 328 580 q 324 582 325 580 z "},"a":{"ha":772,"x_min":16,"x_max":586,"o":"m 62 0 q 59 1 60 0 l 49 13 q 50 18 46 16 l 104 66 q 107 68 106 68 l 270 68 q 273 66 271 68 l 303 31 q 304 28 304 31 l 300 3 q 296 0 300 0 l 62 0 m 326 5 l 329 26 q 330 28 329 27 l 374 66 q 377 68 376 68 l 539 68 q 543 66 541 68 l 583 19 q 583 14 586 16 l 568 1 q 566 0 568 0 l 330 0 q 327 1 328 0 q 326 5 325 3 m 326 487 l 163 487 q 161 488 162 487 l 136 517 q 137 522 133 519 l 173 553 q 176 555 174 555 l 338 555 q 341 553 340 555 l 366 525 q 366 519 368 522 l 329 488 q 326 487 328 487 m 83 508 l 109 508 q 111 507 111 508 l 142 472 q 143 469 143 469 l 90 88 q 88 85 88 85 l 33 37 q 27 38 30 35 l 17 50 q 16 53 16 51 l 80 505 q 83 508 80 508 m 290 85 l 344 467 q 344 468 344 467 q 345 469 345 469 l 382 500 q 387 500 385 503 l 412 472 q 412 469 412 469 l 359 88 q 358 85 359 86 l 321 54 q 316 54 319 52 l 292 83 q 290 85 290 84 z "},"b":{"ha":772,"x_min":16,"x_max":688,"o":"m 62 0 q 59 1 60 0 l 49 13 q 50 18 46 16 l 104 66 q 107 68 106 68 l 270 68 q 273 66 271 68 l 303 31 q 304 28 304 31 l 300 3 q 296 0 300 0 l 62 0 m 326 5 l 329 26 q 330 28 329 27 l 374 66 q 377 68 376 68 l 539 68 q 543 66 541 68 l 583 19 q 583 14 586 16 l 568 1 q 566 0 568 0 l 330 0 q 327 1 328 0 q 326 5 325 3 m 326 487 l 163 487 q 161 488 162 487 l 136 517 q 137 522 133 519 l 173 553 q 176 555 174 555 l 338 555 q 341 553 340 555 l 366 525 q 366 519 368 522 l 329 488 q 326 487 328 487 m 431 488 l 406 517 q 406 522 404 519 l 443 553 q 446 555 444 555 l 608 555 q 611 553 608 555 l 635 525 q 635 519 637 521 l 599 488 q 596 487 598 487 l 433 487 q 431 488 432 487 m 83 508 l 109 508 q 111 507 111 508 l 142 472 q 143 469 143 469 l 90 88 q 88 85 88 85 l 33 37 q 27 38 30 35 l 17 50 q 16 53 16 51 l 80 505 q 83 508 80 508 m 602 35 l 561 83 q 560 85 560 83 l 615 475 q 616 478 615 477 l 659 507 q 661 508 660 508 l 684 508 q 686 507 686 508 q 687 504 688 505 l 623 50 q 622 47 623 49 l 608 35 q 602 35 605 33 m 149 994 l 164 1006 q 170 1006 167 1009 l 210 959 q 212 956 212 958 l 158 575 q 157 572 157 572 l 113 534 q 110 533 111 533 l 88 533 q 85 534 87 533 q 84 538 84 537 l 148 991 q 149 994 149 994 z "},"c":{"ha":772,"x_min":16,"x_max":637,"o":"m 62 0 q 59 1 60 0 l 49 13 q 50 18 46 16 l 104 66 q 107 68 106 68 l 270 68 q 273 66 271 68 l 303 31 q 304 28 304 31 l 300 3 q 296 0 300 0 l 62 0 m 326 5 l 329 26 q 330 28 329 27 l 374 66 q 377 68 376 68 l 539 68 q 543 66 541 68 l 583 19 q 583 14 586 16 l 568 1 q 566 0 568 0 l 330 0 q 327 1 328 0 q 326 5 325 3 m 326 487 l 163 487 q 161 488 162 487 l 136 517 q 137 522 133 519 l 173 553 q 176 555 174 555 l 338 555 q 341 553 340 555 l 366 525 q 366 519 368 522 l 329 488 q 326 487 328 487 m 431 488 l 406 517 q 406 522 404 519 l 443 553 q 446 555 444 555 l 608 555 q 611 553 608 555 l 635 525 q 635 519 637 521 l 599 488 q 596 487 598 487 l 433 487 q 431 488 432 487 m 83 508 l 109 508 q 111 507 111 508 l 142 472 q 143 469 143 469 l 90 88 q 88 85 88 85 l 33 37 q 27 38 30 35 l 17 50 q 16 53 16 51 l 80 505 q 83 508 80 508 z "},"d":{"ha":772,"x_min":16,"x_max":755,"o":"m 62 0 q 59 1 60 0 l 49 13 q 50 18 46 16 l 104 66 q 107 68 106 68 l 270 68 q 273 66 271 68 l 303 31 q 304 28 304 31 l 300 3 q 296 0 300 0 l 62 0 m 326 5 l 329 26 q 330 28 329 27 l 374 66 q 377 68 376 68 l 539 68 q 543 66 541 68 l 583 19 q 583 14 586 16 l 568 1 q 566 0 568 0 l 330 0 q 327 1 328 0 q 326 5 325 3 m 326 487 l 163 487 q 161 488 162 487 l 136 517 q 137 522 133 519 l 173 553 q 176 555 174 555 l 338 555 q 341 553 340 555 l 366 525 q 366 519 368 522 l 329 488 q 326 487 328 487 m 431 488 l 406 517 q 406 522 404 519 l 443 553 q 446 555 444 555 l 608 555 q 611 553 608 555 l 635 525 q 635 519 637 521 l 599 488 q 596 487 598 487 l 433 487 q 431 488 432 487 m 83 508 l 109 508 q 111 507 111 508 l 142 472 q 143 469 143 469 l 90 88 q 88 85 88 85 l 33 37 q 27 38 30 35 l 17 50 q 16 53 16 51 l 80 505 q 83 508 80 508 m 629 572 l 682 954 q 684 956 682 955 l 739 1004 q 744 1004 741 1006 l 754 991 q 755 989 755 990 l 692 536 q 688 533 692 533 l 663 533 q 660 534 661 533 l 629 570 q 629 572 629 570 m 602 35 l 561 83 q 560 85 560 83 l 615 475 q 616 478 615 477 l 659 507 q 661 508 660 508 l 684 508 q 686 507 686 508 q 687 504 688 505 l 623 50 q 622 47 623 49 l 608 35 q 602 35 605 33 z "},"e":{"ha":772,"x_min":16,"x_max":586,"o":"m 62 0 q 59 1 60 0 l 49 13 q 50 18 46 16 l 104 66 q 107 68 106 68 l 270 68 q 273 66 271 68 l 303 31 q 304 28 304 31 l 300 3 q 296 0 300 0 l 62 0 m 326 5 l 329 26 q 330 28 329 27 l 374 66 q 377 68 376 68 l 539 68 q 543 66 541 68 l 583 19 q 583 14 586 16 l 568 1 q 566 0 568 0 l 330 0 q 327 1 328 0 q 326 5 325 3 m 326 487 l 163 487 q 161 488 162 487 l 136 517 q 137 522 133 519 l 173 553 q 176 555 174 555 l 338 555 q 341 553 340 555 l 366 525 q 366 519 368 522 l 329 488 q 326 487 328 487 m 83 508 l 109 508 q 111 507 111 508 l 142 472 q 143 469 143 469 l 90 88 q 88 85 88 85 l 33 37 q 27 38 30 35 l 17 50 q 16 53 16 51 l 80 505 q 83 508 80 508 m 116 97 l 132 214 q 133 215 132 214 q 133 216 133 216 l 302 460 q 306 462 304 462 l 314 462 q 317 460 316 462 q 317 458 317 460 l 301 340 q 301 339 301 340 q 300 338 300 338 l 131 94 q 127 93 130 93 l 120 93 q 117 94 117 93 q 116 97 116 95 z "},"f":{"ha":772,"x_min":133,"x_max":725,"o":"m 412 954 q 414 956 414 956 l 450 987 q 456 987 453 990 l 480 959 q 481 956 481 958 l 427 575 q 427 572 427 573 l 390 541 q 385 541 387 538 l 360 570 q 359 572 359 571 l 412 954 m 326 487 l 163 487 q 161 488 162 487 l 136 517 q 137 522 133 519 l 173 553 q 176 555 174 555 l 338 555 q 341 553 340 555 l 366 525 q 366 519 368 522 l 329 488 q 326 487 328 487 m 431 488 l 406 517 q 406 522 404 519 l 443 553 q 446 555 444 555 l 608 555 q 611 553 608 555 l 635 525 q 635 519 637 521 l 599 488 q 596 487 598 487 l 433 487 q 431 488 432 487 m 290 85 l 344 467 q 344 468 344 467 q 345 469 345 469 l 382 500 q 387 500 385 503 l 412 472 q 412 469 412 469 l 359 88 q 358 85 359 86 l 321 54 q 316 54 319 52 l 292 83 q 290 85 290 84 m 499 975 l 469 1010 q 468 1013 467 1012 l 471 1038 q 475 1042 471 1042 l 709 1042 q 712 1040 711 1042 l 723 1028 q 722 1023 725 1025 l 667 975 q 665 974 666 974 l 502 974 q 499 975 500 974 z "},"g":{"ha":772,"x_min":46,"x_max":688,"o":"m 62 0 q 59 1 60 0 l 49 13 q 50 18 46 16 l 104 66 q 107 68 106 68 l 270 68 q 273 66 271 68 l 303 31 q 304 28 304 31 l 300 3 q 296 0 300 0 l 62 0 m 326 5 l 329 26 q 330 28 329 27 l 374 66 q 377 68 376 68 l 539 68 q 543 66 541 68 l 583 19 q 583 14 586 16 l 568 1 q 566 0 568 0 l 330 0 q 327 1 328 0 q 326 5 325 3 m 431 488 l 406 517 q 406 522 404 519 l 443 553 q 446 555 444 555 l 608 555 q 611 553 608 555 l 635 525 q 635 519 637 521 l 599 488 q 596 487 598 487 l 433 487 q 431 488 432 487 m 602 35 l 561 83 q 560 85 560 83 l 615 475 q 616 478 615 477 l 659 507 q 661 508 660 508 l 684 508 q 686 507 686 508 q 687 504 688 505 l 623 50 q 622 47 623 49 l 608 35 q 602 35 605 33 m 525 95 l 421 347 q 421 347 421 347 q 421 349 421 348 l 437 458 q 440 462 437 462 l 444 462 q 448 460 446 462 l 551 208 q 552 206 552 208 l 536 96 q 532 93 536 93 l 529 93 q 525 95 526 93 z "},"h":{"ha":772,"x_min":16,"x_max":688,"o":"m 326 487 l 163 487 q 161 488 162 487 l 136 517 q 137 522 133 519 l 173 553 q 176 555 174 555 l 338 555 q 341 553 340 555 l 366 525 q 366 519 368 522 l 329 488 q 326 487 328 487 m 431 488 l 406 517 q 406 522 404 519 l 443 553 q 446 555 444 555 l 608 555 q 611 553 608 555 l 635 525 q 635 519 637 521 l 599 488 q 596 487 598 487 l 433 487 q 431 488 432 487 m 83 508 l 109 508 q 111 507 111 508 l 142 472 q 143 469 143 469 l 90 88 q 88 85 88 85 l 33 37 q 27 38 30 35 l 17 50 q 16 53 16 51 l 80 505 q 83 508 80 508 m 602 35 l 561 83 q 560 85 560 83 l 615 475 q 616 478 615 477 l 659 507 q 661 508 660 508 l 684 508 q 686 507 686 508 q 687 504 688 505 l 623 50 q 622 47 623 49 l 608 35 q 602 35 605 33 m 149 994 l 164 1006 q 170 1006 167 1009 l 210 959 q 212 956 212 958 l 158 575 q 157 572 157 572 l 113 534 q 110 533 111 533 l 88 533 q 85 534 87 533 q 84 538 84 537 l 148 991 q 149 994 149 994 z "},"i":{"ha":772,"x_min":46,"x_max":586,"o":"m 62 0 q 59 1 60 0 l 49 13 q 50 18 46 16 l 104 66 q 107 68 106 68 l 270 68 q 273 66 271 68 l 303 31 q 304 28 304 31 l 300 3 q 296 0 300 0 l 62 0 m 326 5 l 329 26 q 330 28 329 27 l 374 66 q 377 68 376 68 l 539 68 q 543 66 541 68 l 583 19 q 583 14 586 16 l 568 1 q 566 0 568 0 l 330 0 q 327 1 328 0 q 326 5 325 3 m 397 975 q 395 974 396 974 l 232 974 q 229 975 231 974 l 189 1023 q 189 1028 185 1025 l 203 1040 q 205 1042 205 1042 l 442 1042 q 445 1040 444 1042 q 446 1037 446 1038 l 443 1015 q 441 1013 443 1015 l 397 975 m 326 487 l 163 487 q 161 488 162 487 l 136 517 q 137 522 133 519 l 173 553 q 176 555 174 555 l 338 555 q 341 553 340 555 l 366 525 q 366 519 368 522 l 329 488 q 326 487 328 487 m 290 85 l 344 467 q 344 468 344 467 q 345 469 345 469 l 382 500 q 387 500 385 503 l 412 472 q 412 469 412 469 l 359 88 q 358 85 359 86 l 321 54 q 316 54 319 52 l 292 83 q 290 85 290 84 z "},"j":{"ha":772,"x_min":46,"x_max":725,"o":"m 62 0 q 59 1 60 0 l 49 13 q 50 18 46 16 l 104 66 q 107 68 106 68 l 270 68 q 273 66 271 68 l 303 31 q 304 28 304 31 l 300 3 q 296 0 300 0 l 62 0 m 326 5 l 329 26 q 330 28 329 27 l 374 66 q 377 68 376 68 l 539 68 q 543 66 541 68 l 583 19 q 583 14 586 16 l 568 1 q 566 0 568 0 l 330 0 q 327 1 328 0 q 326 5 325 3 m 499 975 l 469 1010 q 468 1013 467 1012 l 471 1038 q 475 1042 471 1042 l 709 1042 q 712 1040 711 1042 l 723 1028 q 722 1023 725 1025 l 667 975 q 665 974 666 974 l 502 974 q 499 975 500 974 m 602 35 l 561 83 q 560 85 560 83 l 615 475 q 616 478 615 477 l 659 507 q 661 508 660 508 l 684 508 q 686 507 686 508 q 687 504 688 505 l 623 50 q 622 47 623 49 l 608 35 q 602 35 605 33 z "},"k":{"ha":772,"x_min":16,"x_max":637,"o":"m 326 487 l 163 487 q 161 488 162 487 l 136 517 q 137 522 133 519 l 173 553 q 176 555 174 555 l 338 555 q 341 553 340 555 l 366 525 q 366 519 368 522 l 329 488 q 326 487 328 487 m 431 488 l 406 517 q 406 522 404 519 l 443 553 q 446 555 444 555 l 608 555 q 611 553 608 555 l 635 525 q 635 519 637 521 l 599 488 q 596 487 598 487 l 433 487 q 431 488 432 487 m 83 508 l 109 508 q 111 507 111 508 l 142 472 q 143 469 143 469 l 90 88 q 88 85 88 85 l 33 37 q 27 38 30 35 l 17 50 q 16 53 16 51 l 80 505 q 83 508 80 508 m 149 994 l 164 1006 q 170 1006 167 1009 l 210 959 q 212 956 212 958 l 158 575 q 157 572 157 572 l 113 534 q 110 533 111 533 l 88 533 q 85 534 87 533 q 84 538 84 537 l 148 991 q 149 994 149 994 m 525 95 l 421 347 q 421 347 421 347 q 421 349 421 348 l 437 458 q 440 462 437 462 l 444 462 q 448 460 446 462 l 551 208 q 552 206 552 208 l 536 96 q 532 93 536 93 l 529 93 q 525 95 526 93 z "},"l":{"ha":772,"x_min":185,"x_max":586,"o":"m 326 5 l 329 26 q 330 28 329 27 l 374 66 q 377 68 376 68 l 539 68 q 543 66 541 68 l 583 19 q 583 14 586 16 l 568 1 q 566 0 568 0 l 330 0 q 327 1 328 0 q 326 5 325 3 m 397 975 q 395 974 396 974 l 232 974 q 229 975 231 974 l 189 1023 q 189 1028 185 1025 l 203 1040 q 205 1042 205 1042 l 442 1042 q 445 1040 444 1042 q 446 1037 446 1038 l 443 1015 q 441 1013 443 1015 l 397 975 m 412 954 q 414 956 414 956 l 450 987 q 456 987 453 990 l 480 959 q 481 956 481 958 l 427 575 q 427 572 427 573 l 390 541 q 385 541 387 538 l 360 570 q 359 572 359 571 l 412 954 m 290 85 l 344 467 q 344 468 344 467 q 345 469 345 469 l 382 500 q 387 500 385 503 l 412 472 q 412 469 412 469 l 359 88 q 358 85 359 86 l 321 54 q 316 54 319 52 l 292 83 q 290 85 290 84 z "},"m":{"ha":772,"x_min":16,"x_max":688,"o":"m 326 487 l 163 487 q 161 488 162 487 l 136 517 q 137 522 133 519 l 173 553 q 176 555 174 555 l 338 555 q 341 553 340 555 l 366 525 q 366 519 368 522 l 329 488 q 326 487 328 487 m 431 488 l 406 517 q 406 522 404 519 l 443 553 q 446 555 444 555 l 608 555 q 611 553 608 555 l 635 525 q 635 519 637 521 l 599 488 q 596 487 598 487 l 433 487 q 431 488 432 487 m 83 508 l 109 508 q 111 507 111 508 l 142 472 q 143 469 143 469 l 90 88 q 88 85 88 85 l 33 37 q 27 38 30 35 l 17 50 q 16 53 16 51 l 80 505 q 83 508 80 508 m 290 85 l 344 467 q 344 468 344 467 q 345 469 345 469 l 382 500 q 387 500 385 503 l 412 472 q 412 469 412 469 l 359 88 q 358 85 359 86 l 321 54 q 316 54 319 52 l 292 83 q 290 85 290 84 m 602 35 l 561 83 q 560 85 560 83 l 615 475 q 616 478 615 477 l 659 507 q 661 508 660 508 l 684 508 q 686 507 686 508 q 687 504 688 505 l 623 50 q 622 47 623 49 l 608 35 q 602 35 605 33 z "},"n":{"ha":772,"x_min":16,"x_max":688,"o":"m 326 487 l 163 487 q 161 488 162 487 l 136 517 q 137 522 133 519 l 173 553 q 176 555 174 555 l 338 555 q 341 553 340 555 l 366 525 q 366 519 368 522 l 329 488 q 326 487 328 487 m 431 488 l 406 517 q 406 522 404 519 l 443 553 q 446 555 444 555 l 608 555 q 611 553 608 555 l 635 525 q 635 519 637 521 l 599 488 q 596 487 598 487 l 433 487 q 431 488 432 487 m 83 508 l 109 508 q 111 507 111 508 l 142 472 q 143 469 143 469 l 90 88 q 88 85 88 85 l 33 37 q 27 38 30 35 l 17 50 q 16 53 16 51 l 80 505 q 83 508 80 508 m 602 35 l 561 83 q 560 85 560 83 l 615 475 q 616 478 615 477 l 659 507 q 661 508 660 508 l 684 508 q 686 507 686 508 q 687 504 688 505 l 623 50 q 622 47 623 49 l 608 35 q 602 35 605 33 z "},"o":{"ha":772,"x_min":16,"x_max":688,"o":"m 62 0 q 59 1 60 0 l 49 13 q 50 18 46 16 l 104 66 q 107 68 106 68 l 270 68 q 273 66 271 68 l 303 31 q 304 28 304 31 l 300 3 q 296 0 300 0 l 62 0 m 326 5 l 329 26 q 330 28 329 27 l 374 66 q 377 68 376 68 l 539 68 q 543 66 541 68 l 583 19 q 583 14 586 16 l 568 1 q 566 0 568 0 l 330 0 q 327 1 328 0 q 326 5 325 3 m 326 487 l 163 487 q 161 488 162 487 l 136 517 q 137 522 133 519 l 173 553 q 176 555 174 555 l 338 555 q 341 553 340 555 l 366 525 q 366 519 368 522 l 329 488 q 326 487 328 487 m 431 488 l 406 517 q 406 522 404 519 l 443 553 q 446 555 444 555 l 608 555 q 611 553 608 555 l 635 525 q 635 519 637 521 l 599 488 q 596 487 598 487 l 433 487 q 431 488 432 487 m 83 508 l 109 508 q 111 507 111 508 l 142 472 q 143 469 143 469 l 90 88 q 88 85 88 85 l 33 37 q 27 38 30 35 l 17 50 q 16 53 16 51 l 80 505 q 83 508 80 508 m 602 35 l 561 83 q 560 85 560 83 l 615 475 q 616 478 615 477 l 659 507 q 661 508 660 508 l 684 508 q 686 507 686 508 q 687 504 688 505 l 623 50 q 622 47 623 49 l 608 35 q 602 35 605 33 z "},"p":{"ha":772,"x_min":16,"x_max":755,"o":"m 397 975 q 395 974 396 974 l 232 974 q 229 975 231 974 l 189 1023 q 189 1028 185 1025 l 203 1040 q 205 1042 205 1042 l 442 1042 q 445 1040 444 1042 q 446 1037 446 1038 l 443 1015 q 441 1013 443 1015 l 397 975 m 431 488 l 406 517 q 406 522 404 519 l 443 553 q 446 555 444 555 l 608 555 q 611 553 608 555 l 635 525 q 635 519 637 521 l 599 488 q 596 487 598 487 l 433 487 q 431 488 432 487 m 83 508 l 109 508 q 111 507 111 508 l 142 472 q 143 469 143 469 l 90 88 q 88 85 88 85 l 33 37 q 27 38 30 35 l 17 50 q 16 53 16 51 l 80 505 q 83 508 80 508 m 499 975 l 469 1010 q 468 1013 467 1012 l 471 1038 q 475 1042 471 1042 l 709 1042 q 712 1040 711 1042 l 723 1028 q 722 1023 725 1025 l 667 975 q 665 974 666 974 l 502 974 q 499 975 500 974 m 629 572 l 682 954 q 684 956 682 955 l 739 1004 q 744 1004 741 1006 l 754 991 q 755 989 755 990 l 692 536 q 688 533 692 533 l 663 533 q 660 534 661 533 l 629 570 q 629 572 629 570 m 149 994 l 164 1006 q 170 1006 167 1009 l 210 959 q 212 956 212 958 l 158 575 q 157 572 157 572 l 113 534 q 110 533 111 533 l 88 533 q 85 534 87 533 q 84 538 84 537 l 148 991 q 149 994 149 994 m 324 582 l 220 833 q 220 834 220 833 q 220 836 220 835 l 235 945 q 239 949 235 949 l 243 949 q 246 947 245 949 l 351 695 q 351 694 351 694 q 351 693 351 693 l 335 583 q 332 580 335 580 l 328 580 q 324 582 325 580 z "},"q":{"ha":772,"x_min":84,"x_max":755,"o":"m 397 975 q 395 974 396 974 l 232 974 q 229 975 231 974 l 189 1023 q 189 1028 185 1025 l 203 1040 q 205 1042 205 1042 l 442 1042 q 445 1040 444 1042 q 446 1037 446 1038 l 443 1015 q 441 1013 443 1015 l 397 975 m 326 487 l 163 487 q 161 488 162 487 l 136 517 q 137 522 133 519 l 173 553 q 176 555 174 555 l 338 555 q 341 553 340 555 l 366 525 q 366 519 368 522 l 329 488 q 326 487 328 487 m 499 975 l 469 1010 q 468 1013 467 1012 l 471 1038 q 475 1042 471 1042 l 709 1042 q 712 1040 711 1042 l 723 1028 q 722 1023 725 1025 l 667 975 q 665 974 666 974 l 502 974 q 499 975 500 974 m 629 572 l 682 954 q 684 956 682 955 l 739 1004 q 744 1004 741 1006 l 754 991 q 755 989 755 990 l 692 536 q 688 533 692 533 l 663 533 q 660 534 661 533 l 629 570 q 629 572 629 570 m 602 35 l 561 83 q 560 85 560 83 l 615 475 q 616 478 615 477 l 659 507 q 661 508 660 508 l 684 508 q 686 507 686 508 q 687 504 688 505 l 623 50 q 622 47 623 49 l 608 35 q 602 35 605 33 m 149 994 l 164 1006 q 170 1006 167 1009 l 210 959 q 212 956 212 958 l 158 575 q 157 572 157 572 l 113 534 q 110 533 111 533 l 88 533 q 85 534 87 533 q 84 538 84 537 l 148 991 q 149 994 149 994 m 454 584 l 471 701 q 471 703 471 703 l 641 947 q 644 949 642 949 l 652 949 q 654 947 654 949 q 656 945 656 947 l 639 827 q 638 825 639 826 l 469 581 q 466 580 468 580 l 458 580 q 455 581 456 580 q 454 584 454 583 z "},"r":{"ha":772,"x_min":16,"x_max":637,"o":"m 326 487 l 163 487 q 161 488 162 487 l 136 517 q 137 522 133 519 l 173 553 q 176 555 174 555 l 338 555 q 341 553 340 555 l 366 525 q 366 519 368 522 l 329 488 q 326 487 328 487 m 431 488 l 406 517 q 406 522 404 519 l 443 553 q 446 555 444 555 l 608 555 q 611 553 608 555 l 635 525 q 635 519 637 521 l 599 488 q 596 487 598 487 l 433 487 q 431 488 432 487 m 83 508 l 109 508 q 111 507 111 508 l 142 472 q 143 469 143 469 l 90 88 q 88 85 88 85 l 33 37 q 27 38 30 35 l 17 50 q 16 53 16 51 l 80 505 q 83 508 80 508 z "},"s":{"ha":772,"x_min":46,"x_max":637,"o":"m 62 0 q 59 1 60 0 l 49 13 q 50 18 46 16 l 104 66 q 107 68 106 68 l 270 68 q 273 66 271 68 l 303 31 q 304 28 304 31 l 300 3 q 296 0 300 0 l 62 0 m 326 5 l 329 26 q 330 28 329 27 l 374 66 q 377 68 376 68 l 539 68 q 543 66 541 68 l 583 19 q 583 14 586 16 l 568 1 q 566 0 568 0 l 330 0 q 327 1 328 0 q 326 5 325 3 m 431 488 l 406 517 q 406 522 404 519 l 443 553 q 446 555 444 555 l 608 555 q 611 553 608 555 l 635 525 q 635 519 637 521 l 599 488 q 596 487 598 487 l 433 487 q 431 488 432 487 m 525 95 l 421 347 q 421 347 421 347 q 421 349 421 348 l 437 458 q 440 462 437 462 l 444 462 q 448 460 446 462 l 551 208 q 552 206 552 208 l 536 96 q 532 93 536 93 l 529 93 q 525 95 526 93 z "},"t":{"ha":772,"x_min":133,"x_max":637,"o":"m 326 5 l 329 26 q 330 28 329 27 l 374 66 q 377 68 376 68 l 539 68 q 543 66 541 68 l 583 19 q 583 14 586 16 l 568 1 q 566 0 568 0 l 330 0 q 327 1 328 0 q 326 5 325 3 m 412 954 q 414 956 414 956 l 450 987 q 456 987 453 990 l 480 959 q 481 956 481 958 l 427 575 q 427 572 427 573 l 390 541 q 385 541 387 538 l 360 570 q 359 572 359 571 l 412 954 m 326 487 l 163 487 q 161 488 162 487 l 136 517 q 137 522 133 519 l 173 553 q 176 555 174 555 l 338 555 q 341 553 340 555 l 366 525 q 366 519 368 522 l 329 488 q 326 487 328 487 m 431 488 l 406 517 q 406 522 404 519 l 443 553 q 446 555 444 555 l 608 555 q 611 553 608 555 l 635 525 q 635 519 637 521 l 599 488 q 596 487 598 487 l 433 487 q 431 488 432 487 m 290 85 l 344 467 q 344 468 344 467 q 345 469 345 469 l 382 500 q 387 500 385 503 l 412 472 q 412 469 412 469 l 359 88 q 358 85 359 86 l 321 54 q 316 54 319 52 l 292 83 q 290 85 290 84 z "},"u":{"ha":772,"x_min":16,"x_max":688,"o":"m 62 0 q 59 1 60 0 l 49 13 q 50 18 46 16 l 104 66 q 107 68 106 68 l 270 68 q 273 66 271 68 l 303 31 q 304 28 304 31 l 300 3 q 296 0 300 0 l 62 0 m 326 5 l 329 26 q 330 28 329 27 l 374 66 q 377 68 376 68 l 539 68 q 543 66 541 68 l 583 19 q 583 14 586 16 l 568 1 q 566 0 568 0 l 330 0 q 327 1 328 0 q 326 5 325 3 m 83 508 l 109 508 q 111 507 111 508 l 142 472 q 143 469 143 469 l 90 88 q 88 85 88 85 l 33 37 q 27 38 30 35 l 17 50 q 16 53 16 51 l 80 505 q 83 508 80 508 m 602 35 l 561 83 q 560 85 560 83 l 615 475 q 616 478 615 477 l 659 507 q 661 508 660 508 l 684 508 q 686 507 686 508 q 687 504 688 505 l 623 50 q 622 47 623 49 l 608 35 q 602 35 605 33 z "},"v":{"ha":772,"x_min":16,"x_max":317,"o":"m 83 508 l 109 508 q 111 507 111 508 l 142 472 q 143 469 143 469 l 90 88 q 88 85 88 85 l 33 37 q 27 38 30 35 l 17 50 q 16 53 16 51 l 80 505 q 83 508 80 508 m 116 97 l 132 214 q 133 215 132 214 q 133 216 133 216 l 302 460 q 306 462 304 462 l 314 462 q 317 460 316 462 q 317 458 317 460 l 301 340 q 301 339 301 340 q 300 338 300 338 l 131 94 q 127 93 130 93 l 120 93 q 117 94 117 93 q 116 97 116 95 z "},"w":{"ha":772,"x_min":16,"x_max":688,"o":"m 83 508 l 109 508 q 111 507 111 508 l 142 472 q 143 469 143 469 l 90 88 q 88 85 88 85 l 33 37 q 27 38 30 35 l 17 50 q 16 53 16 51 l 80 505 q 83 508 80 508 m 602 35 l 561 83 q 560 85 560 83 l 615 475 q 616 478 615 477 l 659 507 q 661 508 660 508 l 684 508 q 686 507 686 508 q 687 504 688 505 l 623 50 q 622 47 623 49 l 608 35 q 602 35 605 33 m 116 97 l 132 214 q 133 215 132 214 q 133 216 133 216 l 302 460 q 306 462 304 462 l 314 462 q 317 460 316 462 q 317 458 317 460 l 301 340 q 301 339 301 340 q 300 338 300 338 l 131 94 q 127 93 130 93 l 120 93 q 117 94 117 93 q 116 97 116 95 m 525 95 l 421 347 q 421 347 421 347 q 421 349 421 348 l 437 458 q 440 462 437 462 l 444 462 q 448 460 446 462 l 551 208 q 552 206 552 208 l 536 96 q 532 93 536 93 l 529 93 q 525 95 526 93 z "},"x":{"ha":772,"x_min":116,"x_max":637,"o":"m 326 487 l 163 487 q 161 488 162 487 l 136 517 q 137 522 133 519 l 173 553 q 176 555 174 555 l 338 555 q 341 553 340 555 l 366 525 q 366 519 368 522 l 329 488 q 326 487 328 487 m 431 488 l 406 517 q 406 522 404 519 l 443 553 q 446 555 444 555 l 608 555 q 611 553 608 555 l 635 525 q 635 519 637 521 l 599 488 q 596 487 598 487 l 433 487 q 431 488 432 487 m 116 97 l 132 214 q 133 215 132 214 q 133 216 133 216 l 302 460 q 306 462 304 462 l 314 462 q 317 460 316 462 q 317 458 317 460 l 301 340 q 301 339 301 340 q 300 338 300 338 l 131 94 q 127 93 130 93 l 120 93 q 117 94 117 93 q 116 97 116 95 m 525 95 l 421 347 q 421 347 421 347 q 421 349 421 348 l 437 458 q 440 462 437 462 l 444 462 q 448 460 446 462 l 551 208 q 552 206 552 208 l 536 96 q 532 93 536 93 l 529 93 q 525 95 526 93 z "},"y":{"ha":772,"x_min":46,"x_max":688,"o":"m 62 0 q 59 1 60 0 l 49 13 q 50 18 46 16 l 104 66 q 107 68 106 68 l 270 68 q 273 66 271 68 l 303 31 q 304 28 304 31 l 300 3 q 296 0 300 0 l 62 0 m 326 5 l 329 26 q 330 28 329 27 l 374 66 q 377 68 376 68 l 539 68 q 543 66 541 68 l 583 19 q 583 14 586 16 l 568 1 q 566 0 568 0 l 330 0 q 327 1 328 0 q 326 5 325 3 m 602 35 l 561 83 q 560 85 560 83 l 615 475 q 616 478 615 477 l 659 507 q 661 508 660 508 l 684 508 q 686 507 686 508 q 687 504 688 505 l 623 50 q 622 47 623 49 l 608 35 q 602 35 605 33 m 525 95 l 421 347 q 421 347 421 347 q 421 349 421 348 l 437 458 q 440 462 437 462 l 444 462 q 448 460 446 462 l 551 208 q 552 206 552 208 l 536 96 q 532 93 536 93 l 529 93 q 525 95 526 93 z "},"z":{"ha":772,"x_min":46,"x_max":586,"o":"m 62 0 q 59 1 60 0 l 49 13 q 50 18 46 16 l 104 66 q 107 68 106 68 l 270 68 q 273 66 271 68 l 303 31 q 304 28 304 31 l 300 3 q 296 0 300 0 l 62 0 m 326 5 l 329 26 q 330 28 329 27 l 374 66 q 377 68 376 68 l 539 68 q 543 66 541 68 l 583 19 q 583 14 586 16 l 568 1 q 566 0 568 0 l 330 0 q 327 1 328 0 q 326 5 325 3 m 326 487 l 163 487 q 161 488 162 487 l 136 517 q 137 522 133 519 l 173 553 q 176 555 174 555 l 338 555 q 341 553 340 555 l 366 525 q 366 519 368 522 l 329 488 q 326 487 328 487 m 116 97 l 132 214 q 133 215 132 214 q 133 216 133 216 l 302 460 q 306 462 304 462 l 314 462 q 317 460 316 462 q 317 458 317 460 l 301 340 q 301 339 301 340 q 300 338 300 338 l 131 94 q 127 93 130 93 l 120 93 q 117 94 117 93 q 116 97 116 95 z "},"{":{"ha":772,"x_min":133,"x_max":725,"o":"m 326 5 l 329 26 q 330 28 329 27 l 374 66 q 377 68 376 68 l 539 68 q 543 66 541 68 l 583 19 q 583 14 586 16 l 568 1 q 566 0 568 0 l 330 0 q 327 1 328 0 q 326 5 325 3 m 412 954 q 414 956 414 956 l 450 987 q 456 987 453 990 l 480 959 q 481 956 481 958 l 427 575 q 427 572 427 573 l 390 541 q 385 541 387 538 l 360 570 q 359 572 359 571 l 412 954 m 326 487 l 163 487 q 161 488 162 487 l 136 517 q 137 522 133 519 l 173 553 q 176 555 174 555 l 338 555 q 341 553 340 555 l 366 525 q 366 519 368 522 l 329 488 q 326 487 328 487 m 290 85 l 344 467 q 344 468 344 467 q 345 469 345 469 l 382 500 q 387 500 385 503 l 412 472 q 412 469 412 469 l 359 88 q 358 85 359 86 l 321 54 q 316 54 319 52 l 292 83 q 290 85 290 84 m 499 975 l 469 1010 q 468 1013 467 1012 l 471 1038 q 475 1042 471 1042 l 709 1042 q 712 1040 711 1042 l 723 1028 q 722 1023 725 1025 l 667 975 q 665 974 666 974 l 502 974 q 499 975 500 974 z "},"|":{"ha":772,"x_min":290,"x_max":481,"o":"m 412 954 q 414 956 414 956 l 450 987 q 456 987 453 990 l 480 959 q 481 956 481 958 l 427 575 q 427 572 427 573 l 390 541 q 385 541 387 538 l 360 570 q 359 572 359 571 l 412 954 m 290 85 l 344 467 q 344 468 344 467 q 345 469 345 469 l 382 500 q 387 500 385 503 l 412 472 q 412 469 412 469 l 359 88 q 358 85 359 86 l 321 54 q 316 54 319 52 l 292 83 q 290 85 290 84 z "},"}":{"ha":772,"x_min":46,"x_max":637,"o":"m 62 0 q 59 1 60 0 l 49 13 q 50 18 46 16 l 104 66 q 107 68 106 68 l 270 68 q 273 66 271 68 l 303 31 q 304 28 304 31 l 300 3 q 296 0 300 0 l 62 0 m 397 975 q 395 974 396 974 l 232 974 q 229 975 231 974 l 189 1023 q 189 1028 185 1025 l 203 1040 q 205 1042 205 1042 l 442 1042 q 445 1040 444 1042 q 446 1037 446 1038 l 443 1015 q 441 1013 443 1015 l 397 975 m 412 954 q 414 956 414 956 l 450 987 q 456 987 453 990 l 480 959 q 481 956 481 958 l 427 575 q 427 572 427 573 l 390 541 q 385 541 387 538 l 360 570 q 359 572 359 571 l 412 954 m 431 488 l 406 517 q 406 522 404 519 l 443 553 q 446 555 444 555 l 608 555 q 611 553 608 555 l 635 525 q 635 519 637 521 l 599 488 q 596 487 598 487 l 433 487 q 431 488 432 487 m 290 85 l 344 467 q 344 468 344 467 q 345 469 345 469 l 382 500 q 387 500 385 503 l 412 472 q 412 469 412 469 l 359 88 q 358 85 359 86 l 321 54 q 316 54 319 52 l 292 83 q 290 85 290 84 z "},"~":{"ha":772,"x_min":84,"x_max":755,"o":"m 397 975 q 395 974 396 974 l 232 974 q 229 975 231 974 l 189 1023 q 189 1028 185 1025 l 203 1040 q 205 1042 205 1042 l 442 1042 q 445 1040 444 1042 q 446 1037 446 1038 l 443 1015 q 441 1013 443 1015 l 397 975 m 412 954 q 414 956 414 956 l 450 987 q 456 987 453 990 l 480 959 q 481 956 481 958 l 427 575 q 427 572 427 573 l 390 541 q 385 541 387 538 l 360 570 q 359 572 359 571 l 412 954 m 431 488 l 406 517 q 406 522 404 519 l 443 553 q 446 555 444 555 l 608 555 q 611 553 608 555 l 635 525 q 635 519 637 521 l 599 488 q 596 487 598 487 l 433 487 q 431 488 432 487 m 629 572 l 682 954 q 684 956 682 955 l 739 1004 q 744 1004 741 1006 l 754 991 q 755 989 755 990 l 692 536 q 688 533 692 533 l 663 533 q 660 534 661 533 l 629 570 q 629 572 629 570 m 149 994 l 164 1006 q 170 1006 167 1009 l 210 959 q 212 956 212 958 l 158 575 q 157 572 157 572 l 113 534 q 110 533 111 533 l 88 533 q 85 534 87 533 q 84 538 84 537 l 148 991 q 149 994 149 994 z "},"":{"ha":772,"x_min":133,"x_max":725,"o":"m 326 5 l 329 26 q 330 28 329 27 l 374 66 q 377 68 376 68 l 539 68 q 543 66 541 68 l 583 19 q 583 14 586 16 l 568 1 q 566 0 568 0 l 330 0 q 327 1 328 0 q 326 5 325 3 m 412 954 q 414 956 414 956 l 450 987 q 456 987 453 990 l 480 959 q 481 956 481 958 l 427 575 q 427 572 427 573 l 390 541 q 385 541 387 538 l 360 570 q 359 572 359 571 l 412 954 m 326 487 l 163 487 q 161 488 162 487 l 136 517 q 137 522 133 519 l 173 553 q 176 555 174 555 l 338 555 q 341 553 340 555 l 366 525 q 366 519 368 522 l 329 488 q 326 487 328 487 m 431 488 l 406 517 q 406 522 404 519 l 443 553 q 446 555 444 555 l 608 555 q 611 553 608 555 l 635 525 q 635 519 637 521 l 599 488 q 596 487 598 487 l 433 487 q 431 488 432 487 m 290 85 l 344 467 q 344 468 344 467 q 345 469 345 469 l 382 500 q 387 500 385 503 l 412 472 q 412 469 412 469 l 359 88 q 358 85 359 86 l 321 54 q 316 54 319 52 l 292 83 q 290 85 290 84 m 499 975 l 469 1010 q 468 1013 467 1012 l 471 1038 q 475 1042 471 1042 l 709 1042 q 712 1040 711 1042 l 723 1028 q 722 1023 725 1025 l 667 975 q 665 974 666 974 l 502 974 q 499 975 500 974 z "},"":{"ha":772,"x_min":116,"x_max":317,"o":"m 116 97 l 132 214 q 133 215 132 214 q 133 216 133 216 l 302 460 q 306 462 304 462 l 314 462 q 317 460 316 462 q 317 458 317 460 l 301 340 q 301 339 301 340 q 300 338 300 338 l 131 94 q 127 93 130 93 l 120 93 q 117 94 117 93 q 116 97 116 95 z "},"":{"ha":772,"x_min":46,"x_max":725,"o":"m 62 0 q 59 1 60 0 l 49 13 q 50 18 46 16 l 104 66 q 107 68 106 68 l 270 68 q 273 66 271 68 l 303 31 q 304 28 304 31 l 300 3 q 296 0 300 0 l 62 0 m 412 954 q 414 956 414 956 l 450 987 q 456 987 453 990 l 480 959 q 481 956 481 958 l 427 575 q 427 572 427 573 l 390 541 q 385 541 387 538 l 360 570 q 359 572 359 571 l 412 954 m 326 487 l 163 487 q 161 488 162 487 l 136 517 q 137 522 133 519 l 173 553 q 176 555 174 555 l 338 555 q 341 553 340 555 l 366 525 q 366 519 368 522 l 329 488 q 326 487 328 487 m 431 488 l 406 517 q 406 522 404 519 l 443 553 q 446 555 444 555 l 608 555 q 611 553 608 555 l 635 525 q 635 519 637 521 l 599 488 q 596 487 598 487 l 433 487 q 431 488 432 487 m 290 85 l 344 467 q 344 468 344 467 q 345 469 345 469 l 382 500 q 387 500 385 503 l 412 472 q 412 469 412 469 l 359 88 q 358 85 359 86 l 321 54 q 316 54 319 52 l 292 83 q 290 85 290 84 m 499 975 l 469 1010 q 468 1013 467 1012 l 471 1038 q 475 1042 471 1042 l 709 1042 q 712 1040 711 1042 l 723 1028 q 722 1023 725 1025 l 667 975 q 665 974 666 974 l 502 974 q 499 975 500 974 z "},"":{"ha":772,"x_min":116,"x_max":688,"o":"m 602 35 l 561 83 q 560 85 560 83 l 615 475 q 616 478 615 477 l 659 507 q 661 508 660 508 l 684 508 q 686 507 686 508 q 687 504 688 505 l 623 50 q 622 47 623 49 l 608 35 q 602 35 605 33 m 116 97 l 132 214 q 133 215 132 214 q 133 216 133 216 l 302 460 q 306 462 304 462 l 314 462 q 317 460 316 462 q 317 458 317 460 l 301 340 q 301 339 301 340 q 300 338 300 338 l 131 94 q 127 93 130 93 l 120 93 q 117 94 117 93 q 116 97 116 95 z "},"":{"ha":772,"x_min":16,"x_max":688,"o":"m 83 508 l 109 508 q 111 507 111 508 l 142 472 q 143 469 143 469 l 90 88 q 88 85 88 85 l 33 37 q 27 38 30 35 l 17 50 q 16 53 16 51 l 80 505 q 83 508 80 508 m 290 85 l 344 467 q 344 468 344 467 q 345 469 345 469 l 382 500 q 387 500 385 503 l 412 472 q 412 469 412 469 l 359 88 q 358 85 359 86 l 321 54 q 316 54 319 52 l 292 83 q 290 85 290 84 m 602 35 l 561 83 q 560 85 560 83 l 615 475 q 616 478 615 477 l 659 507 q 661 508 660 508 l 684 508 q 686 507 686 508 q 687 504 688 505 l 623 50 q 622 47 623 49 l 608 35 q 602 35 605 33 z "},"":{"ha":772,"x_min":133,"x_max":637,"o":"m 412 954 q 414 956 414 956 l 450 987 q 456 987 453 990 l 480 959 q 481 956 481 958 l 427 575 q 427 572 427 573 l 390 541 q 385 541 387 538 l 360 570 q 359 572 359 571 l 412 954 m 326 487 l 163 487 q 161 488 162 487 l 136 517 q 137 522 133 519 l 173 553 q 176 555 174 555 l 338 555 q 341 553 340 555 l 366 525 q 366 519 368 522 l 329 488 q 326 487 328 487 m 431 488 l 406 517 q 406 522 404 519 l 443 553 q 446 555 444 555 l 608 555 q 611 553 608 555 l 635 525 q 635 519 637 521 l 599 488 q 596 487 598 487 l 433 487 q 431 488 432 487 m 290 85 l 344 467 q 344 468 344 467 q 345 469 345 469 l 382 500 q 387 500 385 503 l 412 472 q 412 469 412 469 l 359 88 q 358 85 359 86 l 321 54 q 316 54 319 52 l 292 83 q 290 85 290 84 z "},"":{"ha":772,"x_min":84,"x_max":351,"o":"m 149 994 l 164 1006 q 170 1006 167 1009 l 210 959 q 212 956 212 958 l 158 575 q 157 572 157 572 l 113 534 q 110 533 111 533 l 88 533 q 85 534 87 533 q 84 538 84 537 l 148 991 q 149 994 149 994 m 324 582 l 220 833 q 220 834 220 833 q 220 836 220 835 l 235 945 q 239 949 235 949 l 243 949 q 246 947 245 949 l 351 695 q 351 694 351 694 q 351 693 351 693 l 335 583 q 332 580 335 580 l 328 580 q 324 582 325 580 z "},"":{"ha":772,"x_min":84,"x_max":688,"o":"m 290 85 l 344 467 q 344 468 344 467 q 345 469 345 469 l 382 500 q 387 500 385 503 l 412 472 q 412 469 412 469 l 359 88 q 358 85 359 86 l 321 54 q 316 54 319 52 l 292 83 q 290 85 290 84 m 602 35 l 561 83 q 560 85 560 83 l 615 475 q 616 478 615 477 l 659 507 q 661 508 660 508 l 684 508 q 686 507 686 508 q 687 504 688 505 l 623 50 q 622 47 623 49 l 608 35 q 602 35 605 33 m 149 994 l 164 1006 q 170 1006 167 1009 l 210 959 q 212 956 212 958 l 158 575 q 157 572 157 572 l 113 534 q 110 533 111 533 l 88 533 q 85 534 87 533 q 84 538 84 537 l 148 991 q 149 994 149 994 m 116 97 l 132 214 q 133 215 132 214 q 133 216 133 216 l 302 460 q 306 462 304 462 l 314 462 q 317 460 316 462 q 317 458 317 460 l 301 340 q 301 339 301 340 q 300 338 300 338 l 131 94 q 127 93 130 93 l 120 93 q 117 94 117 93 q 116 97 116 95 m 454 584 l 471 701 q 471 703 471 703 l 641 947 q 644 949 642 949 l 652 949 q 654 947 654 949 q 656 945 656 947 l 639 827 q 638 825 639 826 l 469 581 q 466 580 468 580 l 458 580 q 455 581 456 580 q 454 584 454 583 z "},"":{"ha":772,"x_min":404,"x_max":656,"o":"m 454 584 l 471 701 q 471 703 471 703 l 641 947 q 644 949 642 949 l 652 949 q 654 947 654 949 q 656 945 656 947 l 639 827 q 638 825 639 826 l 469 581 q 466 580 468 580 l 458 580 q 455 581 456 580 q 454 584 454 583 m 431 488 l 406 517 q 406 522 404 519 l 443 553 q 446 555 444 555 l 608 555 q 611 553 608 555 l 635 525 q 635 519 637 521 l 599 488 q 596 487 598 487 l 433 487 q 431 488 432 487 z "},"":{"ha":772,"x_min":220,"x_max":351,"o":"m 324 582 l 220 833 q 220 834 220 833 q 220 836 220 835 l 235 945 q 239 949 235 949 l 243 949 q 246 947 245 949 l 351 695 q 351 694 351 694 q 351 693 351 693 l 335 583 q 332 580 335 580 l 328 580 q 324 582 325 580 z "},"":{"ha":772,"x_min":454,"x_max":656,"o":"m 454 584 l 471 701 q 471 703 471 703 l 641 947 q 644 949 642 949 l 652 949 q 654 947 654 949 q 656 945 656 947 l 639 827 q 638 825 639 826 l 469 581 q 466 580 468 580 l 458 580 q 455 581 456 580 q 454 584 454 583 z "},"":{"ha":772,"x_min":220,"x_max":755,"o":"m 629 572 l 682 954 q 684 956 682 955 l 739 1004 q 744 1004 741 1006 l 754 991 q 755 989 755 990 l 692 536 q 688 533 692 533 l 663 533 q 660 534 661 533 l 629 570 q 629 572 629 570 m 324 582 l 220 833 q 220 834 220 833 q 220 836 220 835 l 235 945 q 239 949 235 949 l 243 949 q 246 947 245 949 l 351 695 q 351 694 351 694 q 351 693 351 693 l 335 583 q 332 580 335 580 l 328 580 q 324 582 325 580 z "},"":{"ha":772,"x_min":84,"x_max":656,"o":"m 149 994 l 164 1006 q 170 1006 167 1009 l 210 959 q 212 956 212 958 l 158 575 q 157 572 157 572 l 113 534 q 110 533 111 533 l 88 533 q 85 534 87 533 q 84 538 84 537 l 148 991 q 149 994 149 994 m 454 584 l 471 701 q 471 703 471 703 l 641 947 q 644 949 642 949 l 652 949 q 654 947 654 949 q 656 945 656 947 l 639 827 q 638 825 639 826 l 469 581 q 466 580 468 580 l 458 580 q 455 581 456 580 q 454 584 454 583 z "},"":{"ha":772,"x_min":133,"x_max":637,"o":"m 326 487 l 163 487 q 161 488 162 487 l 136 517 q 137 522 133 519 l 173 553 q 176 555 174 555 l 338 555 q 341 553 340 555 l 366 525 q 366 519 368 522 l 329 488 q 326 487 328 487 m 431 488 l 406 517 q 406 522 404 519 l 443 553 q 446 555 444 555 l 608 555 q 611 553 608 555 l 635 525 q 635 519 637 521 l 599 488 q 596 487 598 487 l 433 487 q 431 488 432 487 z "},"":{"ha":772,"x_min":133,"x_max":637,"o":"m 326 487 l 163 487 q 161 488 162 487 l 136 517 q 137 522 133 519 l 173 553 q 176 555 174 555 l 338 555 q 341 553 340 555 l 366 525 q 366 519 368 522 l 329 488 q 326 487 328 487 m 431 488 l 406 517 q 406 522 404 519 l 443 553 q 446 555 444 555 l 608 555 q 611 553 608 555 l 635 525 q 635 519 637 521 l 599 488 q 596 487 598 487 l 433 487 q 431 488 432 487 z "},"":{"ha":772,"x_min":84,"x_max":656,"o":"m 149 994 l 164 1006 q 170 1006 167 1009 l 210 959 q 212 956 212 958 l 158 575 q 157 572 157 572 l 113 534 q 110 533 111 533 l 88 533 q 85 534 87 533 q 84 538 84 537 l 148 991 q 149 994 149 994 m 324 582 l 220 833 q 220 834 220 833 q 220 836 220 835 l 235 945 q 239 949 235 949 l 243 949 q 246 947 245 949 l 351 695 q 351 694 351 694 q 351 693 351 693 l 335 583 q 332 580 335 580 l 328 580 q 324 582 325 580 m 454 584 l 471 701 q 471 703 471 703 l 641 947 q 644 949 642 949 l 652 949 q 654 947 654 949 q 656 945 656 947 l 639 827 q 638 825 639 826 l 469 581 q 466 580 468 580 l 458 580 q 455 581 456 580 q 454 584 454 583 z "},"":{"ha":772,"x_min":185,"x_max":725,"o":"m 397 975 q 395 974 396 974 l 232 974 q 229 975 231 974 l 189 1023 q 189 1028 185 1025 l 203 1040 q 205 1042 205 1042 l 442 1042 q 445 1040 444 1042 q 446 1037 446 1038 l 443 1015 q 441 1013 443 1015 l 397 975 m 412 954 q 414 956 414 956 l 450 987 q 456 987 453 990 l 480 959 q 481 956 481 958 l 427 575 q 427 572 427 573 l 390 541 q 385 541 387 538 l 360 570 q 359 572 359 571 l 412 954 m 499 975 l 469 1010 q 468 1013 467 1012 l 471 1038 q 475 1042 471 1042 l 709 1042 q 712 1040 711 1042 l 723 1028 q 722 1023 725 1025 l 667 975 q 665 974 666 974 l 502 974 q 499 975 500 974 z "},"":{"ha":772,"x_min":46,"x_max":725,"o":"m 62 0 q 59 1 60 0 l 49 13 q 50 18 46 16 l 104 66 q 107 68 106 68 l 270 68 q 273 66 271 68 l 303 31 q 304 28 304 31 l 300 3 q 296 0 300 0 l 62 0 m 326 5 l 329 26 q 330 28 329 27 l 374 66 q 377 68 376 68 l 539 68 q 543 66 541 68 l 583 19 q 583 14 586 16 l 568 1 q 566 0 568 0 l 330 0 q 327 1 328 0 q 326 5 325 3 m 431 488 l 406 517 q 406 522 404 519 l 443 553 q 446 555 444 555 l 608 555 q 611 553 608 555 l 635 525 q 635 519 637 521 l 599 488 q 596 487 598 487 l 433 487 q 431 488 432 487 m 499 975 l 469 1010 q 468 1013 467 1012 l 471 1038 q 475 1042 471 1042 l 709 1042 q 712 1040 711 1042 l 723 1028 q 722 1023 725 1025 l 667 975 q 665 974 666 974 l 502 974 q 499 975 500 974 m 525 95 l 421 347 q 421 347 421 347 q 421 349 421 348 l 437 458 q 440 462 437 462 l 444 462 q 448 460 446 462 l 551 208 q 552 206 552 208 l 536 96 q 532 93 536 93 l 529 93 q 525 95 526 93 z "},"":{"ha":772,"x_min":133,"x_max":368,"o":"m 326 487 l 163 487 q 161 488 162 487 l 136 517 q 137 522 133 519 l 173 553 q 176 555 174 555 l 338 555 q 341 553 340 555 l 366 525 q 366 519 368 522 l 329 488 q 326 487 328 487 m 324 582 l 220 833 q 220 834 220 833 q 220 836 220 835 l 235 945 q 239 949 235 949 l 243 949 q 246 947 245 949 l 351 695 q 351 694 351 694 q 351 693 351 693 l 335 583 q 332 580 335 580 l 328 580 q 324 582 325 580 z "},"":{"ha":772,"x_min":16,"x_max":755,"o":"m 62 0 q 59 1 60 0 l 49 13 q 50 18 46 16 l 104 66 q 107 68 106 68 l 270 68 q 273 66 271 68 l 303 31 q 304 28 304 31 l 300 3 q 296 0 300 0 l 62 0 m 326 5 l 329 26 q 330 28 329 27 l 374 66 q 377 68 376 68 l 539 68 q 543 66 541 68 l 583 19 q 583 14 586 16 l 568 1 q 566 0 568 0 l 330 0 q 327 1 328 0 q 326 5 325 3 m 397 975 q 395 974 396 974 l 232 974 q 229 975 231 974 l 189 1023 q 189 1028 185 1025 l 203 1040 q 205 1042 205 1042 l 442 1042 q 445 1040 444 1042 q 446 1037 446 1038 l 443 1015 q 441 1013 443 1015 l 397 975 m 412 954 q 414 956 414 956 l 450 987 q 456 987 453 990 l 480 959 q 481 956 481 958 l 427 575 q 427 572 427 573 l 390 541 q 385 541 387 538 l 360 570 q 359 572 359 571 l 412 954 m 431 488 l 406 517 q 406 522 404 519 l 443 553 q 446 555 444 555 l 608 555 q 611 553 608 555 l 635 525 q 635 519 637 521 l 599 488 q 596 487 598 487 l 433 487 q 431 488 432 487 m 83 508 l 109 508 q 111 507 111 508 l 142 472 q 143 469 143 469 l 90 88 q 88 85 88 85 l 33 37 q 27 38 30 35 l 17 50 q 16 53 16 51 l 80 505 q 83 508 80 508 m 290 85 l 344 467 q 344 468 344 467 q 345 469 345 469 l 382 500 q 387 500 385 503 l 412 472 q 412 469 412 469 l 359 88 q 358 85 359 86 l 321 54 q 316 54 319 52 l 292 83 q 290 85 290 84 m 499 975 l 469 1010 q 468 1013 467 1012 l 471 1038 q 475 1042 471 1042 l 709 1042 q 712 1040 711 1042 l 723 1028 q 722 1023 725 1025 l 667 975 q 665 974 666 974 l 502 974 q 499 975 500 974 m 629 572 l 682 954 q 684 956 682 955 l 739 1004 q 744 1004 741 1006 l 754 991 q 755 989 755 990 l 692 536 q 688 533 692 533 l 663 533 q 660 534 661 533 l 629 570 q 629 572 629 570 m 149 994 l 164 1006 q 170 1006 167 1009 l 210 959 q 212 956 212 958 l 158 575 q 157 572 157 572 l 113 534 q 110 533 111 533 l 88 533 q 85 534 87 533 q 84 538 84 537 l 148 991 q 149 994 149 994 z "},"":{"ha":772,"x_min":46,"x_max":586,"o":"m 62 0 q 59 1 60 0 l 49 13 q 50 18 46 16 l 104 66 q 107 68 106 68 l 270 68 q 273 66 271 68 l 303 31 q 304 28 304 31 l 300 3 q 296 0 300 0 l 62 0 m 326 5 l 329 26 q 330 28 329 27 l 374 66 q 377 68 376 68 l 539 68 q 543 66 541 68 l 583 19 q 583 14 586 16 l 568 1 q 566 0 568 0 l 330 0 q 327 1 328 0 q 326 5 325 3 m 397 975 q 395 974 396 974 l 232 974 q 229 975 231 974 l 189 1023 q 189 1028 185 1025 l 203 1040 q 205 1042 205 1042 l 442 1042 q 445 1040 444 1042 q 446 1037 446 1038 l 443 1015 q 441 1013 443 1015 l 397 975 m 326 487 l 163 487 q 161 488 162 487 l 136 517 q 137 522 133 519 l 173 553 q 176 555 174 555 l 338 555 q 341 553 340 555 l 366 525 q 366 519 368 522 l 329 488 q 326 487 328 487 m 116 97 l 132 214 q 133 215 132 214 q 133 216 133 216 l 302 460 q 306 462 304 462 l 314 462 q 317 460 316 462 q 317 458 317 460 l 301 340 q 301 339 301 340 q 300 338 300 338 l 131 94 q 127 93 130 93 l 120 93 q 117 94 117 93 q 116 97 116 95 z "},"":{"ha":772,"x_min":46,"x_max":725,"o":"m 62 0 q 59 1 60 0 l 49 13 q 50 18 46 16 l 104 66 q 107 68 106 68 l 270 68 q 273 66 271 68 l 303 31 q 304 28 304 31 l 300 3 q 296 0 300 0 l 62 0 m 326 5 l 329 26 q 330 28 329 27 l 374 66 q 377 68 376 68 l 539 68 q 543 66 541 68 l 583 19 q 583 14 586 16 l 568 1 q 566 0 568 0 l 330 0 q 327 1 328 0 q 326 5 325 3 m 397 975 q 395 974 396 974 l 232 974 q 229 975 231 974 l 189 1023 q 189 1028 185 1025 l 203 1040 q 205 1042 205 1042 l 442 1042 q 445 1040 444 1042 q 446 1037 446 1038 l 443 1015 q 441 1013 443 1015 l 397 975 m 326 487 l 163 487 q 161 488 162 487 l 136 517 q 137 522 133 519 l 173 553 q 176 555 174 555 l 338 555 q 341 553 340 555 l 366 525 q 366 519 368 522 l 329 488 q 326 487 328 487 m 499 975 l 469 1010 q 468 1013 467 1012 l 471 1038 q 475 1042 471 1042 l 709 1042 q 712 1040 711 1042 l 723 1028 q 722 1023 725 1025 l 667 975 q 665 974 666 974 l 502 974 q 499 975 500 974 m 602 35 l 561 83 q 560 85 560 83 l 615 475 q 616 478 615 477 l 659 507 q 661 508 660 508 l 684 508 q 686 507 686 508 q 687 504 688 505 l 623 50 q 622 47 623 49 l 608 35 q 602 35 605 33 m 525 95 l 421 347 q 421 347 421 347 q 421 349 421 348 l 437 458 q 440 462 437 462 l 444 462 q 448 460 446 462 l 551 208 q 552 206 552 208 l 536 96 q 532 93 536 93 l 529 93 q 525 95 526 93 z "},"":{"ha":772,"x_min":46,"x_max":725,"o":"m 62 0 q 59 1 60 0 l 49 13 q 50 18 46 16 l 104 66 q 107 68 106 68 l 270 68 q 273 66 271 68 l 303 31 q 304 28 304 31 l 300 3 q 296 0 300 0 l 62 0 m 290 85 l 344 467 q 344 468 344 467 q 345 469 345 469 l 382 500 q 387 500 385 503 l 412 472 q 412 469 412 469 l 359 88 q 358 85 359 86 l 321 54 q 316 54 319 52 l 292 83 q 290 85 290 84 m 499 975 l 469 1010 q 468 1013 467 1012 l 471 1038 q 475 1042 471 1042 l 709 1042 q 712 1040 711 1042 l 723 1028 q 722 1023 725 1025 l 667 975 q 665 974 666 974 l 502 974 q 499 975 500 974 m 116 97 l 132 214 q 133 215 132 214 q 133 216 133 216 l 302 460 q 306 462 304 462 l 314 462 q 317 460 316 462 q 317 458 317 460 l 301 340 q 301 339 301 340 q 300 338 300 338 l 131 94 q 127 93 130 93 l 120 93 q 117 94 117 93 q 116 97 116 95 z "},"":{"ha":772,"x_min":16,"x_max":725,"o":"m 62 0 q 59 1 60 0 l 49 13 q 50 18 46 16 l 104 66 q 107 68 106 68 l 270 68 q 273 66 271 68 l 303 31 q 304 28 304 31 l 300 3 q 296 0 300 0 l 62 0 m 326 5 l 329 26 q 330 28 329 27 l 374 66 q 377 68 376 68 l 539 68 q 543 66 541 68 l 583 19 q 583 14 586 16 l 568 1 q 566 0 568 0 l 330 0 q 327 1 328 0 q 326 5 325 3 m 397 975 q 395 974 396 974 l 232 974 q 229 975 231 974 l 189 1023 q 189 1028 185 1025 l 203 1040 q 205 1042 205 1042 l 442 1042 q 445 1040 444 1042 q 446 1037 446 1038 l 443 1015 q 441 1013 443 1015 l 397 975 m 412 954 q 414 956 414 956 l 450 987 q 456 987 453 990 l 480 959 q 481 956 481 958 l 427 575 q 427 572 427 573 l 390 541 q 385 541 387 538 l 360 570 q 359 572 359 571 l 412 954 m 83 508 l 109 508 q 111 507 111 508 l 142 472 q 143 469 143 469 l 90 88 q 88 85 88 85 l 33 37 q 27 38 30 35 l 17 50 q 16 53 16 51 l 80 505 q 83 508 80 508 m 290 85 l 344 467 q 344 468 344 467 q 345 469 345 469 l 382 500 q 387 500 385 503 l 412 472 q 412 469 412 469 l 359 88 q 358 85 359 86 l 321 54 q 316 54 319 52 l 292 83 q 290 85 290 84 m 499 975 l 469 1010 q 468 1013 467 1012 l 471 1038 q 475 1042 471 1042 l 709 1042 q 712 1040 711 1042 l 723 1028 q 722 1023 725 1025 l 667 975 q 665 974 666 974 l 502 974 q 499 975 500 974 m 149 994 l 164 1006 q 170 1006 167 1009 l 210 959 q 212 956 212 958 l 158 575 q 157 572 157 572 l 113 534 q 110 533 111 533 l 88 533 q 85 534 87 533 q 84 538 84 537 l 148 991 q 149 994 149 994 z "},"":{"ha":772,"x_min":46,"x_max":725,"o":"m 62 0 q 59 1 60 0 l 49 13 q 50 18 46 16 l 104 66 q 107 68 106 68 l 270 68 q 273 66 271 68 l 303 31 q 304 28 304 31 l 300 3 q 296 0 300 0 l 62 0 m 326 5 l 329 26 q 330 28 329 27 l 374 66 q 377 68 376 68 l 539 68 q 543 66 541 68 l 583 19 q 583 14 586 16 l 568 1 q 566 0 568 0 l 330 0 q 327 1 328 0 q 326 5 325 3 m 412 954 q 414 956 414 956 l 450 987 q 456 987 453 990 l 480 959 q 481 956 481 958 l 427 575 q 427 572 427 573 l 390 541 q 385 541 387 538 l 360 570 q 359 572 359 571 l 412 954 m 326 487 l 163 487 q 161 488 162 487 l 136 517 q 137 522 133 519 l 173 553 q 176 555 174 555 l 338 555 q 341 553 340 555 l 366 525 q 366 519 368 522 l 329 488 q 326 487 328 487 m 431 488 l 406 517 q 406 522 404 519 l 443 553 q 446 555 444 555 l 608 555 q 611 553 608 555 l 635 525 q 635 519 637 521 l 599 488 q 596 487 598 487 l 433 487 q 431 488 432 487 m 499 975 l 469 1010 q 468 1013 467 1012 l 471 1038 q 475 1042 471 1042 l 709 1042 q 712 1040 711 1042 l 723 1028 q 722 1023 725 1025 l 667 975 q 665 974 666 974 l 502 974 q 499 975 500 974 m 116 97 l 132 214 q 133 215 132 214 q 133 216 133 216 l 302 460 q 306 462 304 462 l 314 462 q 317 460 316 462 q 317 458 317 460 l 301 340 q 301 339 301 340 q 300 338 300 338 l 131 94 q 127 93 130 93 l 120 93 q 117 94 117 93 q 116 97 116 95 z "},"":{"ha":772,"x_min":84,"x_max":755,"o":"m 397 975 q 395 974 396 974 l 232 974 q 229 975 231 974 l 189 1023 q 189 1028 185 1025 l 203 1040 q 205 1042 205 1042 l 442 1042 q 445 1040 444 1042 q 446 1037 446 1038 l 443 1015 q 441 1013 443 1015 l 397 975 m 326 487 l 163 487 q 161 488 162 487 l 136 517 q 137 522 133 519 l 173 553 q 176 555 174 555 l 338 555 q 341 553 340 555 l 366 525 q 366 519 368 522 l 329 488 q 326 487 328 487 m 431 488 l 406 517 q 406 522 404 519 l 443 553 q 446 555 444 555 l 608 555 q 611 553 608 555 l 635 525 q 635 519 637 521 l 599 488 q 596 487 598 487 l 433 487 q 431 488 432 487 m 499 975 l 469 1010 q 468 1013 467 1012 l 471 1038 q 475 1042 471 1042 l 709 1042 q 712 1040 711 1042 l 723 1028 q 722 1023 725 1025 l 667 975 q 665 974 666 974 l 502 974 q 499 975 500 974 m 629 572 l 682 954 q 684 956 682 955 l 739 1004 q 744 1004 741 1006 l 754 991 q 755 989 755 990 l 692 536 q 688 533 692 533 l 663 533 q 660 534 661 533 l 629 570 q 629 572 629 570 m 149 994 l 164 1006 q 170 1006 167 1009 l 210 959 q 212 956 212 958 l 158 575 q 157 572 157 572 l 113 534 q 110 533 111 533 l 88 533 q 85 534 87 533 q 84 538 84 537 l 148 991 q 149 994 149 994 z "},"":{"ha":772,"x_min":133,"x_max":656,"o":"m 326 487 l 163 487 q 161 488 162 487 l 136 517 q 137 522 133 519 l 173 553 q 176 555 174 555 l 338 555 q 341 553 340 555 l 366 525 q 366 519 368 522 l 329 488 q 326 487 328 487 m 431 488 l 406 517 q 406 522 404 519 l 443 553 q 446 555 444 555 l 608 555 q 611 553 608 555 l 635 525 q 635 519 637 521 l 599 488 q 596 487 598 487 l 433 487 q 431 488 432 487 m 290 85 l 344 467 q 344 468 344 467 q 345 469 345 469 l 382 500 q 387 500 385 503 l 412 472 q 412 469 412 469 l 359 88 q 358 85 359 86 l 321 54 q 316 54 319 52 l 292 83 q 290 85 290 84 m 324 582 l 220 833 q 220 834 220 833 q 220 836 220 835 l 235 945 q 239 949 235 949 l 243 949 q 246 947 245 949 l 351 695 q 351 694 351 694 q 351 693 351 693 l 335 583 q 332 580 335 580 l 328 580 q 324 582 325 580 m 454 584 l 471 701 q 471 703 471 703 l 641 947 q 644 949 642 949 l 652 949 q 654 947 654 949 q 656 945 656 947 l 639 827 q 638 825 639 826 l 469 581 q 466 580 468 580 l 458 580 q 455 581 456 580 q 454 584 454 583 z "},"":{"ha":0,"x_min":18,"x_max":86,"o":"m 52 925 q 76 915 66 925 q 86 891 86 905 q 76 867 86 878 q 52 857 66 857 q 28 867 39 857 q 18 891 18 878 q 28 915 18 905 q 52 925 39 925 z "},"":{"ha":772,"x_min":84,"x_max":446,"o":"m 397 975 q 395 974 396 974 l 232 974 q 229 975 231 974 l 189 1023 q 189 1028 185 1025 l 203 1040 q 205 1042 205 1042 l 442 1042 q 445 1040 444 1042 q 446 1037 446 1038 l 443 1015 q 441 1013 443 1015 l 397 975 m 326 487 l 163 487 q 161 488 162 487 l 136 517 q 137 522 133 519 l 173 553 q 176 555 174 555 l 338 555 q 341 553 340 555 l 366 525 q 366 519 368 522 l 329 488 q 326 487 328 487 m 149 994 l 164 1006 q 170 1006 167 1009 l 210 959 q 212 956 212 958 l 158 575 q 157 572 157 572 l 113 534 q 110 533 111 533 l 88 533 q 85 534 87 533 q 84 538 84 537 l 148 991 q 149 994 149 994 m 116 97 l 132 214 q 133 215 132 214 q 133 216 133 216 l 302 460 q 306 462 304 462 l 314 462 q 317 460 316 462 q 317 458 317 460 l 301 340 q 301 339 301 340 q 300 338 300 338 l 131 94 q 127 93 130 93 l 120 93 q 117 94 117 93 q 116 97 116 95 m 324 582 l 220 833 q 220 834 220 833 q 220 836 220 835 l 235 945 q 239 949 235 949 l 243 949 q 246 947 245 949 l 351 695 q 351 694 351 694 q 351 693 351 693 l 335 583 q 332 580 335 580 l 328 580 q 324 582 325 580 z "},"":{"ha":772,"x_min":84,"x_max":481,"o":"m 412 954 q 414 956 414 956 l 450 987 q 456 987 453 990 l 480 959 q 481 956 481 958 l 427 575 q 427 572 427 573 l 390 541 q 385 541 387 538 l 360 570 q 359 572 359 571 l 412 954 m 149 994 l 164 1006 q 170 1006 167 1009 l 210 959 q 212 956 212 958 l 158 575 q 157 572 157 572 l 113 534 q 110 533 111 533 l 88 533 q 85 534 87 533 q 84 538 84 537 l 148 991 q 149 994 149 994 z "},"":{"ha":772,"x_min":359,"x_max":725,"o":"m 412 954 q 414 956 414 956 l 450 987 q 456 987 453 990 l 480 959 q 481 956 481 958 l 427 575 q 427 572 427 573 l 390 541 q 385 541 387 538 l 360 570 q 359 572 359 571 l 412 954 m 431 488 l 406 517 q 406 522 404 519 l 443 553 q 446 555 444 555 l 608 555 q 611 553 608 555 l 635 525 q 635 519 637 521 l 599 488 q 596 487 598 487 l 433 487 q 431 488 432 487 m 499 975 l 469 1010 q 468 1013 467 1012 l 471 1038 q 475 1042 471 1042 l 709 1042 q 712 1040 711 1042 l 723 1028 q 722 1023 725 1025 l 667 975 q 665 974 666 974 l 502 974 q 499 975 500 974 z "},"":{"ha":772,"x_min":404,"x_max":755,"o":"m 431 488 l 406 517 q 406 522 404 519 l 443 553 q 446 555 444 555 l 608 555 q 611 553 608 555 l 635 525 q 635 519 637 521 l 599 488 q 596 487 598 487 l 433 487 q 431 488 432 487 m 499 975 l 469 1010 q 468 1013 467 1012 l 471 1038 q 475 1042 471 1042 l 709 1042 q 712 1040 711 1042 l 723 1028 q 722 1023 725 1025 l 667 975 q 665 974 666 974 l 502 974 q 499 975 500 974 m 629 572 l 682 954 q 684 956 682 955 l 739 1004 q 744 1004 741 1006 l 754 991 q 755 989 755 990 l 692 536 q 688 533 692 533 l 663 533 q 660 534 661 533 l 629 570 q 629 572 629 570 m 454 584 l 471 701 q 471 703 471 703 l 641 947 q 644 949 642 949 l 652 949 q 654 947 654 949 q 656 945 656 947 l 639 827 q 638 825 639 826 l 469 581 q 466 580 468 580 l 458 580 q 455 581 456 580 q 454 584 454 583 z "},"":{"ha":772,"x_min":16,"x_max":656,"o":"m 62 0 q 59 1 60 0 l 49 13 q 50 18 46 16 l 104 66 q 107 68 106 68 l 270 68 q 273 66 271 68 l 303 31 q 304 28 304 31 l 300 3 q 296 0 300 0 l 62 0 m 397 975 q 395 974 396 974 l 232 974 q 229 975 231 974 l 189 1023 q 189 1028 185 1025 l 203 1040 q 205 1042 205 1042 l 442 1042 q 445 1040 444 1042 q 446 1037 446 1038 l 443 1015 q 441 1013 443 1015 l 397 975 m 83 508 l 109 508 q 111 507 111 508 l 142 472 q 143 469 143 469 l 90 88 q 88 85 88 85 l 33 37 q 27 38 30 35 l 17 50 q 16 53 16 51 l 80 505 q 83 508 80 508 m 149 994 l 164 1006 q 170 1006 167 1009 l 210 959 q 212 956 212 958 l 158 575 q 157 572 157 572 l 113 534 q 110 533 111 533 l 88 533 q 85 534 87 533 q 84 538 84 537 l 148 991 q 149 994 149 994 m 525 95 l 421 347 q 421 347 421 347 q 421 349 421 348 l 437 458 q 440 462 437 462 l 444 462 q 448 460 446 462 l 551 208 q 552 206 552 208 l 536 96 q 532 93 536 93 l 529 93 q 525 95 526 93 m 454 584 l 471 701 q 471 703 471 703 l 641 947 q 644 949 642 949 l 652 949 q 654 947 654 949 q 656 945 656 947 l 639 827 q 638 825 639 826 l 469 581 q 466 580 468 580 l 458 580 q 455 581 456 580 q 454 584 454 583 z "},"":{"ha":772,"x_min":133,"x_max":688,"o":"m 326 487 l 163 487 q 161 488 162 487 l 136 517 q 137 522 133 519 l 173 553 q 176 555 174 555 l 338 555 q 341 553 340 555 l 366 525 q 366 519 368 522 l 329 488 q 326 487 328 487 m 431 488 l 406 517 q 406 522 404 519 l 443 553 q 446 555 444 555 l 608 555 q 611 553 608 555 l 635 525 q 635 519 637 521 l 599 488 q 596 487 598 487 l 433 487 q 431 488 432 487 m 602 35 l 561 83 q 560 85 560 83 l 615 475 q 616 478 615 477 l 659 507 q 661 508 660 508 l 684 508 q 686 507 686 508 q 687 504 688 505 l 623 50 q 622 47 623 49 l 608 35 q 602 35 605 33 z "},"":{"ha":772,"x_min":133,"x_max":637,"o":"m 326 487 l 163 487 q 161 488 162 487 l 136 517 q 137 522 133 519 l 173 553 q 176 555 174 555 l 338 555 q 341 553 340 555 l 366 525 q 366 519 368 522 l 329 488 q 326 487 328 487 m 431 488 l 406 517 q 406 522 404 519 l 443 553 q 446 555 444 555 l 608 555 q 611 553 608 555 l 635 525 q 635 519 637 521 l 599 488 q 596 487 598 487 l 433 487 q 431 488 432 487 z "},"":{"ha":772,"x_min":359,"x_max":725,"o":"m 412 954 q 414 956 414 956 l 450 987 q 456 987 453 990 l 480 959 q 481 956 481 958 l 427 575 q 427 572 427 573 l 390 541 q 385 541 387 538 l 360 570 q 359 572 359 571 l 412 954 m 499 975 l 469 1010 q 468 1013 467 1012 l 471 1038 q 475 1042 471 1042 l 709 1042 q 712 1040 711 1042 l 723 1028 q 722 1023 725 1025 l 667 975 q 665 974 666 974 l 502 974 q 499 975 500 974 z "},"":{"ha":772,"x_min":185,"x_max":725,"o":"m 397 975 q 395 974 396 974 l 232 974 q 229 975 231 974 l 189 1023 q 189 1028 185 1025 l 203 1040 q 205 1042 205 1042 l 442 1042 q 445 1040 444 1042 q 446 1037 446 1038 l 443 1015 q 441 1013 443 1015 l 397 975 m 499 975 l 469 1010 q 468 1013 467 1012 l 471 1038 q 475 1042 471 1042 l 709 1042 q 712 1040 711 1042 l 723 1028 q 722 1023 725 1025 l 667 975 q 665 974 666 974 l 502 974 q 499 975 500 974 z "},"":{"ha":772,"x_min":84,"x_max":481,"o":"m 397 975 q 395 974 396 974 l 232 974 q 229 975 231 974 l 189 1023 q 189 1028 185 1025 l 203 1040 q 205 1042 205 1042 l 442 1042 q 445 1040 444 1042 q 446 1037 446 1038 l 443 1015 q 441 1013 443 1015 l 397 975 m 412 954 q 414 956 414 956 l 450 987 q 456 987 453 990 l 480 959 q 481 956 481 958 l 427 575 q 427 572 427 573 l 390 541 q 385 541 387 538 l 360 570 q 359 572 359 571 l 412 954 m 326 487 l 163 487 q 161 488 162 487 l 136 517 q 137 522 133 519 l 173 553 q 176 555 174 555 l 338 555 q 341 553 340 555 l 366 525 q 366 519 368 522 l 329 488 q 326 487 328 487 m 149 994 l 164 1006 q 170 1006 167 1009 l 210 959 q 212 956 212 958 l 158 575 q 157 572 157 572 l 113 534 q 110 533 111 533 l 88 533 q 85 534 87 533 q 84 538 84 537 l 148 991 q 149 994 149 994 z "},"":{"ha":772,"x_min":46,"x_max":637,"o":"m 62 0 q 59 1 60 0 l 49 13 q 50 18 46 16 l 104 66 q 107 68 106 68 l 270 68 q 273 66 271 68 l 303 31 q 304 28 304 31 l 300 3 q 296 0 300 0 l 62 0 m 326 5 l 329 26 q 330 28 329 27 l 374 66 q 377 68 376 68 l 539 68 q 543 66 541 68 l 583 19 q 583 14 586 16 l 568 1 q 566 0 568 0 l 330 0 q 327 1 328 0 q 326 5 325 3 m 412 954 q 414 956 414 956 l 450 987 q 456 987 453 990 l 480 959 q 481 956 481 958 l 427 575 q 427 572 427 573 l 390 541 q 385 541 387 538 l 360 570 q 359 572 359 571 l 412 954 m 326 487 l 163 487 q 161 488 162 487 l 136 517 q 137 522 133 519 l 173 553 q 176 555 174 555 l 338 555 q 341 553 340 555 l 366 525 q 366 519 368 522 l 329 488 q 326 487 328 487 m 431 488 l 406 517 q 406 522 404 519 l 443 553 q 446 555 444 555 l 608 555 q 611 553 608 555 l 635 525 q 635 519 637 521 l 599 488 q 596 487 598 487 l 433 487 q 431 488 432 487 m 290 85 l 344 467 q 344 468 344 467 q 345 469 345 469 l 382 500 q 387 500 385 503 l 412 472 q 412 469 412 469 l 359 88 q 358 85 359 86 l 321 54 q 316 54 319 52 l 292 83 q 290 85 290 84 z "},"":{"ha":772,"x_min":404,"x_max":725,"o":"m 431 488 l 406 517 q 406 522 404 519 l 443 553 q 446 555 444 555 l 608 555 q 611 553 608 555 l 635 525 q 635 519 637 521 l 599 488 q 596 487 598 487 l 433 487 q 431 488 432 487 m 499 975 l 469 1010 q 468 1013 467 1012 l 471 1038 q 475 1042 471 1042 l 709 1042 q 712 1040 711 1042 l 723 1028 q 722 1023 725 1025 l 667 975 q 665 974 666 974 l 502 974 q 499 975 500 974 m 454 584 l 471 701 q 471 703 471 703 l 641 947 q 644 949 642 949 l 652 949 q 654 947 654 949 q 656 945 656 947 l 639 827 q 638 825 639 826 l 469 581 q 466 580 468 580 l 458 580 q 455 581 456 580 q 454 584 454 583 z "},"":{"ha":772,"x_min":404,"x_max":755,"o":"m 431 488 l 406 517 q 406 522 404 519 l 443 553 q 446 555 444 555 l 608 555 q 611 553 608 555 l 635 525 q 635 519 637 521 l 599 488 q 596 487 598 487 l 433 487 q 431 488 432 487 m 499 975 l 469 1010 q 468 1013 467 1012 l 471 1038 q 475 1042 471 1042 l 709 1042 q 712 1040 711 1042 l 723 1028 q 722 1023 725 1025 l 667 975 q 665 974 666 974 l 502 974 q 499 975 500 974 m 629 572 l 682 954 q 684 956 682 955 l 739 1004 q 744 1004 741 1006 l 754 991 q 755 989 755 990 l 692 536 q 688 533 692 533 l 663 533 q 660 534 661 533 l 629 570 q 629 572 629 570 z "},"":{"ha":772,"x_min":454,"x_max":656,"o":"m 454 584 l 471 701 q 471 703 471 703 l 641 947 q 644 949 642 949 l 652 949 q 654 947 654 949 q 656 945 656 947 l 639 827 q 638 825 639 826 l 469 581 q 466 580 468 580 l 458 580 q 455 581 456 580 q 454 584 454 583 z "},"":{"ha":772,"x_min":16,"x_max":755,"o":"m 326 487 l 163 487 q 161 488 162 487 l 136 517 q 137 522 133 519 l 173 553 q 176 555 174 555 l 338 555 q 341 553 340 555 l 366 525 q 366 519 368 522 l 329 488 q 326 487 328 487 m 431 488 l 406 517 q 406 522 404 519 l 443 553 q 446 555 444 555 l 608 555 q 611 553 608 555 l 635 525 q 635 519 637 521 l 599 488 q 596 487 598 487 l 433 487 q 431 488 432 487 m 83 508 l 109 508 q 111 507 111 508 l 142 472 q 143 469 143 469 l 90 88 q 88 85 88 85 l 33 37 q 27 38 30 35 l 17 50 q 16 53 16 51 l 80 505 q 83 508 80 508 m 629 572 l 682 954 q 684 956 682 955 l 739 1004 q 744 1004 741 1006 l 754 991 q 755 989 755 990 l 692 536 q 688 533 692 533 l 663 533 q 660 534 661 533 l 629 570 q 629 572 629 570 m 149 994 l 164 1006 q 170 1006 167 1009 l 210 959 q 212 956 212 958 l 158 575 q 157 572 157 572 l 113 534 q 110 533 111 533 l 88 533 q 85 534 87 533 q 84 538 84 537 l 148 991 q 149 994 149 994 z "},"":{"ha":772,"x_min":84,"x_max":755,"o":"m 397 975 q 395 974 396 974 l 232 974 q 229 975 231 974 l 189 1023 q 189 1028 185 1025 l 203 1040 q 205 1042 205 1042 l 442 1042 q 445 1040 444 1042 q 446 1037 446 1038 l 443 1015 q 441 1013 443 1015 l 397 975 m 412 954 q 414 956 414 956 l 450 987 q 456 987 453 990 l 480 959 q 481 956 481 958 l 427 575 q 427 572 427 573 l 390 541 q 385 541 387 538 l 360 570 q 359 572 359 571 l 412 954 m 326 487 l 163 487 q 161 488 162 487 l 136 517 q 137 522 133 519 l 173 553 q 176 555 174 555 l 338 555 q 341 553 340 555 l 366 525 q 366 519 368 522 l 329 488 q 326 487 328 487 m 290 85 l 344 467 q 344 468 344 467 q 345 469 345 469 l 382 500 q 387 500 385 503 l 412 472 q 412 469 412 469 l 359 88 q 358 85 359 86 l 321 54 q 316 54 319 52 l 292 83 q 290 85 290 84 m 499 975 l 469 1010 q 468 1013 467 1012 l 471 1038 q 475 1042 471 1042 l 709 1042 q 712 1040 711 1042 l 723 1028 q 722 1023 725 1025 l 667 975 q 665 974 666 974 l 502 974 q 499 975 500 974 m 629 572 l 682 954 q 684 956 682 955 l 739 1004 q 744 1004 741 1006 l 754 991 q 755 989 755 990 l 692 536 q 688 533 692 533 l 663 533 q 660 534 661 533 l 629 570 q 629 572 629 570 m 602 35 l 561 83 q 560 85 560 83 l 615 475 q 616 478 615 477 l 659 507 q 661 508 660 508 l 684 508 q 686 507 686 508 q 687 504 688 505 l 623 50 q 622 47 623 49 l 608 35 q 602 35 605 33 m 149 994 l 164 1006 q 170 1006 167 1009 l 210 959 q 212 956 212 958 l 158 575 q 157 572 157 572 l 113 534 q 110 533 111 533 l 88 533 q 85 534 87 533 q 84 538 84 537 l 148 991 q 149 994 149 994 z "},"":{"ha":772,"x_min":133,"x_max":368,"o":"m 326 487 l 163 487 q 161 488 162 487 l 136 517 q 137 522 133 519 l 173 553 q 176 555 174 555 l 338 555 q 341 553 340 555 l 366 525 q 366 519 368 522 l 329 488 q 326 487 328 487 z "},"":{"ha":772,"x_min":325,"x_max":586,"o":"m 326 5 l 329 26 q 330 28 329 27 l 374 66 q 377 68 376 68 l 539 68 q 543 66 541 68 l 583 19 q 583 14 586 16 l 568 1 q 566 0 568 0 l 330 0 q 327 1 328 0 q 326 5 325 3 m 525 95 l 421 347 q 421 347 421 347 q 421 349 421 348 l 437 458 q 440 462 437 462 l 444 462 q 448 460 446 462 l 551 208 q 552 206 552 208 l 536 96 q 532 93 536 93 l 529 93 q 525 95 526 93 z "},"":{"ha":772,"x_min":629,"x_max":755,"o":"m 629 572 l 682 954 q 684 956 682 955 l 739 1004 q 744 1004 741 1006 l 754 991 q 755 989 755 990 l 692 536 q 688 533 692 533 l 663 533 q 660 534 661 533 l 629 570 q 629 572 629 570 z "},"":{"ha":772,"x_min":359,"x_max":755,"o":"m 412 954 q 414 956 414 956 l 450 987 q 456 987 453 990 l 480 959 q 481 956 481 958 l 427 575 q 427 572 427 573 l 390 541 q 385 541 387 538 l 360 570 q 359 572 359 571 l 412 954 m 431 488 l 406 517 q 406 522 404 519 l 443 553 q 446 555 444 555 l 608 555 q 611 553 608 555 l 635 525 q 635 519 637 521 l 599 488 q 596 487 598 487 l 433 487 q 431 488 432 487 m 499 975 l 469 1010 q 468 1013 467 1012 l 471 1038 q 475 1042 471 1042 l 709 1042 q 712 1040 711 1042 l 723 1028 q 722 1023 725 1025 l 667 975 q 665 974 666 974 l 502 974 q 499 975 500 974 m 629 572 l 682 954 q 684 956 682 955 l 739 1004 q 744 1004 741 1006 l 754 991 q 755 989 755 990 l 692 536 q 688 533 692 533 l 663 533 q 660 534 661 533 l 629 570 q 629 572 629 570 z "},"":{"ha":772,"x_min":116,"x_max":755,"o":"m 326 5 l 329 26 q 330 28 329 27 l 374 66 q 377 68 376 68 l 539 68 q 543 66 541 68 l 583 19 q 583 14 586 16 l 568 1 q 566 0 568 0 l 330 0 q 327 1 328 0 q 326 5 325 3 m 499 975 l 469 1010 q 468 1013 467 1012 l 471 1038 q 475 1042 471 1042 l 709 1042 q 712 1040 711 1042 l 723 1028 q 722 1023 725 1025 l 667 975 q 665 974 666 974 l 502 974 q 499 975 500 974 m 629 572 l 682 954 q 684 956 682 955 l 739 1004 q 744 1004 741 1006 l 754 991 q 755 989 755 990 l 692 536 q 688 533 692 533 l 663 533 q 660 534 661 533 l 629 570 q 629 572 629 570 m 602 35 l 561 83 q 560 85 560 83 l 615 475 q 616 478 615 477 l 659 507 q 661 508 660 508 l 684 508 q 686 507 686 508 q 687 504 688 505 l 623 50 q 622 47 623 49 l 608 35 q 602 35 605 33 m 116 97 l 132 214 q 133 215 132 214 q 133 216 133 216 l 302 460 q 306 462 304 462 l 314 462 q 317 460 316 462 q 317 458 317 460 l 301 340 q 301 339 301 340 q 300 338 300 338 l 131 94 q 127 93 130 93 l 120 93 q 117 94 117 93 q 116 97 116 95 m 324 582 l 220 833 q 220 834 220 833 q 220 836 220 835 l 235 945 q 239 949 235 949 l 243 949 q 246 947 245 949 l 351 695 q 351 694 351 694 q 351 693 351 693 l 335 583 q 332 580 335 580 l 328 580 q 324 582 325 580 z "},"":{"ha":772,"x_min":16,"x_max":755,"o":"m 412 954 q 414 956 414 956 l 450 987 q 456 987 453 990 l 480 959 q 481 956 481 958 l 427 575 q 427 572 427 573 l 390 541 q 385 541 387 538 l 360 570 q 359 572 359 571 l 412 954 m 431 488 l 406 517 q 406 522 404 519 l 443 553 q 446 555 444 555 l 608 555 q 611 553 608 555 l 635 525 q 635 519 637 521 l 599 488 q 596 487 598 487 l 433 487 q 431 488 432 487 m 83 508 l 109 508 q 111 507 111 508 l 142 472 q 143 469 143 469 l 90 88 q 88 85 88 85 l 33 37 q 27 38 30 35 l 17 50 q 16 53 16 51 l 80 505 q 83 508 80 508 m 629 572 l 682 954 q 684 956 682 955 l 739 1004 q 744 1004 741 1006 l 754 991 q 755 989 755 990 l 692 536 q 688 533 692 533 l 663 533 q 660 534 661 533 l 629 570 q 629 572 629 570 m 602 35 l 561 83 q 560 85 560 83 l 615 475 q 616 478 615 477 l 659 507 q 661 508 660 508 l 684 508 q 686 507 686 508 q 687 504 688 505 l 623 50 q 622 47 623 49 l 608 35 q 602 35 605 33 m 149 994 l 164 1006 q 170 1006 167 1009 l 210 959 q 212 956 212 958 l 158 575 q 157 572 157 572 l 113 534 q 110 533 111 533 l 88 533 q 85 534 87 533 q 84 538 84 537 l 148 991 q 149 994 149 994 m 116 97 l 132 214 q 133 215 132 214 q 133 216 133 216 l 302 460 q 306 462 304 462 l 314 462 q 317 460 316 462 q 317 458 317 460 l 301 340 q 301 339 301 340 q 300 338 300 338 l 131 94 q 127 93 130 93 l 120 93 q 117 94 117 93 q 116 97 116 95 m 454 584 l 471 701 q 471 703 471 703 l 641 947 q 644 949 642 949 l 652 949 q 654 947 654 949 q 656 945 656 947 l 639 827 q 638 825 639 826 l 469 581 q 466 580 468 580 l 458 580 q 455 581 456 580 q 454 584 454 583 z "},"":{"ha":772,"x_min":16,"x_max":755,"o":"m 326 5 l 329 26 q 330 28 329 27 l 374 66 q 377 68 376 68 l 539 68 q 543 66 541 68 l 583 19 q 583 14 586 16 l 568 1 q 566 0 568 0 l 330 0 q 327 1 328 0 q 326 5 325 3 m 431 488 l 406 517 q 406 522 404 519 l 443 553 q 446 555 444 555 l 608 555 q 611 553 608 555 l 635 525 q 635 519 637 521 l 599 488 q 596 487 598 487 l 433 487 q 431 488 432 487 m 83 508 l 109 508 q 111 507 111 508 l 142 472 q 143 469 143 469 l 90 88 q 88 85 88 85 l 33 37 q 27 38 30 35 l 17 50 q 16 53 16 51 l 80 505 q 83 508 80 508 m 290 85 l 344 467 q 344 468 344 467 q 345 469 345 469 l 382 500 q 387 500 385 503 l 412 472 q 412 469 412 469 l 359 88 q 358 85 359 86 l 321 54 q 316 54 319 52 l 292 83 q 290 85 290 84 m 499 975 l 469 1010 q 468 1013 467 1012 l 471 1038 q 475 1042 471 1042 l 709 1042 q 712 1040 711 1042 l 723 1028 q 722 1023 725 1025 l 667 975 q 665 974 666 974 l 502 974 q 499 975 500 974 m 629 572 l 682 954 q 684 956 682 955 l 739 1004 q 744 1004 741 1006 l 754 991 q 755 989 755 990 l 692 536 q 688 533 692 533 l 663 533 q 660 534 661 533 l 629 570 q 629 572 629 570 m 149 994 l 164 1006 q 170 1006 167 1009 l 210 959 q 212 956 212 958 l 158 575 q 157 572 157 572 l 113 534 q 110 533 111 533 l 88 533 q 85 534 87 533 q 84 538 84 537 l 148 991 q 149 994 149 994 m 116 97 l 132 214 q 133 215 132 214 q 133 216 133 216 l 302 460 q 306 462 304 462 l 314 462 q 317 460 316 462 q 317 458 317 460 l 301 340 q 301 339 301 340 q 300 338 300 338 l 131 94 q 127 93 130 93 l 120 93 q 117 94 117 93 q 116 97 116 95 m 454 584 l 471 701 q 471 703 471 703 l 641 947 q 644 949 642 949 l 652 949 q 654 947 654 949 q 656 945 656 947 l 639 827 q 638 825 639 826 l 469 581 q 466 580 468 580 l 458 580 q 455 581 456 580 q 454 584 454 583 z "},"":{"ha":772,"x_min":46,"x_max":755,"o":"m 62 0 q 59 1 60 0 l 49 13 q 50 18 46 16 l 104 66 q 107 68 106 68 l 270 68 q 273 66 271 68 l 303 31 q 304 28 304 31 l 300 3 q 296 0 300 0 l 62 0 m 397 975 q 395 974 396 974 l 232 974 q 229 975 231 974 l 189 1023 q 189 1028 185 1025 l 203 1040 q 205 1042 205 1042 l 442 1042 q 445 1040 444 1042 q 446 1037 446 1038 l 443 1015 q 441 1013 443 1015 l 397 975 m 412 954 q 414 956 414 956 l 450 987 q 456 987 453 990 l 480 959 q 481 956 481 958 l 427 575 q 427 572 427 573 l 390 541 q 385 541 387 538 l 360 570 q 359 572 359 571 l 412 954 m 326 487 l 163 487 q 161 488 162 487 l 136 517 q 137 522 133 519 l 173 553 q 176 555 174 555 l 338 555 q 341 553 340 555 l 366 525 q 366 519 368 522 l 329 488 q 326 487 328 487 m 431 488 l 406 517 q 406 522 404 519 l 443 553 q 446 555 444 555 l 608 555 q 611 553 608 555 l 635 525 q 635 519 637 521 l 599 488 q 596 487 598 487 l 433 487 q 431 488 432 487 m 290 85 l 344 467 q 344 468 344 467 q 345 469 345 469 l 382 500 q 387 500 385 503 l 412 472 q 412 469 412 469 l 359 88 q 358 85 359 86 l 321 54 q 316 54 319 52 l 292 83 q 290 85 290 84 m 629 572 l 682 954 q 684 956 682 955 l 739 1004 q 744 1004 741 1006 l 754 991 q 755 989 755 990 l 692 536 q 688 533 692 533 l 663 533 q 660 534 661 533 l 629 570 q 629 572 629 570 m 602 35 l 561 83 q 560 85 560 83 l 615 475 q 616 478 615 477 l 659 507 q 661 508 660 508 l 684 508 q 686 507 686 508 q 687 504 688 505 l 623 50 q 622 47 623 49 l 608 35 q 602 35 605 33 m 116 97 l 132 214 q 133 215 132 214 q 133 216 133 216 l 302 460 q 306 462 304 462 l 314 462 q 317 460 316 462 q 317 458 317 460 l 301 340 q 301 339 301 340 q 300 338 300 338 l 131 94 q 127 93 130 93 l 120 93 q 117 94 117 93 q 116 97 116 95 m 454 584 l 471 701 q 471 703 471 703 l 641 947 q 644 949 642 949 l 652 949 q 654 947 654 949 q 656 945 656 947 l 639 827 q 638 825 639 826 l 469 581 q 466 580 468 580 l 458 580 q 455 581 456 580 q 454 584 454 583 z "},"":{"ha":772,"x_min":16,"x_max":586,"o":"m 62 0 q 59 1 60 0 l 49 13 q 50 18 46 16 l 104 66 q 107 68 106 68 l 270 68 q 273 66 271 68 l 303 31 q 304 28 304 31 l 300 3 q 296 0 300 0 l 62 0 m 326 5 l 329 26 q 330 28 329 27 l 374 66 q 377 68 376 68 l 539 68 q 543 66 541 68 l 583 19 q 583 14 586 16 l 568 1 q 566 0 568 0 l 330 0 q 327 1 328 0 q 326 5 325 3 m 412 954 q 414 956 414 956 l 450 987 q 456 987 453 990 l 480 959 q 481 956 481 958 l 427 575 q 427 572 427 573 l 390 541 q 385 541 387 538 l 360 570 q 359 572 359 571 l 412 954 m 326 487 l 163 487 q 161 488 162 487 l 136 517 q 137 522 133 519 l 173 553 q 176 555 174 555 l 338 555 q 341 553 340 555 l 366 525 q 366 519 368 522 l 329 488 q 326 487 328 487 m 83 508 l 109 508 q 111 507 111 508 l 142 472 q 143 469 143 469 l 90 88 q 88 85 88 85 l 33 37 q 27 38 30 35 l 17 50 q 16 53 16 51 l 80 505 q 83 508 80 508 z "},"":{"ha":772,"x_min":116,"x_max":755,"o":"m 397 975 q 395 974 396 974 l 232 974 q 229 975 231 974 l 189 1023 q 189 1028 185 1025 l 203 1040 q 205 1042 205 1042 l 442 1042 q 445 1040 444 1042 q 446 1037 446 1038 l 443 1015 q 441 1013 443 1015 l 397 975 m 431 488 l 406 517 q 406 522 404 519 l 443 553 q 446 555 444 555 l 608 555 q 611 553 608 555 l 635 525 q 635 519 637 521 l 599 488 q 596 487 598 487 l 433 487 q 431 488 432 487 m 629 572 l 682 954 q 684 956 682 955 l 739 1004 q 744 1004 741 1006 l 754 991 q 755 989 755 990 l 692 536 q 688 533 692 533 l 663 533 q 660 534 661 533 l 629 570 q 629 572 629 570 m 602 35 l 561 83 q 560 85 560 83 l 615 475 q 616 478 615 477 l 659 507 q 661 508 660 508 l 684 508 q 686 507 686 508 q 687 504 688 505 l 623 50 q 622 47 623 49 l 608 35 q 602 35 605 33 m 116 97 l 132 214 q 133 215 132 214 q 133 216 133 216 l 302 460 q 306 462 304 462 l 314 462 q 317 460 316 462 q 317 458 317 460 l 301 340 q 301 339 301 340 q 300 338 300 338 l 131 94 q 127 93 130 93 l 120 93 q 117 94 117 93 q 116 97 116 95 m 454 584 l 471 701 q 471 703 471 703 l 641 947 q 644 949 642 949 l 652 949 q 654 947 654 949 q 656 945 656 947 l 639 827 q 638 825 639 826 l 469 581 q 466 580 468 580 l 458 580 q 455 581 456 580 q 454 584 454 583 z "},"":{"ha":772,"x_min":16,"x_max":725,"o":"m 326 487 l 163 487 q 161 488 162 487 l 136 517 q 137 522 133 519 l 173 553 q 176 555 174 555 l 338 555 q 341 553 340 555 l 366 525 q 366 519 368 522 l 329 488 q 326 487 328 487 m 83 508 l 109 508 q 111 507 111 508 l 142 472 q 143 469 143 469 l 90 88 q 88 85 88 85 l 33 37 q 27 38 30 35 l 17 50 q 16 53 16 51 l 80 505 q 83 508 80 508 m 499 975 l 469 1010 q 468 1013 467 1012 l 471 1038 q 475 1042 471 1042 l 709 1042 q 712 1040 711 1042 l 723 1028 q 722 1023 725 1025 l 667 975 q 665 974 666 974 l 502 974 q 499 975 500 974 m 149 994 l 164 1006 q 170 1006 167 1009 l 210 959 q 212 956 212 958 l 158 575 q 157 572 157 572 l 113 534 q 110 533 111 533 l 88 533 q 85 534 87 533 q 84 538 84 537 l 148 991 q 149 994 149 994 m 525 95 l 421 347 q 421 347 421 347 q 421 349 421 348 l 437 458 q 440 462 437 462 l 444 462 q 448 460 446 462 l 551 208 q 552 206 552 208 l 536 96 q 532 93 536 93 l 529 93 q 525 95 526 93 m 324 582 l 220 833 q 220 834 220 833 q 220 836 220 835 l 235 945 q 239 949 235 949 l 243 949 q 246 947 245 949 l 351 695 q 351 694 351 694 q 351 693 351 693 l 335 583 q 332 580 335 580 l 328 580 q 324 582 325 580 z "},"":{"ha":772,"x_min":116,"x_max":755,"o":"m 397 975 q 395 974 396 974 l 232 974 q 229 975 231 974 l 189 1023 q 189 1028 185 1025 l 203 1040 q 205 1042 205 1042 l 442 1042 q 445 1040 444 1042 q 446 1037 446 1038 l 443 1015 q 441 1013 443 1015 l 397 975 m 431 488 l 406 517 q 406 522 404 519 l 443 553 q 446 555 444 555 l 608 555 q 611 553 608 555 l 635 525 q 635 519 637 521 l 599 488 q 596 487 598 487 l 433 487 q 431 488 432 487 m 499 975 l 469 1010 q 468 1013 467 1012 l 471 1038 q 475 1042 471 1042 l 709 1042 q 712 1040 711 1042 l 723 1028 q 722 1023 725 1025 l 667 975 q 665 974 666 974 l 502 974 q 499 975 500 974 m 629 572 l 682 954 q 684 956 682 955 l 739 1004 q 744 1004 741 1006 l 754 991 q 755 989 755 990 l 692 536 q 688 533 692 533 l 663 533 q 660 534 661 533 l 629 570 q 629 572 629 570 m 602 35 l 561 83 q 560 85 560 83 l 615 475 q 616 478 615 477 l 659 507 q 661 508 660 508 l 684 508 q 686 507 686 508 q 687 504 688 505 l 623 50 q 622 47 623 49 l 608 35 q 602 35 605 33 m 116 97 l 132 214 q 133 215 132 214 q 133 216 133 216 l 302 460 q 306 462 304 462 l 314 462 q 317 460 316 462 q 317 458 317 460 l 301 340 q 301 339 301 340 q 300 338 300 338 l 131 94 q 127 93 130 93 l 120 93 q 117 94 117 93 q 116 97 116 95 m 454 584 l 471 701 q 471 703 471 703 l 641 947 q 644 949 642 949 l 652 949 q 654 947 654 949 q 656 945 656 947 l 639 827 q 638 825 639 826 l 469 581 q 466 580 468 580 l 458 580 q 455 581 456 580 q 454 584 454 583 z "},"":{"ha":772,"x_min":116,"x_max":755,"o":"m 397 975 q 395 974 396 974 l 232 974 q 229 975 231 974 l 189 1023 q 189 1028 185 1025 l 203 1040 q 205 1042 205 1042 l 442 1042 q 445 1040 444 1042 q 446 1037 446 1038 l 443 1015 q 441 1013 443 1015 l 397 975 m 431 488 l 406 517 q 406 522 404 519 l 443 553 q 446 555 444 555 l 608 555 q 611 553 608 555 l 635 525 q 635 519 637 521 l 599 488 q 596 487 598 487 l 433 487 q 431 488 432 487 m 499 975 l 469 1010 q 468 1013 467 1012 l 471 1038 q 475 1042 471 1042 l 709 1042 q 712 1040 711 1042 l 723 1028 q 722 1023 725 1025 l 667 975 q 665 974 666 974 l 502 974 q 499 975 500 974 m 629 572 l 682 954 q 684 956 682 955 l 739 1004 q 744 1004 741 1006 l 754 991 q 755 989 755 990 l 692 536 q 688 533 692 533 l 663 533 q 660 534 661 533 l 629 570 q 629 572 629 570 m 602 35 l 561 83 q 560 85 560 83 l 615 475 q 616 478 615 477 l 659 507 q 661 508 660 508 l 684 508 q 686 507 686 508 q 687 504 688 505 l 623 50 q 622 47 623 49 l 608 35 q 602 35 605 33 m 116 97 l 132 214 q 133 215 132 214 q 133 216 133 216 l 302 460 q 306 462 304 462 l 314 462 q 317 460 316 462 q 317 458 317 460 l 301 340 q 301 339 301 340 q 300 338 300 338 l 131 94 q 127 93 130 93 l 120 93 q 117 94 117 93 q 116 97 116 95 m 454 584 l 471 701 q 471 703 471 703 l 641 947 q 644 949 642 949 l 652 949 q 654 947 654 949 q 656 945 656 947 l 639 827 q 638 825 639 826 l 469 581 q 466 580 468 580 l 458 580 q 455 581 456 580 q 454 584 454 583 z "},"":{"ha":772,"x_min":116,"x_max":755,"o":"m 397 975 q 395 974 396 974 l 232 974 q 229 975 231 974 l 189 1023 q 189 1028 185 1025 l 203 1040 q 205 1042 205 1042 l 442 1042 q 445 1040 444 1042 q 446 1037 446 1038 l 443 1015 q 441 1013 443 1015 l 397 975 m 431 488 l 406 517 q 406 522 404 519 l 443 553 q 446 555 444 555 l 608 555 q 611 553 608 555 l 635 525 q 635 519 637 521 l 599 488 q 596 487 598 487 l 433 487 q 431 488 432 487 m 499 975 l 469 1010 q 468 1013 467 1012 l 471 1038 q 475 1042 471 1042 l 709 1042 q 712 1040 711 1042 l 723 1028 q 722 1023 725 1025 l 667 975 q 665 974 666 974 l 502 974 q 499 975 500 974 m 629 572 l 682 954 q 684 956 682 955 l 739 1004 q 744 1004 741 1006 l 754 991 q 755 989 755 990 l 692 536 q 688 533 692 533 l 663 533 q 660 534 661 533 l 629 570 q 629 572 629 570 m 602 35 l 561 83 q 560 85 560 83 l 615 475 q 616 478 615 477 l 659 507 q 661 508 660 508 l 684 508 q 686 507 686 508 q 687 504 688 505 l 623 50 q 622 47 623 49 l 608 35 q 602 35 605 33 m 116 97 l 132 214 q 133 215 132 214 q 133 216 133 216 l 302 460 q 306 462 304 462 l 314 462 q 317 460 316 462 q 317 458 317 460 l 301 340 q 301 339 301 340 q 300 338 300 338 l 131 94 q 127 93 130 93 l 120 93 q 117 94 117 93 q 116 97 116 95 m 454 584 l 471 701 q 471 703 471 703 l 641 947 q 644 949 642 949 l 652 949 q 654 947 654 949 q 656 945 656 947 l 639 827 q 638 825 639 826 l 469 581 q 466 580 468 580 l 458 580 q 455 581 456 580 q 454 584 454 583 z "},"":{"ha":772,"x_min":116,"x_max":755,"o":"m 397 975 q 395 974 396 974 l 232 974 q 229 975 231 974 l 189 1023 q 189 1028 185 1025 l 203 1040 q 205 1042 205 1042 l 442 1042 q 445 1040 444 1042 q 446 1037 446 1038 l 443 1015 q 441 1013 443 1015 l 397 975 m 431 488 l 406 517 q 406 522 404 519 l 443 553 q 446 555 444 555 l 608 555 q 611 553 608 555 l 635 525 q 635 519 637 521 l 599 488 q 596 487 598 487 l 433 487 q 431 488 432 487 m 629 572 l 682 954 q 684 956 682 955 l 739 1004 q 744 1004 741 1006 l 754 991 q 755 989 755 990 l 692 536 q 688 533 692 533 l 663 533 q 660 534 661 533 l 629 570 q 629 572 629 570 m 602 35 l 561 83 q 560 85 560 83 l 615 475 q 616 478 615 477 l 659 507 q 661 508 660 508 l 684 508 q 686 507 686 508 q 687 504 688 505 l 623 50 q 622 47 623 49 l 608 35 q 602 35 605 33 m 116 97 l 132 214 q 133 215 132 214 q 133 216 133 216 l 302 460 q 306 462 304 462 l 314 462 q 317 460 316 462 q 317 458 317 460 l 301 340 q 301 339 301 340 q 300 338 300 338 l 131 94 q 127 93 130 93 l 120 93 q 117 94 117 93 q 116 97 116 95 m 454 584 l 471 701 q 471 703 471 703 l 641 947 q 644 949 642 949 l 652 949 q 654 947 654 949 q 656 945 656 947 l 639 827 q 638 825 639 826 l 469 581 q 466 580 468 580 l 458 580 q 455 581 456 580 q 454 584 454 583 z "},"":{"ha":772,"x_min":16,"x_max":725,"o":"m 326 5 l 329 26 q 330 28 329 27 l 374 66 q 377 68 376 68 l 539 68 q 543 66 541 68 l 583 19 q 583 14 586 16 l 568 1 q 566 0 568 0 l 330 0 q 327 1 328 0 q 326 5 325 3 m 397 975 q 395 974 396 974 l 232 974 q 229 975 231 974 l 189 1023 q 189 1028 185 1025 l 203 1040 q 205 1042 205 1042 l 442 1042 q 445 1040 444 1042 q 446 1037 446 1038 l 443 1015 q 441 1013 443 1015 l 397 975 m 412 954 q 414 956 414 956 l 450 987 q 456 987 453 990 l 480 959 q 481 956 481 958 l 427 575 q 427 572 427 573 l 390 541 q 385 541 387 538 l 360 570 q 359 572 359 571 l 412 954 m 326 487 l 163 487 q 161 488 162 487 l 136 517 q 137 522 133 519 l 173 553 q 176 555 174 555 l 338 555 q 341 553 340 555 l 366 525 q 366 519 368 522 l 329 488 q 326 487 328 487 m 431 488 l 406 517 q 406 522 404 519 l 443 553 q 446 555 444 555 l 608 555 q 611 553 608 555 l 635 525 q 635 519 637 521 l 599 488 q 596 487 598 487 l 433 487 q 431 488 432 487 m 83 508 l 109 508 q 111 507 111 508 l 142 472 q 143 469 143 469 l 90 88 q 88 85 88 85 l 33 37 q 27 38 30 35 l 17 50 q 16 53 16 51 l 80 505 q 83 508 80 508 m 290 85 l 344 467 q 344 468 344 467 q 345 469 345 469 l 382 500 q 387 500 385 503 l 412 472 q 412 469 412 469 l 359 88 q 358 85 359 86 l 321 54 q 316 54 319 52 l 292 83 q 290 85 290 84 m 499 975 l 469 1010 q 468 1013 467 1012 l 471 1038 q 475 1042 471 1042 l 709 1042 q 712 1040 711 1042 l 723 1028 q 722 1023 725 1025 l 667 975 q 665 974 666 974 l 502 974 q 499 975 500 974 m 149 994 l 164 1006 q 170 1006 167 1009 l 210 959 q 212 956 212 958 l 158 575 q 157 572 157 572 l 113 534 q 110 533 111 533 l 88 533 q 85 534 87 533 q 84 538 84 537 l 148 991 q 149 994 149 994 z "},"":{"ha":772,"x_min":16,"x_max":725,"o":"m 62 0 q 59 1 60 0 l 49 13 q 50 18 46 16 l 104 66 q 107 68 106 68 l 270 68 q 273 66 271 68 l 303 31 q 304 28 304 31 l 300 3 q 296 0 300 0 l 62 0 m 326 5 l 329 26 q 330 28 329 27 l 374 66 q 377 68 376 68 l 539 68 q 543 66 541 68 l 583 19 q 583 14 586 16 l 568 1 q 566 0 568 0 l 330 0 q 327 1 328 0 q 326 5 325 3 m 397 975 q 395 974 396 974 l 232 974 q 229 975 231 974 l 189 1023 q 189 1028 185 1025 l 203 1040 q 205 1042 205 1042 l 442 1042 q 445 1040 444 1042 q 446 1037 446 1038 l 443 1015 q 441 1013 443 1015 l 397 975 m 83 508 l 109 508 q 111 507 111 508 l 142 472 q 143 469 143 469 l 90 88 q 88 85 88 85 l 33 37 q 27 38 30 35 l 17 50 q 16 53 16 51 l 80 505 q 83 508 80 508 m 290 85 l 344 467 q 344 468 344 467 q 345 469 345 469 l 382 500 q 387 500 385 503 l 412 472 q 412 469 412 469 l 359 88 q 358 85 359 86 l 321 54 q 316 54 319 52 l 292 83 q 290 85 290 84 m 499 975 l 469 1010 q 468 1013 467 1012 l 471 1038 q 475 1042 471 1042 l 709 1042 q 712 1040 711 1042 l 723 1028 q 722 1023 725 1025 l 667 975 q 665 974 666 974 l 502 974 q 499 975 500 974 m 149 994 l 164 1006 q 170 1006 167 1009 l 210 959 q 212 956 212 958 l 158 575 q 157 572 157 572 l 113 534 q 110 533 111 533 l 88 533 q 85 534 87 533 q 84 538 84 537 l 148 991 q 149 994 149 994 z "},"":{"ha":772,"x_min":16,"x_max":637,"o":"m 62 0 q 59 1 60 0 l 49 13 q 50 18 46 16 l 104 66 q 107 68 106 68 l 270 68 q 273 66 271 68 l 303 31 q 304 28 304 31 l 300 3 q 296 0 300 0 l 62 0 m 326 5 l 329 26 q 330 28 329 27 l 374 66 q 377 68 376 68 l 539 68 q 543 66 541 68 l 583 19 q 583 14 586 16 l 568 1 q 566 0 568 0 l 330 0 q 327 1 328 0 q 326 5 325 3 m 397 975 q 395 974 396 974 l 232 974 q 229 975 231 974 l 189 1023 q 189 1028 185 1025 l 203 1040 q 205 1042 205 1042 l 442 1042 q 445 1040 444 1042 q 446 1037 446 1038 l 443 1015 q 441 1013 443 1015 l 397 975 m 326 487 l 163 487 q 161 488 162 487 l 136 517 q 137 522 133 519 l 173 553 q 176 555 174 555 l 338 555 q 341 553 340 555 l 366 525 q 366 519 368 522 l 329 488 q 326 487 328 487 m 431 488 l 406 517 q 406 522 404 519 l 443 553 q 446 555 444 555 l 608 555 q 611 553 608 555 l 635 525 q 635 519 637 521 l 599 488 q 596 487 598 487 l 433 487 q 431 488 432 487 m 83 508 l 109 508 q 111 507 111 508 l 142 472 q 143 469 143 469 l 90 88 q 88 85 88 85 l 33 37 q 27 38 30 35 l 17 50 q 16 53 16 51 l 80 505 q 83 508 80 508 m 116 97 l 132 214 q 133 215 132 214 q 133 216 133 216 l 302 460 q 306 462 304 462 l 314 462 q 317 460 316 462 q 317 458 317 460 l 301 340 q 301 339 301 340 q 300 338 300 338 l 131 94 q 127 93 130 93 l 120 93 q 117 94 117 93 q 116 97 116 95 z "},"":{"ha":772,"x_min":16,"x_max":725,"o":"m 62 0 q 59 1 60 0 l 49 13 q 50 18 46 16 l 104 66 q 107 68 106 68 l 270 68 q 273 66 271 68 l 303 31 q 304 28 304 31 l 300 3 q 296 0 300 0 l 62 0 m 326 5 l 329 26 q 330 28 329 27 l 374 66 q 377 68 376 68 l 539 68 q 543 66 541 68 l 583 19 q 583 14 586 16 l 568 1 q 566 0 568 0 l 330 0 q 327 1 328 0 q 326 5 325 3 m 326 487 l 163 487 q 161 488 162 487 l 136 517 q 137 522 133 519 l 173 553 q 176 555 174 555 l 338 555 q 341 553 340 555 l 366 525 q 366 519 368 522 l 329 488 q 326 487 328 487 m 431 488 l 406 517 q 406 522 404 519 l 443 553 q 446 555 444 555 l 608 555 q 611 553 608 555 l 635 525 q 635 519 637 521 l 599 488 q 596 487 598 487 l 433 487 q 431 488 432 487 m 83 508 l 109 508 q 111 507 111 508 l 142 472 q 143 469 143 469 l 90 88 q 88 85 88 85 l 33 37 q 27 38 30 35 l 17 50 q 16 53 16 51 l 80 505 q 83 508 80 508 m 499 975 l 469 1010 q 468 1013 467 1012 l 471 1038 q 475 1042 471 1042 l 709 1042 q 712 1040 711 1042 l 723 1028 q 722 1023 725 1025 l 667 975 q 665 974 666 974 l 502 974 q 499 975 500 974 m 116 97 l 132 214 q 133 215 132 214 q 133 216 133 216 l 302 460 q 306 462 304 462 l 314 462 q 317 460 316 462 q 317 458 317 460 l 301 340 q 301 339 301 340 q 300 338 300 338 l 131 94 q 127 93 130 93 l 120 93 q 117 94 117 93 q 116 97 116 95 z "},"":{"ha":772,"x_min":16,"x_max":725,"o":"m 62 0 q 59 1 60 0 l 49 13 q 50 18 46 16 l 104 66 q 107 68 106 68 l 270 68 q 273 66 271 68 l 303 31 q 304 28 304 31 l 300 3 q 296 0 300 0 l 62 0 m 326 5 l 329 26 q 330 28 329 27 l 374 66 q 377 68 376 68 l 539 68 q 543 66 541 68 l 583 19 q 583 14 586 16 l 568 1 q 566 0 568 0 l 330 0 q 327 1 328 0 q 326 5 325 3 m 397 975 q 395 974 396 974 l 232 974 q 229 975 231 974 l 189 1023 q 189 1028 185 1025 l 203 1040 q 205 1042 205 1042 l 442 1042 q 445 1040 444 1042 q 446 1037 446 1038 l 443 1015 q 441 1013 443 1015 l 397 975 m 326 487 l 163 487 q 161 488 162 487 l 136 517 q 137 522 133 519 l 173 553 q 176 555 174 555 l 338 555 q 341 553 340 555 l 366 525 q 366 519 368 522 l 329 488 q 326 487 328 487 m 431 488 l 406 517 q 406 522 404 519 l 443 553 q 446 555 444 555 l 608 555 q 611 553 608 555 l 635 525 q 635 519 637 521 l 599 488 q 596 487 598 487 l 433 487 q 431 488 432 487 m 83 508 l 109 508 q 111 507 111 508 l 142 472 q 143 469 143 469 l 90 88 q 88 85 88 85 l 33 37 q 27 38 30 35 l 17 50 q 16 53 16 51 l 80 505 q 83 508 80 508 m 499 975 l 469 1010 q 468 1013 467 1012 l 471 1038 q 475 1042 471 1042 l 709 1042 q 712 1040 711 1042 l 723 1028 q 722 1023 725 1025 l 667 975 q 665 974 666 974 l 502 974 q 499 975 500 974 m 116 97 l 132 214 q 133 215 132 214 q 133 216 133 216 l 302 460 q 306 462 304 462 l 314 462 q 317 460 316 462 q 317 458 317 460 l 301 340 q 301 339 301 340 q 300 338 300 338 l 131 94 q 127 93 130 93 l 120 93 q 117 94 117 93 q 116 97 116 95 z "},"":{"ha":772,"x_min":16,"x_max":725,"o":"m 62 0 q 59 1 60 0 l 49 13 q 50 18 46 16 l 104 66 q 107 68 106 68 l 270 68 q 273 66 271 68 l 303 31 q 304 28 304 31 l 300 3 q 296 0 300 0 l 62 0 m 326 5 l 329 26 q 330 28 329 27 l 374 66 q 377 68 376 68 l 539 68 q 543 66 541 68 l 583 19 q 583 14 586 16 l 568 1 q 566 0 568 0 l 330 0 q 327 1 328 0 q 326 5 325 3 m 397 975 q 395 974 396 974 l 232 974 q 229 975 231 974 l 189 1023 q 189 1028 185 1025 l 203 1040 q 205 1042 205 1042 l 442 1042 q 445 1040 444 1042 q 446 1037 446 1038 l 443 1015 q 441 1013 443 1015 l 397 975 m 326 487 l 163 487 q 161 488 162 487 l 136 517 q 137 522 133 519 l 173 553 q 176 555 174 555 l 338 555 q 341 553 340 555 l 366 525 q 366 519 368 522 l 329 488 q 326 487 328 487 m 431 488 l 406 517 q 406 522 404 519 l 443 553 q 446 555 444 555 l 608 555 q 611 553 608 555 l 635 525 q 635 519 637 521 l 599 488 q 596 487 598 487 l 433 487 q 431 488 432 487 m 83 508 l 109 508 q 111 507 111 508 l 142 472 q 143 469 143 469 l 90 88 q 88 85 88 85 l 33 37 q 27 38 30 35 l 17 50 q 16 53 16 51 l 80 505 q 83 508 80 508 m 499 975 l 469 1010 q 468 1013 467 1012 l 471 1038 q 475 1042 471 1042 l 709 1042 q 712 1040 711 1042 l 723 1028 q 722 1023 725 1025 l 667 975 q 665 974 666 974 l 502 974 q 499 975 500 974 m 116 97 l 132 214 q 133 215 132 214 q 133 216 133 216 l 302 460 q 306 462 304 462 l 314 462 q 317 460 316 462 q 317 458 317 460 l 301 340 q 301 339 301 340 q 300 338 300 338 l 131 94 q 127 93 130 93 l 120 93 q 117 94 117 93 q 116 97 116 95 z "},"":{"ha":772,"x_min":46,"x_max":637,"o":"m 62 0 q 59 1 60 0 l 49 13 q 50 18 46 16 l 104 66 q 107 68 106 68 l 270 68 q 273 66 271 68 l 303 31 q 304 28 304 31 l 300 3 q 296 0 300 0 l 62 0 m 326 5 l 329 26 q 330 28 329 27 l 374 66 q 377 68 376 68 l 539 68 q 543 66 541 68 l 583 19 q 583 14 586 16 l 568 1 q 566 0 568 0 l 330 0 q 327 1 328 0 q 326 5 325 3 m 397 975 q 395 974 396 974 l 232 974 q 229 975 231 974 l 189 1023 q 189 1028 185 1025 l 203 1040 q 205 1042 205 1042 l 442 1042 q 445 1040 444 1042 q 446 1037 446 1038 l 443 1015 q 441 1013 443 1015 l 397 975 m 326 487 l 163 487 q 161 488 162 487 l 136 517 q 137 522 133 519 l 173 553 q 176 555 174 555 l 338 555 q 341 553 340 555 l 366 525 q 366 519 368 522 l 329 488 q 326 487 328 487 m 431 488 l 406 517 q 406 522 404 519 l 443 553 q 446 555 444 555 l 608 555 q 611 553 608 555 l 635 525 q 635 519 637 521 l 599 488 q 596 487 598 487 l 433 487 q 431 488 432 487 m 290 85 l 344 467 q 344 468 344 467 q 345 469 345 469 l 382 500 q 387 500 385 503 l 412 472 q 412 469 412 469 l 359 88 q 358 85 359 86 l 321 54 q 316 54 319 52 l 292 83 q 290 85 290 84 z "},"":{"ha":772,"x_min":46,"x_max":725,"o":"m 62 0 q 59 1 60 0 l 49 13 q 50 18 46 16 l 104 66 q 107 68 106 68 l 270 68 q 273 66 271 68 l 303 31 q 304 28 304 31 l 300 3 q 296 0 300 0 l 62 0 m 326 5 l 329 26 q 330 28 329 27 l 374 66 q 377 68 376 68 l 539 68 q 543 66 541 68 l 583 19 q 583 14 586 16 l 568 1 q 566 0 568 0 l 330 0 q 327 1 328 0 q 326 5 325 3 m 326 487 l 163 487 q 161 488 162 487 l 136 517 q 137 522 133 519 l 173 553 q 176 555 174 555 l 338 555 q 341 553 340 555 l 366 525 q 366 519 368 522 l 329 488 q 326 487 328 487 m 431 488 l 406 517 q 406 522 404 519 l 443 553 q 446 555 444 555 l 608 555 q 611 553 608 555 l 635 525 q 635 519 637 521 l 599 488 q 596 487 598 487 l 433 487 q 431 488 432 487 m 290 85 l 344 467 q 344 468 344 467 q 345 469 345 469 l 382 500 q 387 500 385 503 l 412 472 q 412 469 412 469 l 359 88 q 358 85 359 86 l 321 54 q 316 54 319 52 l 292 83 q 290 85 290 84 m 499 975 l 469 1010 q 468 1013 467 1012 l 471 1038 q 475 1042 471 1042 l 709 1042 q 712 1040 711 1042 l 723 1028 q 722 1023 725 1025 l 667 975 q 665 974 666 974 l 502 974 q 499 975 500 974 z "},"":{"ha":772,"x_min":46,"x_max":725,"o":"m 62 0 q 59 1 60 0 l 49 13 q 50 18 46 16 l 104 66 q 107 68 106 68 l 270 68 q 273 66 271 68 l 303 31 q 304 28 304 31 l 300 3 q 296 0 300 0 l 62 0 m 326 5 l 329 26 q 330 28 329 27 l 374 66 q 377 68 376 68 l 539 68 q 543 66 541 68 l 583 19 q 583 14 586 16 l 568 1 q 566 0 568 0 l 330 0 q 327 1 328 0 q 326 5 325 3 m 397 975 q 395 974 396 974 l 232 974 q 229 975 231 974 l 189 1023 q 189 1028 185 1025 l 203 1040 q 205 1042 205 1042 l 442 1042 q 445 1040 444 1042 q 446 1037 446 1038 l 443 1015 q 441 1013 443 1015 l 397 975 m 326 487 l 163 487 q 161 488 162 487 l 136 517 q 137 522 133 519 l 173 553 q 176 555 174 555 l 338 555 q 341 553 340 555 l 366 525 q 366 519 368 522 l 329 488 q 326 487 328 487 m 431 488 l 406 517 q 406 522 404 519 l 443 553 q 446 555 444 555 l 608 555 q 611 553 608 555 l 635 525 q 635 519 637 521 l 599 488 q 596 487 598 487 l 433 487 q 431 488 432 487 m 290 85 l 344 467 q 344 468 344 467 q 345 469 345 469 l 382 500 q 387 500 385 503 l 412 472 q 412 469 412 469 l 359 88 q 358 85 359 86 l 321 54 q 316 54 319 52 l 292 83 q 290 85 290 84 m 499 975 l 469 1010 q 468 1013 467 1012 l 471 1038 q 475 1042 471 1042 l 709 1042 q 712 1040 711 1042 l 723 1028 q 722 1023 725 1025 l 667 975 q 665 974 666 974 l 502 974 q 499 975 500 974 z "},"":{"ha":772,"x_min":46,"x_max":725,"o":"m 62 0 q 59 1 60 0 l 49 13 q 50 18 46 16 l 104 66 q 107 68 106 68 l 270 68 q 273 66 271 68 l 303 31 q 304 28 304 31 l 300 3 q 296 0 300 0 l 62 0 m 326 5 l 329 26 q 330 28 329 27 l 374 66 q 377 68 376 68 l 539 68 q 543 66 541 68 l 583 19 q 583 14 586 16 l 568 1 q 566 0 568 0 l 330 0 q 327 1 328 0 q 326 5 325 3 m 397 975 q 395 974 396 974 l 232 974 q 229 975 231 974 l 189 1023 q 189 1028 185 1025 l 203 1040 q 205 1042 205 1042 l 442 1042 q 445 1040 444 1042 q 446 1037 446 1038 l 443 1015 q 441 1013 443 1015 l 397 975 m 326 487 l 163 487 q 161 488 162 487 l 136 517 q 137 522 133 519 l 173 553 q 176 555 174 555 l 338 555 q 341 553 340 555 l 366 525 q 366 519 368 522 l 329 488 q 326 487 328 487 m 431 488 l 406 517 q 406 522 404 519 l 443 553 q 446 555 444 555 l 608 555 q 611 553 608 555 l 635 525 q 635 519 637 521 l 599 488 q 596 487 598 487 l 433 487 q 431 488 432 487 m 290 85 l 344 467 q 344 468 344 467 q 345 469 345 469 l 382 500 q 387 500 385 503 l 412 472 q 412 469 412 469 l 359 88 q 358 85 359 86 l 321 54 q 316 54 319 52 l 292 83 q 290 85 290 84 m 499 975 l 469 1010 q 468 1013 467 1012 l 471 1038 q 475 1042 471 1042 l 709 1042 q 712 1040 711 1042 l 723 1028 q 722 1023 725 1025 l 667 975 q 665 974 666 974 l 502 974 q 499 975 500 974 z "},"":{"ha":772,"x_min":46,"x_max":755,"o":"m 62 0 q 59 1 60 0 l 49 13 q 50 18 46 16 l 104 66 q 107 68 106 68 l 270 68 q 273 66 271 68 l 303 31 q 304 28 304 31 l 300 3 q 296 0 300 0 l 62 0 m 326 5 l 329 26 q 330 28 329 27 l 374 66 q 377 68 376 68 l 539 68 q 543 66 541 68 l 583 19 q 583 14 586 16 l 568 1 q 566 0 568 0 l 330 0 q 327 1 328 0 q 326 5 325 3 m 397 975 q 395 974 396 974 l 232 974 q 229 975 231 974 l 189 1023 q 189 1028 185 1025 l 203 1040 q 205 1042 205 1042 l 442 1042 q 445 1040 444 1042 q 446 1037 446 1038 l 443 1015 q 441 1013 443 1015 l 397 975 m 412 954 q 414 956 414 956 l 450 987 q 456 987 453 990 l 480 959 q 481 956 481 958 l 427 575 q 427 572 427 573 l 390 541 q 385 541 387 538 l 360 570 q 359 572 359 571 l 412 954 m 326 487 l 163 487 q 161 488 162 487 l 136 517 q 137 522 133 519 l 173 553 q 176 555 174 555 l 338 555 q 341 553 340 555 l 366 525 q 366 519 368 522 l 329 488 q 326 487 328 487 m 290 85 l 344 467 q 344 468 344 467 q 345 469 345 469 l 382 500 q 387 500 385 503 l 412 472 q 412 469 412 469 l 359 88 q 358 85 359 86 l 321 54 q 316 54 319 52 l 292 83 q 290 85 290 84 m 499 975 l 469 1010 q 468 1013 467 1012 l 471 1038 q 475 1042 471 1042 l 709 1042 q 712 1040 711 1042 l 723 1028 q 722 1023 725 1025 l 667 975 q 665 974 666 974 l 502 974 q 499 975 500 974 m 629 572 l 682 954 q 684 956 682 955 l 739 1004 q 744 1004 741 1006 l 754 991 q 755 989 755 990 l 692 536 q 688 533 692 533 l 663 533 q 660 534 661 533 l 629 570 q 629 572 629 570 m 602 35 l 561 83 q 560 85 560 83 l 615 475 q 616 478 615 477 l 659 507 q 661 508 660 508 l 684 508 q 686 507 686 508 q 687 504 688 505 l 623 50 q 622 47 623 49 l 608 35 q 602 35 605 33 z "},"":{"ha":772,"x_min":16,"x_max":725,"o":"m 397 975 q 395 974 396 974 l 232 974 q 229 975 231 974 l 189 1023 q 189 1028 185 1025 l 203 1040 q 205 1042 205 1042 l 442 1042 q 445 1040 444 1042 q 446 1037 446 1038 l 443 1015 q 441 1013 443 1015 l 397 975 m 326 487 l 163 487 q 161 488 162 487 l 136 517 q 137 522 133 519 l 173 553 q 176 555 174 555 l 338 555 q 341 553 340 555 l 366 525 q 366 519 368 522 l 329 488 q 326 487 328 487 m 83 508 l 109 508 q 111 507 111 508 l 142 472 q 143 469 143 469 l 90 88 q 88 85 88 85 l 33 37 q 27 38 30 35 l 17 50 q 16 53 16 51 l 80 505 q 83 508 80 508 m 499 975 l 469 1010 q 468 1013 467 1012 l 471 1038 q 475 1042 471 1042 l 709 1042 q 712 1040 711 1042 l 723 1028 q 722 1023 725 1025 l 667 975 q 665 974 666 974 l 502 974 q 499 975 500 974 m 602 35 l 561 83 q 560 85 560 83 l 615 475 q 616 478 615 477 l 659 507 q 661 508 660 508 l 684 508 q 686 507 686 508 q 687 504 688 505 l 623 50 q 622 47 623 49 l 608 35 q 602 35 605 33 m 525 95 l 421 347 q 421 347 421 347 q 421 349 421 348 l 437 458 q 440 462 437 462 l 444 462 q 448 460 446 462 l 551 208 q 552 206 552 208 l 536 96 q 532 93 536 93 l 529 93 q 525 95 526 93 z "},"":{"ha":772,"x_min":16,"x_max":688,"o":"m 62 0 q 59 1 60 0 l 49 13 q 50 18 46 16 l 104 66 q 107 68 106 68 l 270 68 q 273 66 271 68 l 303 31 q 304 28 304 31 l 300 3 q 296 0 300 0 l 62 0 m 326 5 l 329 26 q 330 28 329 27 l 374 66 q 377 68 376 68 l 539 68 q 543 66 541 68 l 583 19 q 583 14 586 16 l 568 1 q 566 0 568 0 l 330 0 q 327 1 328 0 q 326 5 325 3 m 397 975 q 395 974 396 974 l 232 974 q 229 975 231 974 l 189 1023 q 189 1028 185 1025 l 203 1040 q 205 1042 205 1042 l 442 1042 q 445 1040 444 1042 q 446 1037 446 1038 l 443 1015 q 441 1013 443 1015 l 397 975 m 326 487 l 163 487 q 161 488 162 487 l 136 517 q 137 522 133 519 l 173 553 q 176 555 174 555 l 338 555 q 341 553 340 555 l 366 525 q 366 519 368 522 l 329 488 q 326 487 328 487 m 431 488 l 406 517 q 406 522 404 519 l 443 553 q 446 555 444 555 l 608 555 q 611 553 608 555 l 635 525 q 635 519 637 521 l 599 488 q 596 487 598 487 l 433 487 q 431 488 432 487 m 83 508 l 109 508 q 111 507 111 508 l 142 472 q 143 469 143 469 l 90 88 q 88 85 88 85 l 33 37 q 27 38 30 35 l 17 50 q 16 53 16 51 l 80 505 q 83 508 80 508 m 602 35 l 561 83 q 560 85 560 83 l 615 475 q 616 478 615 477 l 659 507 q 661 508 660 508 l 684 508 q 686 507 686 508 q 687 504 688 505 l 623 50 q 622 47 623 49 l 608 35 q 602 35 605 33 z "},"":{"ha":772,"x_min":16,"x_max":725,"o":"m 62 0 q 59 1 60 0 l 49 13 q 50 18 46 16 l 104 66 q 107 68 106 68 l 270 68 q 273 66 271 68 l 303 31 q 304 28 304 31 l 300 3 q 296 0 300 0 l 62 0 m 326 5 l 329 26 q 330 28 329 27 l 374 66 q 377 68 376 68 l 539 68 q 543 66 541 68 l 583 19 q 583 14 586 16 l 568 1 q 566 0 568 0 l 330 0 q 327 1 328 0 q 326 5 325 3 m 326 487 l 163 487 q 161 488 162 487 l 136 517 q 137 522 133 519 l 173 553 q 176 555 174 555 l 338 555 q 341 553 340 555 l 366 525 q 366 519 368 522 l 329 488 q 326 487 328 487 m 431 488 l 406 517 q 406 522 404 519 l 443 553 q 446 555 444 555 l 608 555 q 611 553 608 555 l 635 525 q 635 519 637 521 l 599 488 q 596 487 598 487 l 433 487 q 431 488 432 487 m 83 508 l 109 508 q 111 507 111 508 l 142 472 q 143 469 143 469 l 90 88 q 88 85 88 85 l 33 37 q 27 38 30 35 l 17 50 q 16 53 16 51 l 80 505 q 83 508 80 508 m 499 975 l 469 1010 q 468 1013 467 1012 l 471 1038 q 475 1042 471 1042 l 709 1042 q 712 1040 711 1042 l 723 1028 q 722 1023 725 1025 l 667 975 q 665 974 666 974 l 502 974 q 499 975 500 974 m 602 35 l 561 83 q 560 85 560 83 l 615 475 q 616 478 615 477 l 659 507 q 661 508 660 508 l 684 508 q 686 507 686 508 q 687 504 688 505 l 623 50 q 622 47 623 49 l 608 35 q 602 35 605 33 z "},"":{"ha":772,"x_min":16,"x_max":725,"o":"m 62 0 q 59 1 60 0 l 49 13 q 50 18 46 16 l 104 66 q 107 68 106 68 l 270 68 q 273 66 271 68 l 303 31 q 304 28 304 31 l 300 3 q 296 0 300 0 l 62 0 m 326 5 l 329 26 q 330 28 329 27 l 374 66 q 377 68 376 68 l 539 68 q 543 66 541 68 l 583 19 q 583 14 586 16 l 568 1 q 566 0 568 0 l 330 0 q 327 1 328 0 q 326 5 325 3 m 397 975 q 395 974 396 974 l 232 974 q 229 975 231 974 l 189 1023 q 189 1028 185 1025 l 203 1040 q 205 1042 205 1042 l 442 1042 q 445 1040 444 1042 q 446 1037 446 1038 l 443 1015 q 441 1013 443 1015 l 397 975 m 326 487 l 163 487 q 161 488 162 487 l 136 517 q 137 522 133 519 l 173 553 q 176 555 174 555 l 338 555 q 341 553 340 555 l 366 525 q 366 519 368 522 l 329 488 q 326 487 328 487 m 431 488 l 406 517 q 406 522 404 519 l 443 553 q 446 555 444 555 l 608 555 q 611 553 608 555 l 635 525 q 635 519 637 521 l 599 488 q 596 487 598 487 l 433 487 q 431 488 432 487 m 83 508 l 109 508 q 111 507 111 508 l 142 472 q 143 469 143 469 l 90 88 q 88 85 88 85 l 33 37 q 27 38 30 35 l 17 50 q 16 53 16 51 l 80 505 q 83 508 80 508 m 499 975 l 469 1010 q 468 1013 467 1012 l 471 1038 q 475 1042 471 1042 l 709 1042 q 712 1040 711 1042 l 723 1028 q 722 1023 725 1025 l 667 975 q 665 974 666 974 l 502 974 q 499 975 500 974 m 602 35 l 561 83 q 560 85 560 83 l 615 475 q 616 478 615 477 l 659 507 q 661 508 660 508 l 684 508 q 686 507 686 508 q 687 504 688 505 l 623 50 q 622 47 623 49 l 608 35 q 602 35 605 33 z "},"":{"ha":772,"x_min":16,"x_max":725,"o":"m 62 0 q 59 1 60 0 l 49 13 q 50 18 46 16 l 104 66 q 107 68 106 68 l 270 68 q 273 66 271 68 l 303 31 q 304 28 304 31 l 300 3 q 296 0 300 0 l 62 0 m 326 5 l 329 26 q 330 28 329 27 l 374 66 q 377 68 376 68 l 539 68 q 543 66 541 68 l 583 19 q 583 14 586 16 l 568 1 q 566 0 568 0 l 330 0 q 327 1 328 0 q 326 5 325 3 m 397 975 q 395 974 396 974 l 232 974 q 229 975 231 974 l 189 1023 q 189 1028 185 1025 l 203 1040 q 205 1042 205 1042 l 442 1042 q 445 1040 444 1042 q 446 1037 446 1038 l 443 1015 q 441 1013 443 1015 l 397 975 m 326 487 l 163 487 q 161 488 162 487 l 136 517 q 137 522 133 519 l 173 553 q 176 555 174 555 l 338 555 q 341 553 340 555 l 366 525 q 366 519 368 522 l 329 488 q 326 487 328 487 m 431 488 l 406 517 q 406 522 404 519 l 443 553 q 446 555 444 555 l 608 555 q 611 553 608 555 l 635 525 q 635 519 637 521 l 599 488 q 596 487 598 487 l 433 487 q 431 488 432 487 m 83 508 l 109 508 q 111 507 111 508 l 142 472 q 143 469 143 469 l 90 88 q 88 85 88 85 l 33 37 q 27 38 30 35 l 17 50 q 16 53 16 51 l 80 505 q 83 508 80 508 m 499 975 l 469 1010 q 468 1013 467 1012 l 471 1038 q 475 1042 471 1042 l 709 1042 q 712 1040 711 1042 l 723 1028 q 722 1023 725 1025 l 667 975 q 665 974 666 974 l 502 974 q 499 975 500 974 m 602 35 l 561 83 q 560 85 560 83 l 615 475 q 616 478 615 477 l 659 507 q 661 508 660 508 l 684 508 q 686 507 686 508 q 687 504 688 505 l 623 50 q 622 47 623 49 l 608 35 q 602 35 605 33 z "},"":{"ha":772,"x_min":16,"x_max":725,"o":"m 62 0 q 59 1 60 0 l 49 13 q 50 18 46 16 l 104 66 q 107 68 106 68 l 270 68 q 273 66 271 68 l 303 31 q 304 28 304 31 l 300 3 q 296 0 300 0 l 62 0 m 326 5 l 329 26 q 330 28 329 27 l 374 66 q 377 68 376 68 l 539 68 q 543 66 541 68 l 583 19 q 583 14 586 16 l 568 1 q 566 0 568 0 l 330 0 q 327 1 328 0 q 326 5 325 3 m 397 975 q 395 974 396 974 l 232 974 q 229 975 231 974 l 189 1023 q 189 1028 185 1025 l 203 1040 q 205 1042 205 1042 l 442 1042 q 445 1040 444 1042 q 446 1037 446 1038 l 443 1015 q 441 1013 443 1015 l 397 975 m 326 487 l 163 487 q 161 488 162 487 l 136 517 q 137 522 133 519 l 173 553 q 176 555 174 555 l 338 555 q 341 553 340 555 l 366 525 q 366 519 368 522 l 329 488 q 326 487 328 487 m 431 488 l 406 517 q 406 522 404 519 l 443 553 q 446 555 444 555 l 608 555 q 611 553 608 555 l 635 525 q 635 519 637 521 l 599 488 q 596 487 598 487 l 433 487 q 431 488 432 487 m 83 508 l 109 508 q 111 507 111 508 l 142 472 q 143 469 143 469 l 90 88 q 88 85 88 85 l 33 37 q 27 38 30 35 l 17 50 q 16 53 16 51 l 80 505 q 83 508 80 508 m 499 975 l 469 1010 q 468 1013 467 1012 l 471 1038 q 475 1042 471 1042 l 709 1042 q 712 1040 711 1042 l 723 1028 q 722 1023 725 1025 l 667 975 q 665 974 666 974 l 502 974 q 499 975 500 974 m 602 35 l 561 83 q 560 85 560 83 l 615 475 q 616 478 615 477 l 659 507 q 661 508 660 508 l 684 508 q 686 507 686 508 q 687 504 688 505 l 623 50 q 622 47 623 49 l 608 35 q 602 35 605 33 z "},"":{"ha":772,"x_min":116,"x_max":656,"o":"m 116 97 l 132 214 q 133 215 132 214 q 133 216 133 216 l 302 460 q 306 462 304 462 l 314 462 q 317 460 316 462 q 317 458 317 460 l 301 340 q 301 339 301 340 q 300 338 300 338 l 131 94 q 127 93 130 93 l 120 93 q 117 94 117 93 q 116 97 116 95 m 525 95 l 421 347 q 421 347 421 347 q 421 349 421 348 l 437 458 q 440 462 437 462 l 444 462 q 448 460 446 462 l 551 208 q 552 206 552 208 l 536 96 q 532 93 536 93 l 529 93 q 525 95 526 93 m 324 582 l 220 833 q 220 834 220 833 q 220 836 220 835 l 235 945 q 239 949 235 949 l 243 949 q 246 947 245 949 l 351 695 q 351 694 351 694 q 351 693 351 693 l 335 583 q 332 580 335 580 l 328 580 q 324 582 325 580 m 454 584 l 471 701 q 471 703 471 703 l 641 947 q 644 949 642 949 l 652 949 q 654 947 654 949 q 656 945 656 947 l 639 827 q 638 825 639 826 l 469 581 q 466 580 468 580 l 458 580 q 455 581 456 580 q 454 584 454 583 z "},"":{"ha":772,"x_min":16,"x_max":755,"o":"m 62 0 q 59 1 60 0 l 49 13 q 50 18 46 16 l 104 66 q 107 68 106 68 l 270 68 q 273 66 271 68 l 303 31 q 304 28 304 31 l 300 3 q 296 0 300 0 l 62 0 m 326 5 l 329 26 q 330 28 329 27 l 374 66 q 377 68 376 68 l 539 68 q 543 66 541 68 l 583 19 q 583 14 586 16 l 568 1 q 566 0 568 0 l 330 0 q 327 1 328 0 q 326 5 325 3 m 397 975 q 395 974 396 974 l 232 974 q 229 975 231 974 l 189 1023 q 189 1028 185 1025 l 203 1040 q 205 1042 205 1042 l 442 1042 q 445 1040 444 1042 q 446 1037 446 1038 l 443 1015 q 441 1013 443 1015 l 397 975 m 83 508 l 109 508 q 111 507 111 508 l 142 472 q 143 469 143 469 l 90 88 q 88 85 88 85 l 33 37 q 27 38 30 35 l 17 50 q 16 53 16 51 l 80 505 q 83 508 80 508 m 499 975 l 469 1010 q 468 1013 467 1012 l 471 1038 q 475 1042 471 1042 l 709 1042 q 712 1040 711 1042 l 723 1028 q 722 1023 725 1025 l 667 975 q 665 974 666 974 l 502 974 q 499 975 500 974 m 629 572 l 682 954 q 684 956 682 955 l 739 1004 q 744 1004 741 1006 l 754 991 q 755 989 755 990 l 692 536 q 688 533 692 533 l 663 533 q 660 534 661 533 l 629 570 q 629 572 629 570 m 602 35 l 561 83 q 560 85 560 83 l 615 475 q 616 478 615 477 l 659 507 q 661 508 660 508 l 684 508 q 686 507 686 508 q 687 504 688 505 l 623 50 q 622 47 623 49 l 608 35 q 602 35 605 33 m 149 994 l 164 1006 q 170 1006 167 1009 l 210 959 q 212 956 212 958 l 158 575 q 157 572 157 572 l 113 534 q 110 533 111 533 l 88 533 q 85 534 87 533 q 84 538 84 537 l 148 991 q 149 994 149 994 m 116 97 l 132 214 q 133 215 132 214 q 133 216 133 216 l 302 460 q 306 462 304 462 l 314 462 q 317 460 316 462 q 317 458 317 460 l 301 340 q 301 339 301 340 q 300 338 300 338 l 131 94 q 127 93 130 93 l 120 93 q 117 94 117 93 q 116 97 116 95 m 454 584 l 471 701 q 471 703 471 703 l 641 947 q 644 949 642 949 l 652 949 q 654 947 654 949 q 656 945 656 947 l 639 827 q 638 825 639 826 l 469 581 q 466 580 468 580 l 458 580 q 455 581 456 580 q 454 584 454 583 z "},"":{"ha":772,"x_min":16,"x_max":688,"o":"m 62 0 q 59 1 60 0 l 49 13 q 50 18 46 16 l 104 66 q 107 68 106 68 l 270 68 q 273 66 271 68 l 303 31 q 304 28 304 31 l 300 3 q 296 0 300 0 l 62 0 m 326 5 l 329 26 q 330 28 329 27 l 374 66 q 377 68 376 68 l 539 68 q 543 66 541 68 l 583 19 q 583 14 586 16 l 568 1 q 566 0 568 0 l 330 0 q 327 1 328 0 q 326 5 325 3 m 83 508 l 109 508 q 111 507 111 508 l 142 472 q 143 469 143 469 l 90 88 q 88 85 88 85 l 33 37 q 27 38 30 35 l 17 50 q 16 53 16 51 l 80 505 q 83 508 80 508 m 602 35 l 561 83 q 560 85 560 83 l 615 475 q 616 478 615 477 l 659 507 q 661 508 660 508 l 684 508 q 686 507 686 508 q 687 504 688 505 l 623 50 q 622 47 623 49 l 608 35 q 602 35 605 33 m 324 582 l 220 833 q 220 834 220 833 q 220 836 220 835 l 235 945 q 239 949 235 949 l 243 949 q 246 947 245 949 l 351 695 q 351 694 351 694 q 351 693 351 693 l 335 583 q 332 580 335 580 l 328 580 q 324 582 325 580 z "},"":{"ha":772,"x_min":16,"x_max":688,"o":"m 62 0 q 59 1 60 0 l 49 13 q 50 18 46 16 l 104 66 q 107 68 106 68 l 270 68 q 273 66 271 68 l 303 31 q 304 28 304 31 l 300 3 q 296 0 300 0 l 62 0 m 326 5 l 329 26 q 330 28 329 27 l 374 66 q 377 68 376 68 l 539 68 q 543 66 541 68 l 583 19 q 583 14 586 16 l 568 1 q 566 0 568 0 l 330 0 q 327 1 328 0 q 326 5 325 3 m 83 508 l 109 508 q 111 507 111 508 l 142 472 q 143 469 143 469 l 90 88 q 88 85 88 85 l 33 37 q 27 38 30 35 l 17 50 q 16 53 16 51 l 80 505 q 83 508 80 508 m 602 35 l 561 83 q 560 85 560 83 l 615 475 q 616 478 615 477 l 659 507 q 661 508 660 508 l 684 508 q 686 507 686 508 q 687 504 688 505 l 623 50 q 622 47 623 49 l 608 35 q 602 35 605 33 m 454 584 l 471 701 q 471 703 471 703 l 641 947 q 644 949 642 949 l 652 949 q 654 947 654 949 q 656 945 656 947 l 639 827 q 638 825 639 826 l 469 581 q 466 580 468 580 l 458 580 q 455 581 456 580 q 454 584 454 583 z "},"":{"ha":772,"x_min":16,"x_max":725,"o":"m 62 0 q 59 1 60 0 l 49 13 q 50 18 46 16 l 104 66 q 107 68 106 68 l 270 68 q 273 66 271 68 l 303 31 q 304 28 304 31 l 300 3 q 296 0 300 0 l 62 0 m 326 5 l 329 26 q 330 28 329 27 l 374 66 q 377 68 376 68 l 539 68 q 543 66 541 68 l 583 19 q 583 14 586 16 l 568 1 q 566 0 568 0 l 330 0 q 327 1 328 0 q 326 5 325 3 m 397 975 q 395 974 396 974 l 232 974 q 229 975 231 974 l 189 1023 q 189 1028 185 1025 l 203 1040 q 205 1042 205 1042 l 442 1042 q 445 1040 444 1042 q 446 1037 446 1038 l 443 1015 q 441 1013 443 1015 l 397 975 m 83 508 l 109 508 q 111 507 111 508 l 142 472 q 143 469 143 469 l 90 88 q 88 85 88 85 l 33 37 q 27 38 30 35 l 17 50 q 16 53 16 51 l 80 505 q 83 508 80 508 m 499 975 l 469 1010 q 468 1013 467 1012 l 471 1038 q 475 1042 471 1042 l 709 1042 q 712 1040 711 1042 l 723 1028 q 722 1023 725 1025 l 667 975 q 665 974 666 974 l 502 974 q 499 975 500 974 m 602 35 l 561 83 q 560 85 560 83 l 615 475 q 616 478 615 477 l 659 507 q 661 508 660 508 l 684 508 q 686 507 686 508 q 687 504 688 505 l 623 50 q 622 47 623 49 l 608 35 q 602 35 605 33 z "},"":{"ha":772,"x_min":16,"x_max":725,"o":"m 62 0 q 59 1 60 0 l 49 13 q 50 18 46 16 l 104 66 q 107 68 106 68 l 270 68 q 273 66 271 68 l 303 31 q 304 28 304 31 l 300 3 q 296 0 300 0 l 62 0 m 326 5 l 329 26 q 330 28 329 27 l 374 66 q 377 68 376 68 l 539 68 q 543 66 541 68 l 583 19 q 583 14 586 16 l 568 1 q 566 0 568 0 l 330 0 q 327 1 328 0 q 326 5 325 3 m 397 975 q 395 974 396 974 l 232 974 q 229 975 231 974 l 189 1023 q 189 1028 185 1025 l 203 1040 q 205 1042 205 1042 l 442 1042 q 445 1040 444 1042 q 446 1037 446 1038 l 443 1015 q 441 1013 443 1015 l 397 975 m 83 508 l 109 508 q 111 507 111 508 l 142 472 q 143 469 143 469 l 90 88 q 88 85 88 85 l 33 37 q 27 38 30 35 l 17 50 q 16 53 16 51 l 80 505 q 83 508 80 508 m 499 975 l 469 1010 q 468 1013 467 1012 l 471 1038 q 475 1042 471 1042 l 709 1042 q 712 1040 711 1042 l 723 1028 q 722 1023 725 1025 l 667 975 q 665 974 666 974 l 502 974 q 499 975 500 974 m 602 35 l 561 83 q 560 85 560 83 l 615 475 q 616 478 615 477 l 659 507 q 661 508 660 508 l 684 508 q 686 507 686 508 q 687 504 688 505 l 623 50 q 622 47 623 49 l 608 35 q 602 35 605 33 z "},"":{"ha":772,"x_min":46,"x_max":725,"o":"m 62 0 q 59 1 60 0 l 49 13 q 50 18 46 16 l 104 66 q 107 68 106 68 l 270 68 q 273 66 271 68 l 303 31 q 304 28 304 31 l 300 3 q 296 0 300 0 l 62 0 m 326 5 l 329 26 q 330 28 329 27 l 374 66 q 377 68 376 68 l 539 68 q 543 66 541 68 l 583 19 q 583 14 586 16 l 568 1 q 566 0 568 0 l 330 0 q 327 1 328 0 q 326 5 325 3 m 326 487 l 163 487 q 161 488 162 487 l 136 517 q 137 522 133 519 l 173 553 q 176 555 174 555 l 338 555 q 341 553 340 555 l 366 525 q 366 519 368 522 l 329 488 q 326 487 328 487 m 499 975 l 469 1010 q 468 1013 467 1012 l 471 1038 q 475 1042 471 1042 l 709 1042 q 712 1040 711 1042 l 723 1028 q 722 1023 725 1025 l 667 975 q 665 974 666 974 l 502 974 q 499 975 500 974 m 602 35 l 561 83 q 560 85 560 83 l 615 475 q 616 478 615 477 l 659 507 q 661 508 660 508 l 684 508 q 686 507 686 508 q 687 504 688 505 l 623 50 q 622 47 623 49 l 608 35 q 602 35 605 33 m 525 95 l 421 347 q 421 347 421 347 q 421 349 421 348 l 437 458 q 440 462 437 462 l 444 462 q 448 460 446 462 l 551 208 q 552 206 552 208 l 536 96 q 532 93 536 93 l 529 93 q 525 95 526 93 z "},"":{"ha":772,"x_min":16,"x_max":351,"o":"m 83 508 l 109 508 q 111 507 111 508 l 142 472 q 143 469 143 469 l 90 88 q 88 85 88 85 l 33 37 q 27 38 30 35 l 17 50 q 16 53 16 51 l 80 505 q 83 508 80 508 m 149 994 l 164 1006 q 170 1006 167 1009 l 210 959 q 212 956 212 958 l 158 575 q 157 572 157 572 l 113 534 q 110 533 111 533 l 88 533 q 85 534 87 533 q 84 538 84 537 l 148 991 q 149 994 149 994 m 116 97 l 132 214 q 133 215 132 214 q 133 216 133 216 l 302 460 q 306 462 304 462 l 314 462 q 317 460 316 462 q 317 458 317 460 l 301 340 q 301 339 301 340 q 300 338 300 338 l 131 94 q 127 93 130 93 l 120 93 q 117 94 117 93 q 116 97 116 95 m 324 582 l 220 833 q 220 834 220 833 q 220 836 220 835 l 235 945 q 239 949 235 949 l 243 949 q 246 947 245 949 l 351 695 q 351 694 351 694 q 351 693 351 693 l 335 583 q 332 580 335 580 l 328 580 q 324 582 325 580 z "},"":{"ha":772,"x_min":16,"x_max":725,"o":"m 326 5 l 329 26 q 330 28 329 27 l 374 66 q 377 68 376 68 l 539 68 q 543 66 541 68 l 583 19 q 583 14 586 16 l 568 1 q 566 0 568 0 l 330 0 q 327 1 328 0 q 326 5 325 3 m 397 975 q 395 974 396 974 l 232 974 q 229 975 231 974 l 189 1023 q 189 1028 185 1025 l 203 1040 q 205 1042 205 1042 l 442 1042 q 445 1040 444 1042 q 446 1037 446 1038 l 443 1015 q 441 1013 443 1015 l 397 975 m 431 488 l 406 517 q 406 522 404 519 l 443 553 q 446 555 444 555 l 608 555 q 611 553 608 555 l 635 525 q 635 519 637 521 l 599 488 q 596 487 598 487 l 433 487 q 431 488 432 487 m 83 508 l 109 508 q 111 507 111 508 l 142 472 q 143 469 143 469 l 90 88 q 88 85 88 85 l 33 37 q 27 38 30 35 l 17 50 q 16 53 16 51 l 80 505 q 83 508 80 508 m 499 975 l 469 1010 q 468 1013 467 1012 l 471 1038 q 475 1042 471 1042 l 709 1042 q 712 1040 711 1042 l 723 1028 q 722 1023 725 1025 l 667 975 q 665 974 666 974 l 502 974 q 499 975 500 974 m 602 35 l 561 83 q 560 85 560 83 l 615 475 q 616 478 615 477 l 659 507 q 661 508 660 508 l 684 508 q 686 507 686 508 q 687 504 688 505 l 623 50 q 622 47 623 49 l 608 35 q 602 35 605 33 m 149 994 l 164 1006 q 170 1006 167 1009 l 210 959 q 212 956 212 958 l 158 575 q 157 572 157 572 l 113 534 q 110 533 111 533 l 88 533 q 85 534 87 533 q 84 538 84 537 l 148 991 q 149 994 149 994 m 454 584 l 471 701 q 471 703 471 703 l 641 947 q 644 949 642 949 l 652 949 q 654 947 654 949 q 656 945 656 947 l 639 827 q 638 825 639 826 l 469 581 q 466 580 468 580 l 458 580 q 455 581 456 580 q 454 584 454 583 z "},"":{"ha":772,"x_min":16,"x_max":586,"o":"m 62 0 q 59 1 60 0 l 49 13 q 50 18 46 16 l 104 66 q 107 68 106 68 l 270 68 q 273 66 271 68 l 303 31 q 304 28 304 31 l 300 3 q 296 0 300 0 l 62 0 m 326 5 l 329 26 q 330 28 329 27 l 374 66 q 377 68 376 68 l 539 68 q 543 66 541 68 l 583 19 q 583 14 586 16 l 568 1 q 566 0 568 0 l 330 0 q 327 1 328 0 q 326 5 325 3 m 397 975 q 395 974 396 974 l 232 974 q 229 975 231 974 l 189 1023 q 189 1028 185 1025 l 203 1040 q 205 1042 205 1042 l 442 1042 q 445 1040 444 1042 q 446 1037 446 1038 l 443 1015 q 441 1013 443 1015 l 397 975 m 326 487 l 163 487 q 161 488 162 487 l 136 517 q 137 522 133 519 l 173 553 q 176 555 174 555 l 338 555 q 341 553 340 555 l 366 525 q 366 519 368 522 l 329 488 q 326 487 328 487 m 83 508 l 109 508 q 111 507 111 508 l 142 472 q 143 469 143 469 l 90 88 q 88 85 88 85 l 33 37 q 27 38 30 35 l 17 50 q 16 53 16 51 l 80 505 q 83 508 80 508 m 290 85 l 344 467 q 344 468 344 467 q 345 469 345 469 l 382 500 q 387 500 385 503 l 412 472 q 412 469 412 469 l 359 88 q 358 85 359 86 l 321 54 q 316 54 319 52 l 292 83 q 290 85 290 84 z "},"":{"ha":772,"x_min":16,"x_max":725,"o":"m 62 0 q 59 1 60 0 l 49 13 q 50 18 46 16 l 104 66 q 107 68 106 68 l 270 68 q 273 66 271 68 l 303 31 q 304 28 304 31 l 300 3 q 296 0 300 0 l 62 0 m 326 5 l 329 26 q 330 28 329 27 l 374 66 q 377 68 376 68 l 539 68 q 543 66 541 68 l 583 19 q 583 14 586 16 l 568 1 q 566 0 568 0 l 330 0 q 327 1 328 0 q 326 5 325 3 m 326 487 l 163 487 q 161 488 162 487 l 136 517 q 137 522 133 519 l 173 553 q 176 555 174 555 l 338 555 q 341 553 340 555 l 366 525 q 366 519 368 522 l 329 488 q 326 487 328 487 m 83 508 l 109 508 q 111 507 111 508 l 142 472 q 143 469 143 469 l 90 88 q 88 85 88 85 l 33 37 q 27 38 30 35 l 17 50 q 16 53 16 51 l 80 505 q 83 508 80 508 m 290 85 l 344 467 q 344 468 344 467 q 345 469 345 469 l 382 500 q 387 500 385 503 l 412 472 q 412 469 412 469 l 359 88 q 358 85 359 86 l 321 54 q 316 54 319 52 l 292 83 q 290 85 290 84 m 499 975 l 469 1010 q 468 1013 467 1012 l 471 1038 q 475 1042 471 1042 l 709 1042 q 712 1040 711 1042 l 723 1028 q 722 1023 725 1025 l 667 975 q 665 974 666 974 l 502 974 q 499 975 500 974 z "},"":{"ha":772,"x_min":16,"x_max":725,"o":"m 62 0 q 59 1 60 0 l 49 13 q 50 18 46 16 l 104 66 q 107 68 106 68 l 270 68 q 273 66 271 68 l 303 31 q 304 28 304 31 l 300 3 q 296 0 300 0 l 62 0 m 326 5 l 329 26 q 330 28 329 27 l 374 66 q 377 68 376 68 l 539 68 q 543 66 541 68 l 583 19 q 583 14 586 16 l 568 1 q 566 0 568 0 l 330 0 q 327 1 328 0 q 326 5 325 3 m 397 975 q 395 974 396 974 l 232 974 q 229 975 231 974 l 189 1023 q 189 1028 185 1025 l 203 1040 q 205 1042 205 1042 l 442 1042 q 445 1040 444 1042 q 446 1037 446 1038 l 443 1015 q 441 1013 443 1015 l 397 975 m 326 487 l 163 487 q 161 488 162 487 l 136 517 q 137 522 133 519 l 173 553 q 176 555 174 555 l 338 555 q 341 553 340 555 l 366 525 q 366 519 368 522 l 329 488 q 326 487 328 487 m 83 508 l 109 508 q 111 507 111 508 l 142 472 q 143 469 143 469 l 90 88 q 88 85 88 85 l 33 37 q 27 38 30 35 l 17 50 q 16 53 16 51 l 80 505 q 83 508 80 508 m 290 85 l 344 467 q 344 468 344 467 q 345 469 345 469 l 382 500 q 387 500 385 503 l 412 472 q 412 469 412 469 l 359 88 q 358 85 359 86 l 321 54 q 316 54 319 52 l 292 83 q 290 85 290 84 m 499 975 l 469 1010 q 468 1013 467 1012 l 471 1038 q 475 1042 471 1042 l 709 1042 q 712 1040 711 1042 l 723 1028 q 722 1023 725 1025 l 667 975 q 665 974 666 974 l 502 974 q 499 975 500 974 z "},"":{"ha":772,"x_min":16,"x_max":725,"o":"m 62 0 q 59 1 60 0 l 49 13 q 50 18 46 16 l 104 66 q 107 68 106 68 l 270 68 q 273 66 271 68 l 303 31 q 304 28 304 31 l 300 3 q 296 0 300 0 l 62 0 m 326 5 l 329 26 q 330 28 329 27 l 374 66 q 377 68 376 68 l 539 68 q 543 66 541 68 l 583 19 q 583 14 586 16 l 568 1 q 566 0 568 0 l 330 0 q 327 1 328 0 q 326 5 325 3 m 397 975 q 395 974 396 974 l 232 974 q 229 975 231 974 l 189 1023 q 189 1028 185 1025 l 203 1040 q 205 1042 205 1042 l 442 1042 q 445 1040 444 1042 q 446 1037 446 1038 l 443 1015 q 441 1013 443 1015 l 397 975 m 326 487 l 163 487 q 161 488 162 487 l 136 517 q 137 522 133 519 l 173 553 q 176 555 174 555 l 338 555 q 341 553 340 555 l 366 525 q 366 519 368 522 l 329 488 q 326 487 328 487 m 83 508 l 109 508 q 111 507 111 508 l 142 472 q 143 469 143 469 l 90 88 q 88 85 88 85 l 33 37 q 27 38 30 35 l 17 50 q 16 53 16 51 l 80 505 q 83 508 80 508 m 290 85 l 344 467 q 344 468 344 467 q 345 469 345 469 l 382 500 q 387 500 385 503 l 412 472 q 412 469 412 469 l 359 88 q 358 85 359 86 l 321 54 q 316 54 319 52 l 292 83 q 290 85 290 84 m 499 975 l 469 1010 q 468 1013 467 1012 l 471 1038 q 475 1042 471 1042 l 709 1042 q 712 1040 711 1042 l 723 1028 q 722 1023 725 1025 l 667 975 q 665 974 666 974 l 502 974 q 499 975 500 974 z "},"":{"ha":772,"x_min":16,"x_max":725,"o":"m 62 0 q 59 1 60 0 l 49 13 q 50 18 46 16 l 104 66 q 107 68 106 68 l 270 68 q 273 66 271 68 l 303 31 q 304 28 304 31 l 300 3 q 296 0 300 0 l 62 0 m 326 5 l 329 26 q 330 28 329 27 l 374 66 q 377 68 376 68 l 539 68 q 543 66 541 68 l 583 19 q 583 14 586 16 l 568 1 q 566 0 568 0 l 330 0 q 327 1 328 0 q 326 5 325 3 m 397 975 q 395 974 396 974 l 232 974 q 229 975 231 974 l 189 1023 q 189 1028 185 1025 l 203 1040 q 205 1042 205 1042 l 442 1042 q 445 1040 444 1042 q 446 1037 446 1038 l 443 1015 q 441 1013 443 1015 l 397 975 m 326 487 l 163 487 q 161 488 162 487 l 136 517 q 137 522 133 519 l 173 553 q 176 555 174 555 l 338 555 q 341 553 340 555 l 366 525 q 366 519 368 522 l 329 488 q 326 487 328 487 m 83 508 l 109 508 q 111 507 111 508 l 142 472 q 143 469 143 469 l 90 88 q 88 85 88 85 l 33 37 q 27 38 30 35 l 17 50 q 16 53 16 51 l 80 505 q 83 508 80 508 m 290 85 l 344 467 q 344 468 344 467 q 345 469 345 469 l 382 500 q 387 500 385 503 l 412 472 q 412 469 412 469 l 359 88 q 358 85 359 86 l 321 54 q 316 54 319 52 l 292 83 q 290 85 290 84 m 499 975 l 469 1010 q 468 1013 467 1012 l 471 1038 q 475 1042 471 1042 l 709 1042 q 712 1040 711 1042 l 723 1028 q 722 1023 725 1025 l 667 975 q 665 974 666 974 l 502 974 q 499 975 500 974 z "},"":{"ha":772,"x_min":16,"x_max":586,"o":"m 62 0 q 59 1 60 0 l 49 13 q 50 18 46 16 l 104 66 q 107 68 106 68 l 270 68 q 273 66 271 68 l 303 31 q 304 28 304 31 l 300 3 q 296 0 300 0 l 62 0 m 326 5 l 329 26 q 330 28 329 27 l 374 66 q 377 68 376 68 l 539 68 q 543 66 541 68 l 583 19 q 583 14 586 16 l 568 1 q 566 0 568 0 l 330 0 q 327 1 328 0 q 326 5 325 3 m 397 975 q 395 974 396 974 l 232 974 q 229 975 231 974 l 189 1023 q 189 1028 185 1025 l 203 1040 q 205 1042 205 1042 l 442 1042 q 445 1040 444 1042 q 446 1037 446 1038 l 443 1015 q 441 1013 443 1015 l 397 975 m 326 487 l 163 487 q 161 488 162 487 l 136 517 q 137 522 133 519 l 173 553 q 176 555 174 555 l 338 555 q 341 553 340 555 l 366 525 q 366 519 368 522 l 329 488 q 326 487 328 487 m 83 508 l 109 508 q 111 507 111 508 l 142 472 q 143 469 143 469 l 90 88 q 88 85 88 85 l 33 37 q 27 38 30 35 l 17 50 q 16 53 16 51 l 80 505 q 83 508 80 508 m 290 85 l 344 467 q 344 468 344 467 q 345 469 345 469 l 382 500 q 387 500 385 503 l 412 472 q 412 469 412 469 l 359 88 q 358 85 359 86 l 321 54 q 316 54 319 52 l 292 83 q 290 85 290 84 z "},"":{"ha":772,"x_min":16,"x_max":755,"o":"m 62 0 q 59 1 60 0 l 49 13 q 50 18 46 16 l 104 66 q 107 68 106 68 l 270 68 q 273 66 271 68 l 303 31 q 304 28 304 31 l 300 3 q 296 0 300 0 l 62 0 m 326 5 l 329 26 q 330 28 329 27 l 374 66 q 377 68 376 68 l 539 68 q 543 66 541 68 l 583 19 q 583 14 586 16 l 568 1 q 566 0 568 0 l 330 0 q 327 1 328 0 q 326 5 325 3 m 397 975 q 395 974 396 974 l 232 974 q 229 975 231 974 l 189 1023 q 189 1028 185 1025 l 203 1040 q 205 1042 205 1042 l 442 1042 q 445 1040 444 1042 q 446 1037 446 1038 l 443 1015 q 441 1013 443 1015 l 397 975 m 412 954 q 414 956 414 956 l 450 987 q 456 987 453 990 l 480 959 q 481 956 481 958 l 427 575 q 427 572 427 573 l 390 541 q 385 541 387 538 l 360 570 q 359 572 359 571 l 412 954 m 326 487 l 163 487 q 161 488 162 487 l 136 517 q 137 522 133 519 l 173 553 q 176 555 174 555 l 338 555 q 341 553 340 555 l 366 525 q 366 519 368 522 l 329 488 q 326 487 328 487 m 431 488 l 406 517 q 406 522 404 519 l 443 553 q 446 555 444 555 l 608 555 q 611 553 608 555 l 635 525 q 635 519 637 521 l 599 488 q 596 487 598 487 l 433 487 q 431 488 432 487 m 83 508 l 109 508 q 111 507 111 508 l 142 472 q 143 469 143 469 l 90 88 q 88 85 88 85 l 33 37 q 27 38 30 35 l 17 50 q 16 53 16 51 l 80 505 q 83 508 80 508 m 290 85 l 344 467 q 344 468 344 467 q 345 469 345 469 l 382 500 q 387 500 385 503 l 412 472 q 412 469 412 469 l 359 88 q 358 85 359 86 l 321 54 q 316 54 319 52 l 292 83 q 290 85 290 84 m 499 975 l 469 1010 q 468 1013 467 1012 l 471 1038 q 475 1042 471 1042 l 709 1042 q 712 1040 711 1042 l 723 1028 q 722 1023 725 1025 l 667 975 q 665 974 666 974 l 502 974 q 499 975 500 974 m 629 572 l 682 954 q 684 956 682 955 l 739 1004 q 744 1004 741 1006 l 754 991 q 755 989 755 990 l 692 536 q 688 533 692 533 l 663 533 q 660 534 661 533 l 629 570 q 629 572 629 570 z "},"":{"ha":772,"x_min":84,"x_max":725,"o":"m 397 975 q 395 974 396 974 l 232 974 q 229 975 231 974 l 189 1023 q 189 1028 185 1025 l 203 1040 q 205 1042 205 1042 l 442 1042 q 445 1040 444 1042 q 446 1037 446 1038 l 443 1015 q 441 1013 443 1015 l 397 975 m 326 487 l 163 487 q 161 488 162 487 l 136 517 q 137 522 133 519 l 173 553 q 176 555 174 555 l 338 555 q 341 553 340 555 l 366 525 q 366 519 368 522 l 329 488 q 326 487 328 487 m 431 488 l 406 517 q 406 522 404 519 l 443 553 q 446 555 444 555 l 608 555 q 611 553 608 555 l 635 525 q 635 519 637 521 l 599 488 q 596 487 598 487 l 433 487 q 431 488 432 487 m 290 85 l 344 467 q 344 468 344 467 q 345 469 345 469 l 382 500 q 387 500 385 503 l 412 472 q 412 469 412 469 l 359 88 q 358 85 359 86 l 321 54 q 316 54 319 52 l 292 83 q 290 85 290 84 m 499 975 l 469 1010 q 468 1013 467 1012 l 471 1038 q 475 1042 471 1042 l 709 1042 q 712 1040 711 1042 l 723 1028 q 722 1023 725 1025 l 667 975 q 665 974 666 974 l 502 974 q 499 975 500 974 m 149 994 l 164 1006 q 170 1006 167 1009 l 210 959 q 212 956 212 958 l 158 575 q 157 572 157 572 l 113 534 q 110 533 111 533 l 88 533 q 85 534 87 533 q 84 538 84 537 l 148 991 q 149 994 149 994 z "},"":{"ha":772,"x_min":16,"x_max":586,"o":"m 62 0 q 59 1 60 0 l 49 13 q 50 18 46 16 l 104 66 q 107 68 106 68 l 270 68 q 273 66 271 68 l 303 31 q 304 28 304 31 l 300 3 q 296 0 300 0 l 62 0 m 326 5 l 329 26 q 330 28 329 27 l 374 66 q 377 68 376 68 l 539 68 q 543 66 541 68 l 583 19 q 583 14 586 16 l 568 1 q 566 0 568 0 l 330 0 q 327 1 328 0 q 326 5 325 3 m 397 975 q 395 974 396 974 l 232 974 q 229 975 231 974 l 189 1023 q 189 1028 185 1025 l 203 1040 q 205 1042 205 1042 l 442 1042 q 445 1040 444 1042 q 446 1037 446 1038 l 443 1015 q 441 1013 443 1015 l 397 975 m 326 487 l 163 487 q 161 488 162 487 l 136 517 q 137 522 133 519 l 173 553 q 176 555 174 555 l 338 555 q 341 553 340 555 l 366 525 q 366 519 368 522 l 329 488 q 326 487 328 487 m 83 508 l 109 508 q 111 507 111 508 l 142 472 q 143 469 143 469 l 90 88 q 88 85 88 85 l 33 37 q 27 38 30 35 l 17 50 q 16 53 16 51 l 80 505 q 83 508 80 508 m 116 97 l 132 214 q 133 215 132 214 q 133 216 133 216 l 302 460 q 306 462 304 462 l 314 462 q 317 460 316 462 q 317 458 317 460 l 301 340 q 301 339 301 340 q 300 338 300 338 l 131 94 q 127 93 130 93 l 120 93 q 117 94 117 93 q 116 97 116 95 z "},"":{"ha":772,"x_min":16,"x_max":725,"o":"m 62 0 q 59 1 60 0 l 49 13 q 50 18 46 16 l 104 66 q 107 68 106 68 l 270 68 q 273 66 271 68 l 303 31 q 304 28 304 31 l 300 3 q 296 0 300 0 l 62 0 m 326 5 l 329 26 q 330 28 329 27 l 374 66 q 377 68 376 68 l 539 68 q 543 66 541 68 l 583 19 q 583 14 586 16 l 568 1 q 566 0 568 0 l 330 0 q 327 1 328 0 q 326 5 325 3 m 326 487 l 163 487 q 161 488 162 487 l 136 517 q 137 522 133 519 l 173 553 q 176 555 174 555 l 338 555 q 341 553 340 555 l 366 525 q 366 519 368 522 l 329 488 q 326 487 328 487 m 83 508 l 109 508 q 111 507 111 508 l 142 472 q 143 469 143 469 l 90 88 q 88 85 88 85 l 33 37 q 27 38 30 35 l 17 50 q 16 53 16 51 l 80 505 q 83 508 80 508 m 499 975 l 469 1010 q 468 1013 467 1012 l 471 1038 q 475 1042 471 1042 l 709 1042 q 712 1040 711 1042 l 723 1028 q 722 1023 725 1025 l 667 975 q 665 974 666 974 l 502 974 q 499 975 500 974 m 116 97 l 132 214 q 133 215 132 214 q 133 216 133 216 l 302 460 q 306 462 304 462 l 314 462 q 317 460 316 462 q 317 458 317 460 l 301 340 q 301 339 301 340 q 300 338 300 338 l 131 94 q 127 93 130 93 l 120 93 q 117 94 117 93 q 116 97 116 95 z "},"":{"ha":772,"x_min":16,"x_max":725,"o":"m 62 0 q 59 1 60 0 l 49 13 q 50 18 46 16 l 104 66 q 107 68 106 68 l 270 68 q 273 66 271 68 l 303 31 q 304 28 304 31 l 300 3 q 296 0 300 0 l 62 0 m 326 5 l 329 26 q 330 28 329 27 l 374 66 q 377 68 376 68 l 539 68 q 543 66 541 68 l 583 19 q 583 14 586 16 l 568 1 q 566 0 568 0 l 330 0 q 327 1 328 0 q 326 5 325 3 m 397 975 q 395 974 396 974 l 232 974 q 229 975 231 974 l 189 1023 q 189 1028 185 1025 l 203 1040 q 205 1042 205 1042 l 442 1042 q 445 1040 444 1042 q 446 1037 446 1038 l 443 1015 q 441 1013 443 1015 l 397 975 m 326 487 l 163 487 q 161 488 162 487 l 136 517 q 137 522 133 519 l 173 553 q 176 555 174 555 l 338 555 q 341 553 340 555 l 366 525 q 366 519 368 522 l 329 488 q 326 487 328 487 m 83 508 l 109 508 q 111 507 111 508 l 142 472 q 143 469 143 469 l 90 88 q 88 85 88 85 l 33 37 q 27 38 30 35 l 17 50 q 16 53 16 51 l 80 505 q 83 508 80 508 m 499 975 l 469 1010 q 468 1013 467 1012 l 471 1038 q 475 1042 471 1042 l 709 1042 q 712 1040 711 1042 l 723 1028 q 722 1023 725 1025 l 667 975 q 665 974 666 974 l 502 974 q 499 975 500 974 m 116 97 l 132 214 q 133 215 132 214 q 133 216 133 216 l 302 460 q 306 462 304 462 l 314 462 q 317 460 316 462 q 317 458 317 460 l 301 340 q 301 339 301 340 q 300 338 300 338 l 131 94 q 127 93 130 93 l 120 93 q 117 94 117 93 q 116 97 116 95 z "},"":{"ha":772,"x_min":16,"x_max":725,"o":"m 62 0 q 59 1 60 0 l 49 13 q 50 18 46 16 l 104 66 q 107 68 106 68 l 270 68 q 273 66 271 68 l 303 31 q 304 28 304 31 l 300 3 q 296 0 300 0 l 62 0 m 326 5 l 329 26 q 330 28 329 27 l 374 66 q 377 68 376 68 l 539 68 q 543 66 541 68 l 583 19 q 583 14 586 16 l 568 1 q 566 0 568 0 l 330 0 q 327 1 328 0 q 326 5 325 3 m 397 975 q 395 974 396 974 l 232 974 q 229 975 231 974 l 189 1023 q 189 1028 185 1025 l 203 1040 q 205 1042 205 1042 l 442 1042 q 445 1040 444 1042 q 446 1037 446 1038 l 443 1015 q 441 1013 443 1015 l 397 975 m 326 487 l 163 487 q 161 488 162 487 l 136 517 q 137 522 133 519 l 173 553 q 176 555 174 555 l 338 555 q 341 553 340 555 l 366 525 q 366 519 368 522 l 329 488 q 326 487 328 487 m 83 508 l 109 508 q 111 507 111 508 l 142 472 q 143 469 143 469 l 90 88 q 88 85 88 85 l 33 37 q 27 38 30 35 l 17 50 q 16 53 16 51 l 80 505 q 83 508 80 508 m 499 975 l 469 1010 q 468 1013 467 1012 l 471 1038 q 475 1042 471 1042 l 709 1042 q 712 1040 711 1042 l 723 1028 q 722 1023 725 1025 l 667 975 q 665 974 666 974 l 502 974 q 499 975 500 974 m 116 97 l 132 214 q 133 215 132 214 q 133 216 133 216 l 302 460 q 306 462 304 462 l 314 462 q 317 460 316 462 q 317 458 317 460 l 301 340 q 301 339 301 340 q 300 338 300 338 l 131 94 q 127 93 130 93 l 120 93 q 117 94 117 93 q 116 97 116 95 z "},"":{"ha":772,"x_min":46,"x_max":586,"o":"m 62 0 q 59 1 60 0 l 49 13 q 50 18 46 16 l 104 66 q 107 68 106 68 l 270 68 q 273 66 271 68 l 303 31 q 304 28 304 31 l 300 3 q 296 0 300 0 l 62 0 m 326 5 l 329 26 q 330 28 329 27 l 374 66 q 377 68 376 68 l 539 68 q 543 66 541 68 l 583 19 q 583 14 586 16 l 568 1 q 566 0 568 0 l 330 0 q 327 1 328 0 q 326 5 325 3 m 397 975 q 395 974 396 974 l 232 974 q 229 975 231 974 l 189 1023 q 189 1028 185 1025 l 203 1040 q 205 1042 205 1042 l 442 1042 q 445 1040 444 1042 q 446 1037 446 1038 l 443 1015 q 441 1013 443 1015 l 397 975 m 326 487 l 163 487 q 161 488 162 487 l 136 517 q 137 522 133 519 l 173 553 q 176 555 174 555 l 338 555 q 341 553 340 555 l 366 525 q 366 519 368 522 l 329 488 q 326 487 328 487 m 290 85 l 344 467 q 344 468 344 467 q 345 469 345 469 l 382 500 q 387 500 385 503 l 412 472 q 412 469 412 469 l 359 88 q 358 85 359 86 l 321 54 q 316 54 319 52 l 292 83 q 290 85 290 84 z "},"":{"ha":772,"x_min":46,"x_max":725,"o":"m 62 0 q 59 1 60 0 l 49 13 q 50 18 46 16 l 104 66 q 107 68 106 68 l 270 68 q 273 66 271 68 l 303 31 q 304 28 304 31 l 300 3 q 296 0 300 0 l 62 0 m 326 5 l 329 26 q 330 28 329 27 l 374 66 q 377 68 376 68 l 539 68 q 543 66 541 68 l 583 19 q 583 14 586 16 l 568 1 q 566 0 568 0 l 330 0 q 327 1 328 0 q 326 5 325 3 m 326 487 l 163 487 q 161 488 162 487 l 136 517 q 137 522 133 519 l 173 553 q 176 555 174 555 l 338 555 q 341 553 340 555 l 366 525 q 366 519 368 522 l 329 488 q 326 487 328 487 m 290 85 l 344 467 q 344 468 344 467 q 345 469 345 469 l 382 500 q 387 500 385 503 l 412 472 q 412 469 412 469 l 359 88 q 358 85 359 86 l 321 54 q 316 54 319 52 l 292 83 q 290 85 290 84 m 499 975 l 469 1010 q 468 1013 467 1012 l 471 1038 q 475 1042 471 1042 l 709 1042 q 712 1040 711 1042 l 723 1028 q 722 1023 725 1025 l 667 975 q 665 974 666 974 l 502 974 q 499 975 500 974 z "},"":{"ha":772,"x_min":46,"x_max":725,"o":"m 62 0 q 59 1 60 0 l 49 13 q 50 18 46 16 l 104 66 q 107 68 106 68 l 270 68 q 273 66 271 68 l 303 31 q 304 28 304 31 l 300 3 q 296 0 300 0 l 62 0 m 326 5 l 329 26 q 330 28 329 27 l 374 66 q 377 68 376 68 l 539 68 q 543 66 541 68 l 583 19 q 583 14 586 16 l 568 1 q 566 0 568 0 l 330 0 q 327 1 328 0 q 326 5 325 3 m 397 975 q 395 974 396 974 l 232 974 q 229 975 231 974 l 189 1023 q 189 1028 185 1025 l 203 1040 q 205 1042 205 1042 l 442 1042 q 445 1040 444 1042 q 446 1037 446 1038 l 443 1015 q 441 1013 443 1015 l 397 975 m 326 487 l 163 487 q 161 488 162 487 l 136 517 q 137 522 133 519 l 173 553 q 176 555 174 555 l 338 555 q 341 553 340 555 l 366 525 q 366 519 368 522 l 329 488 q 326 487 328 487 m 290 85 l 344 467 q 344 468 344 467 q 345 469 345 469 l 382 500 q 387 500 385 503 l 412 472 q 412 469 412 469 l 359 88 q 358 85 359 86 l 321 54 q 316 54 319 52 l 292 83 q 290 85 290 84 m 499 975 l 469 1010 q 468 1013 467 1012 l 471 1038 q 475 1042 471 1042 l 709 1042 q 712 1040 711 1042 l 723 1028 q 722 1023 725 1025 l 667 975 q 665 974 666 974 l 502 974 q 499 975 500 974 z "},"":{"ha":772,"x_min":46,"x_max":725,"o":"m 62 0 q 59 1 60 0 l 49 13 q 50 18 46 16 l 104 66 q 107 68 106 68 l 270 68 q 273 66 271 68 l 303 31 q 304 28 304 31 l 300 3 q 296 0 300 0 l 62 0 m 326 5 l 329 26 q 330 28 329 27 l 374 66 q 377 68 376 68 l 539 68 q 543 66 541 68 l 583 19 q 583 14 586 16 l 568 1 q 566 0 568 0 l 330 0 q 327 1 328 0 q 326 5 325 3 m 397 975 q 395 974 396 974 l 232 974 q 229 975 231 974 l 189 1023 q 189 1028 185 1025 l 203 1040 q 205 1042 205 1042 l 442 1042 q 445 1040 444 1042 q 446 1037 446 1038 l 443 1015 q 441 1013 443 1015 l 397 975 m 326 487 l 163 487 q 161 488 162 487 l 136 517 q 137 522 133 519 l 173 553 q 176 555 174 555 l 338 555 q 341 553 340 555 l 366 525 q 366 519 368 522 l 329 488 q 326 487 328 487 m 290 85 l 344 467 q 344 468 344 467 q 345 469 345 469 l 382 500 q 387 500 385 503 l 412 472 q 412 469 412 469 l 359 88 q 358 85 359 86 l 321 54 q 316 54 319 52 l 292 83 q 290 85 290 84 m 499 975 l 469 1010 q 468 1013 467 1012 l 471 1038 q 475 1042 471 1042 l 709 1042 q 712 1040 711 1042 l 723 1028 q 722 1023 725 1025 l 667 975 q 665 974 666 974 l 502 974 q 499 975 500 974 z "},"":{"ha":772,"x_min":16,"x_max":586,"o":"m 62 0 q 59 1 60 0 l 49 13 q 50 18 46 16 l 104 66 q 107 68 106 68 l 270 68 q 273 66 271 68 l 303 31 q 304 28 304 31 l 300 3 q 296 0 300 0 l 62 0 m 326 5 l 329 26 q 330 28 329 27 l 374 66 q 377 68 376 68 l 539 68 q 543 66 541 68 l 583 19 q 583 14 586 16 l 568 1 q 566 0 568 0 l 330 0 q 327 1 328 0 q 326 5 325 3 m 397 975 q 395 974 396 974 l 232 974 q 229 975 231 974 l 189 1023 q 189 1028 185 1025 l 203 1040 q 205 1042 205 1042 l 442 1042 q 445 1040 444 1042 q 446 1037 446 1038 l 443 1015 q 441 1013 443 1015 l 397 975 m 326 487 l 163 487 q 161 488 162 487 l 136 517 q 137 522 133 519 l 173 553 q 176 555 174 555 l 338 555 q 341 553 340 555 l 366 525 q 366 519 368 522 l 329 488 q 326 487 328 487 m 83 508 l 109 508 q 111 507 111 508 l 142 472 q 143 469 143 469 l 90 88 q 88 85 88 85 l 33 37 q 27 38 30 35 l 17 50 q 16 53 16 51 l 80 505 q 83 508 80 508 m 525 95 l 421 347 q 421 347 421 347 q 421 349 421 348 l 437 458 q 440 462 437 462 l 444 462 q 448 460 446 462 l 551 208 q 552 206 552 208 l 536 96 q 532 93 536 93 l 529 93 q 525 95 526 93 m 324 582 l 220 833 q 220 834 220 833 q 220 836 220 835 l 235 945 q 239 949 235 949 l 243 949 q 246 947 245 949 l 351 695 q 351 694 351 694 q 351 693 351 693 l 335 583 q 332 580 335 580 l 328 580 q 324 582 325 580 z "},"":{"ha":772,"x_min":16,"x_max":725,"o":"m 397 975 q 395 974 396 974 l 232 974 q 229 975 231 974 l 189 1023 q 189 1028 185 1025 l 203 1040 q 205 1042 205 1042 l 442 1042 q 445 1040 444 1042 q 446 1037 446 1038 l 443 1015 q 441 1013 443 1015 l 397 975 m 326 487 l 163 487 q 161 488 162 487 l 136 517 q 137 522 133 519 l 173 553 q 176 555 174 555 l 338 555 q 341 553 340 555 l 366 525 q 366 519 368 522 l 329 488 q 326 487 328 487 m 431 488 l 406 517 q 406 522 404 519 l 443 553 q 446 555 444 555 l 608 555 q 611 553 608 555 l 635 525 q 635 519 637 521 l 599 488 q 596 487 598 487 l 433 487 q 431 488 432 487 m 83 508 l 109 508 q 111 507 111 508 l 142 472 q 143 469 143 469 l 90 88 q 88 85 88 85 l 33 37 q 27 38 30 35 l 17 50 q 16 53 16 51 l 80 505 q 83 508 80 508 m 499 975 l 469 1010 q 468 1013 467 1012 l 471 1038 q 475 1042 471 1042 l 709 1042 q 712 1040 711 1042 l 723 1028 q 722 1023 725 1025 l 667 975 q 665 974 666 974 l 502 974 q 499 975 500 974 m 602 35 l 561 83 q 560 85 560 83 l 615 475 q 616 478 615 477 l 659 507 q 661 508 660 508 l 684 508 q 686 507 686 508 q 687 504 688 505 l 623 50 q 622 47 623 49 l 608 35 q 602 35 605 33 z "},"":{"ha":772,"x_min":16,"x_max":446,"o":"m 62 0 q 59 1 60 0 l 49 13 q 50 18 46 16 l 104 66 q 107 68 106 68 l 270 68 q 273 66 271 68 l 303 31 q 304 28 304 31 l 300 3 q 296 0 300 0 l 62 0 m 397 975 q 395 974 396 974 l 232 974 q 229 975 231 974 l 189 1023 q 189 1028 185 1025 l 203 1040 q 205 1042 205 1042 l 442 1042 q 445 1040 444 1042 q 446 1037 446 1038 l 443 1015 q 441 1013 443 1015 l 397 975 m 326 487 l 163 487 q 161 488 162 487 l 136 517 q 137 522 133 519 l 173 553 q 176 555 174 555 l 338 555 q 341 553 340 555 l 366 525 q 366 519 368 522 l 329 488 q 326 487 328 487 m 83 508 l 109 508 q 111 507 111 508 l 142 472 q 143 469 143 469 l 90 88 q 88 85 88 85 l 33 37 q 27 38 30 35 l 17 50 q 16 53 16 51 l 80 505 q 83 508 80 508 m 290 85 l 344 467 q 344 468 344 467 q 345 469 345 469 l 382 500 q 387 500 385 503 l 412 472 q 412 469 412 469 l 359 88 q 358 85 359 86 l 321 54 q 316 54 319 52 l 292 83 q 290 85 290 84 z "},"":{"ha":772,"x_min":16,"x_max":725,"o":"m 62 0 q 59 1 60 0 l 49 13 q 50 18 46 16 l 104 66 q 107 68 106 68 l 270 68 q 273 66 271 68 l 303 31 q 304 28 304 31 l 300 3 q 296 0 300 0 l 62 0 m 326 487 l 163 487 q 161 488 162 487 l 136 517 q 137 522 133 519 l 173 553 q 176 555 174 555 l 338 555 q 341 553 340 555 l 366 525 q 366 519 368 522 l 329 488 q 326 487 328 487 m 83 508 l 109 508 q 111 507 111 508 l 142 472 q 143 469 143 469 l 90 88 q 88 85 88 85 l 33 37 q 27 38 30 35 l 17 50 q 16 53 16 51 l 80 505 q 83 508 80 508 m 290 85 l 344 467 q 344 468 344 467 q 345 469 345 469 l 382 500 q 387 500 385 503 l 412 472 q 412 469 412 469 l 359 88 q 358 85 359 86 l 321 54 q 316 54 319 52 l 292 83 q 290 85 290 84 m 499 975 l 469 1010 q 468 1013 467 1012 l 471 1038 q 475 1042 471 1042 l 709 1042 q 712 1040 711 1042 l 723 1028 q 722 1023 725 1025 l 667 975 q 665 974 666 974 l 502 974 q 499 975 500 974 z "},"":{"ha":772,"x_min":16,"x_max":725,"o":"m 62 0 q 59 1 60 0 l 49 13 q 50 18 46 16 l 104 66 q 107 68 106 68 l 270 68 q 273 66 271 68 l 303 31 q 304 28 304 31 l 300 3 q 296 0 300 0 l 62 0 m 397 975 q 395 974 396 974 l 232 974 q 229 975 231 974 l 189 1023 q 189 1028 185 1025 l 203 1040 q 205 1042 205 1042 l 442 1042 q 445 1040 444 1042 q 446 1037 446 1038 l 443 1015 q 441 1013 443 1015 l 397 975 m 326 487 l 163 487 q 161 488 162 487 l 136 517 q 137 522 133 519 l 173 553 q 176 555 174 555 l 338 555 q 341 553 340 555 l 366 525 q 366 519 368 522 l 329 488 q 326 487 328 487 m 83 508 l 109 508 q 111 507 111 508 l 142 472 q 143 469 143 469 l 90 88 q 88 85 88 85 l 33 37 q 27 38 30 35 l 17 50 q 16 53 16 51 l 80 505 q 83 508 80 508 m 290 85 l 344 467 q 344 468 344 467 q 345 469 345 469 l 382 500 q 387 500 385 503 l 412 472 q 412 469 412 469 l 359 88 q 358 85 359 86 l 321 54 q 316 54 319 52 l 292 83 q 290 85 290 84 m 499 975 l 469 1010 q 468 1013 467 1012 l 471 1038 q 475 1042 471 1042 l 709 1042 q 712 1040 711 1042 l 723 1028 q 722 1023 725 1025 l 667 975 q 665 974 666 974 l 502 974 q 499 975 500 974 z "},"":{"ha":772,"x_min":16,"x_max":725,"o":"m 62 0 q 59 1 60 0 l 49 13 q 50 18 46 16 l 104 66 q 107 68 106 68 l 270 68 q 273 66 271 68 l 303 31 q 304 28 304 31 l 300 3 q 296 0 300 0 l 62 0 m 397 975 q 395 974 396 974 l 232 974 q 229 975 231 974 l 189 1023 q 189 1028 185 1025 l 203 1040 q 205 1042 205 1042 l 442 1042 q 445 1040 444 1042 q 446 1037 446 1038 l 443 1015 q 441 1013 443 1015 l 397 975 m 326 487 l 163 487 q 161 488 162 487 l 136 517 q 137 522 133 519 l 173 553 q 176 555 174 555 l 338 555 q 341 553 340 555 l 366 525 q 366 519 368 522 l 329 488 q 326 487 328 487 m 83 508 l 109 508 q 111 507 111 508 l 142 472 q 143 469 143 469 l 90 88 q 88 85 88 85 l 33 37 q 27 38 30 35 l 17 50 q 16 53 16 51 l 80 505 q 83 508 80 508 m 290 85 l 344 467 q 344 468 344 467 q 345 469 345 469 l 382 500 q 387 500 385 503 l 412 472 q 412 469 412 469 l 359 88 q 358 85 359 86 l 321 54 q 316 54 319 52 l 292 83 q 290 85 290 84 m 499 975 l 469 1010 q 468 1013 467 1012 l 471 1038 q 475 1042 471 1042 l 709 1042 q 712 1040 711 1042 l 723 1028 q 722 1023 725 1025 l 667 975 q 665 974 666 974 l 502 974 q 499 975 500 974 z "}}}
